<svg width="364" height="650" viewBox="0 0 564 850" fill="none" xmlns="http://www.w3.org/2000/svg">
<path d="M100 319C100 346.614 77.6142 369 50 369C22.3858 369 0 346.614 0 319C0 291.386 22.3858 269 50 269C77.6142 269 100 291.386 100 319Z" fill="#ED5565"/>
<path d="M216 319C216 346.614 193.614 369 166 369C138.386 369 116 346.614 116 319C116 291.386 138.386 269 166 269C193.614 269 216 291.386 216 319Z" fill="#E6E9ED"/>
<path d="M332 319C332 346.614 309.614 369 282 369C254.386 369 232 346.614 232 319C232 291.386 254.386 269 282 269C309.614 269 332 291.386 332 319Z" fill="#CCD1D9"/>
<path d="M564 319C564 346.614 541.614 369 514 369C486.386 369 464 346.614 464 319C464 291.386 486.386 269 514 269C541.614 269 564 291.386 564 319Z" fill="#656D78"/>
<path d="M100 537C100 564.614 77.6142 587 50 587C22.3858 587 0 564.614 0 537C0 509.386 22.3858 487 50 487C77.6142 487 100 509.386 100 537Z" fill="#EEF7FB"/>
<path d="M216 537C216 564.614 193.614 587 166 587C138.386 587 116 564.614 116 537C116 509.386 138.386 487 166 487C193.614 487 216 509.386 216 537Z" fill="#E5EAEC"/>
<path d="M100 758C100 785.614 77.6142 808 50 808C22.3858 808 0 785.614 0 758C0 730.386 22.3858 708 50 708C77.6142 708 100 730.386 100 758Z" fill="#575757"/>
<path d="M216 758C216 785.614 193.614 808 166 808C138.386 808 116 785.614 116 758C116 730.386 138.386 708 166 708C193.614 708 216 730.386 216 758Z" fill="#9A9A9A"/>
<path d="M448 319C448 346.614 425.614 369 398 369C370.386 369 348 346.614 348 319C348 291.386 370.386 269 398 269C425.614 269 448 291.386 448 319Z" fill="#AAB2BD"/>
<path d="M2.8 167L3.24 164.52H1.42L1.66 163.06H3.5L4.36 158.06H2.54L2.78 156.6H4.62L5.06 154.12H6.66L6.22 156.6H10.14L10.58 154.12H12.18L11.74 156.6H13.58L13.34 158.06H11.48L10.62 163.06H12.44L12.2 164.52H10.36L9.92 167H8.32L8.76 164.52H4.84L4.4 167H2.8ZM5.1 163.06H9.02L9.88 158.06H5.96L5.1 163.06ZM24.06 164.02V167H22.26V164.02H16.28V162.58L20.46 152.86L22.02 153.52L18.24 162.38H22.26V158.4H24.06V162.38H25.72V164.02H24.06ZM28.7922 153.04C29.4189 152.973 30.0322 152.927 30.6322 152.9C31.2322 152.86 31.9189 152.84 32.6922 152.84C33.8922 152.84 34.9255 153.027 35.7922 153.4C36.6589 153.773 37.3789 154.287 37.9522 154.94C38.5255 155.593 38.9455 156.353 39.2122 157.22C39.4922 158.087 39.6322 159.007 39.6322 159.98C39.6322 160.953 39.4922 161.88 39.2122 162.76C38.9322 163.627 38.4989 164.387 37.9122 165.04C37.3389 165.693 36.5989 166.213 35.6922 166.6C34.7989 166.973 33.7255 167.16 32.4722 167.16C31.7122 167.16 31.0455 167.14 30.4722 167.1C29.9122 167.073 29.3522 167.027 28.7922 166.96V153.04ZM32.6322 154.48C32.2455 154.48 31.8922 154.493 31.5722 154.52C31.2522 154.533 30.9589 154.553 30.6922 154.58V165.4C30.9722 165.44 31.2655 165.467 31.5722 165.48C31.8789 165.493 32.1989 165.5 32.5322 165.5C33.4255 165.5 34.1989 165.367 34.8522 165.1C35.5055 164.82 36.0389 164.44 36.4522 163.96C36.8789 163.467 37.1922 162.887 37.3922 162.22C37.5922 161.54 37.6922 160.793 37.6922 159.98C37.6922 159.26 37.5922 158.573 37.3922 157.92C37.1922 157.253 36.8855 156.667 36.4722 156.16C36.0589 155.64 35.5322 155.233 34.8922 154.94C34.2522 154.633 33.4989 154.48 32.6322 154.48ZM42.425 153.04C42.8917 152.987 43.465 152.94 44.145 152.9C44.8383 152.86 45.6383 152.84 46.545 152.84C48.265 152.84 49.5783 153.16 50.485 153.8C51.405 154.44 51.865 155.32 51.865 156.44C51.865 157.187 51.6717 157.813 51.285 158.32C50.8983 158.827 50.325 159.247 49.565 159.58C50.4717 159.9 51.1583 160.34 51.625 160.9C52.0917 161.46 52.325 162.16 52.325 163C52.325 164.28 51.825 165.293 50.825 166.04C49.8383 166.787 48.385 167.16 46.465 167.16C45.6517 167.16 44.8783 167.14 44.145 167.1C43.425 167.073 42.8517 167.027 42.425 166.96V153.04ZM46.605 165.58C47.805 165.58 48.7317 165.367 49.385 164.94C50.0517 164.513 50.385 163.893 50.385 163.08C50.385 162.28 50.0583 161.653 49.405 161.2C48.7517 160.747 47.8183 160.52 46.605 160.52H44.325V165.46C45.0183 165.54 45.7783 165.58 46.605 165.58ZM46.525 159.04C47.5783 159.04 48.4117 158.827 49.025 158.4C49.6517 157.96 49.965 157.387 49.965 156.68C49.965 155.92 49.6583 155.347 49.045 154.96C48.4317 154.573 47.5917 154.38 46.525 154.38C46.085 154.38 45.685 154.393 45.325 154.42C44.965 154.433 44.6317 154.453 44.325 154.48V159.04H46.525ZM56.065 159.98C56.065 160.82 56.1717 161.587 56.385 162.28C56.6117 162.96 56.9183 163.547 57.305 164.04C57.705 164.533 58.1783 164.913 58.725 165.18C59.2717 165.447 59.8717 165.58 60.525 165.58C61.1783 165.58 61.745 165.507 62.225 165.36C62.705 165.2 63.1717 164.987 63.625 164.72L64.205 166.3C63.7117 166.567 63.145 166.793 62.505 166.98C61.8783 167.153 61.145 167.24 60.305 167.24C59.385 167.24 58.545 167.073 57.785 166.74C57.0383 166.407 56.3917 165.933 55.845 165.32C55.2983 164.693 54.8717 163.94 54.565 163.06C54.2717 162.167 54.125 161.167 54.125 160.06C54.125 158.993 54.2717 158.013 54.565 157.12C54.8717 156.227 55.305 155.46 55.865 154.82C56.425 154.167 57.0983 153.66 57.885 153.3C58.685 152.94 59.5717 152.76 60.545 152.76C61.225 152.76 61.8317 152.827 62.365 152.96C62.9117 153.08 63.425 153.253 63.905 153.48L63.325 155.08C62.9117 154.88 62.485 154.72 62.045 154.6C61.6183 154.48 61.1117 154.42 60.525 154.42C59.885 154.42 59.2917 154.547 58.745 154.8C58.1983 155.04 57.725 155.4 57.325 155.88C56.925 156.36 56.6117 156.947 56.385 157.64C56.1717 158.32 56.065 159.1 56.065 159.98ZM72.54 153V165.4H74.92V167H67.88V165.4H70.74V155.3L68.06 157.32L67.08 155.98L71.22 153H72.54ZM78.7922 153H87.0922V154.64H80.6922V158.92H86.0322V160.48H80.6922V167H78.7922V153Z" fill="black"/>
<path d="M118.8 167L119.24 164.52H117.42L117.66 163.06H119.5L120.36 158.06H118.54L118.78 156.6H120.62L121.06 154.12H122.66L122.22 156.6H126.14L126.58 154.12H128.18L127.74 156.6H129.58L129.34 158.06H127.48L126.62 163.06H128.44L128.2 164.52H126.36L125.92 167H124.32L124.76 164.52H120.84L120.4 167H118.8ZM121.1 163.06H125.02L125.88 158.06H121.96L121.1 163.06ZM134.9 167C134.9 165.467 135 164.107 135.2 162.92C135.413 161.733 135.713 160.653 136.1 159.68C136.5 158.707 136.993 157.82 137.58 157.02C138.167 156.207 138.84 155.413 139.6 154.64H132.86V153H141.74V154.44C140.82 155.333 140.053 156.2 139.44 157.04C138.827 157.88 138.333 158.78 137.96 159.74C137.587 160.7 137.32 161.767 137.16 162.94C137 164.1 136.92 165.453 136.92 167H134.9ZM144.792 153H153.192V154.64H146.692V158.9H152.292V160.5H146.692V165.36H153.192V167H144.792V153ZM160.106 152.76C160.879 152.76 161.566 152.927 162.166 153.26C162.766 153.58 163.266 154.053 163.666 154.68C164.066 155.293 164.366 156.053 164.566 156.96C164.779 157.853 164.886 158.873 164.886 160.02C164.886 162.34 164.473 164.127 163.646 165.38C162.819 166.62 161.626 167.24 160.066 167.24C158.506 167.24 157.319 166.607 156.506 165.34C155.693 164.073 155.286 162.287 155.286 159.98C155.286 157.66 155.699 155.88 156.526 154.64C157.353 153.387 158.546 152.76 160.106 152.76ZM160.086 154.4C159.646 154.4 159.246 154.5 158.886 154.7C158.526 154.887 158.219 155.2 157.966 155.64C157.713 156.067 157.519 156.633 157.386 157.34C157.253 158.047 157.186 158.92 157.186 159.96C157.186 161.813 157.439 163.22 157.946 164.18C158.453 165.127 159.166 165.6 160.086 165.6C160.526 165.6 160.926 165.507 161.286 165.32C161.646 165.12 161.953 164.807 162.206 164.38C162.459 163.94 162.653 163.367 162.786 162.66C162.919 161.953 162.986 161.08 162.986 160.04C162.986 158.187 162.733 156.787 162.226 155.84C161.719 154.88 161.006 154.4 160.086 154.4ZM170.138 159.46C169.418 159.073 168.871 158.627 168.498 158.12C168.125 157.6 167.938 156.96 167.938 156.2C167.938 155.693 168.038 155.233 168.238 154.82C168.451 154.393 168.738 154.027 169.098 153.72C169.471 153.413 169.905 153.18 170.398 153.02C170.905 152.847 171.445 152.76 172.018 152.76C172.631 152.76 173.191 152.847 173.698 153.02C174.218 153.193 174.658 153.44 175.018 153.76C175.391 154.067 175.678 154.427 175.878 154.84C176.091 155.253 176.198 155.7 176.198 156.18C176.198 156.993 175.991 157.653 175.578 158.16C175.165 158.667 174.611 159.093 173.918 159.44C174.905 159.867 175.658 160.387 176.178 161C176.698 161.6 176.958 162.34 176.958 163.22C176.958 163.82 176.838 164.373 176.598 164.88C176.358 165.373 176.025 165.793 175.598 166.14C175.171 166.487 174.665 166.76 174.078 166.96C173.491 167.147 172.858 167.24 172.178 167.24C171.418 167.24 170.725 167.14 170.098 166.94C169.485 166.74 168.965 166.467 168.538 166.12C168.111 165.76 167.778 165.347 167.538 164.88C167.311 164.4 167.198 163.887 167.198 163.34C167.198 162.46 167.431 161.707 167.898 161.08C168.365 160.44 169.111 159.9 170.138 159.46ZM175.118 163.26C175.118 162.62 174.831 162.047 174.258 161.54C173.698 161.033 172.918 160.6 171.918 160.24C171.531 160.333 171.165 160.467 170.818 160.64C170.471 160.8 170.165 161 169.898 161.24C169.645 161.467 169.438 161.733 169.278 162.04C169.118 162.333 169.038 162.66 169.038 163.02C169.038 163.393 169.118 163.74 169.278 164.06C169.438 164.38 169.658 164.66 169.938 164.9C170.218 165.127 170.551 165.307 170.938 165.44C171.325 165.573 171.745 165.64 172.198 165.64C173.051 165.64 173.751 165.42 174.298 164.98C174.845 164.54 175.118 163.967 175.118 163.26ZM169.678 156.16C169.678 156.747 169.911 157.273 170.378 157.74C170.845 158.193 171.478 158.54 172.278 158.78C172.571 158.687 172.845 158.56 173.098 158.4C173.365 158.24 173.598 158.06 173.798 157.86C173.998 157.66 174.158 157.433 174.278 157.18C174.398 156.927 174.458 156.653 174.458 156.36C174.458 156.053 174.391 155.773 174.258 155.52C174.138 155.253 173.965 155.027 173.738 154.84C173.525 154.653 173.271 154.507 172.978 154.4C172.685 154.293 172.365 154.24 172.018 154.24C171.338 154.24 170.778 154.42 170.338 154.78C169.898 155.127 169.678 155.587 169.678 156.16ZM184.09 152.76C184.864 152.76 185.55 152.927 186.15 153.26C186.75 153.58 187.25 154.053 187.65 154.68C188.05 155.293 188.35 156.053 188.55 156.96C188.764 157.853 188.87 158.873 188.87 160.02C188.87 162.34 188.457 164.127 187.63 165.38C186.804 166.62 185.61 167.24 184.05 167.24C182.49 167.24 181.304 166.607 180.49 165.34C179.677 164.073 179.27 162.287 179.27 159.98C179.27 157.66 179.684 155.88 180.51 154.64C181.337 153.387 182.53 152.76 184.09 152.76ZM184.07 154.4C183.63 154.4 183.23 154.5 182.87 154.7C182.51 154.887 182.204 155.2 181.95 155.64C181.697 156.067 181.504 156.633 181.37 157.34C181.237 158.047 181.17 158.92 181.17 159.96C181.17 161.813 181.424 163.22 181.93 164.18C182.437 165.127 183.15 165.6 184.07 165.6C184.51 165.6 184.91 165.507 185.27 165.32C185.63 165.12 185.937 164.807 186.19 164.38C186.444 163.94 186.637 163.367 186.77 162.66C186.904 161.953 186.97 161.08 186.97 160.04C186.97 158.187 186.717 156.787 186.21 155.84C185.704 154.88 184.99 154.4 184.07 154.4ZM196.083 152.76C196.856 152.76 197.543 152.927 198.143 153.26C198.743 153.58 199.243 154.053 199.643 154.68C200.043 155.293 200.343 156.053 200.543 156.96C200.756 157.853 200.863 158.873 200.863 160.02C200.863 162.34 200.449 164.127 199.623 165.38C198.796 166.62 197.603 167.24 196.043 167.24C194.483 167.24 193.296 166.607 192.483 165.34C191.669 164.073 191.263 162.287 191.263 159.98C191.263 157.66 191.676 155.88 192.503 154.64C193.329 153.387 194.523 152.76 196.083 152.76ZM196.063 154.4C195.623 154.4 195.223 154.5 194.863 154.7C194.503 154.887 194.196 155.2 193.943 155.64C193.689 156.067 193.496 156.633 193.363 157.34C193.229 158.047 193.163 158.92 193.163 159.96C193.163 161.813 193.416 163.22 193.923 164.18C194.429 165.127 195.143 165.6 196.063 165.6C196.503 165.6 196.903 165.507 197.263 165.32C197.623 165.12 197.929 164.807 198.183 164.38C198.436 163.94 198.629 163.367 198.763 162.66C198.896 161.953 198.963 161.08 198.963 160.04C198.963 158.187 198.709 156.787 198.203 155.84C197.696 154.88 196.983 154.4 196.063 154.4Z" fill="black"/>
<path d="M234.8 167L235.24 164.52H233.42L233.66 163.06H235.5L236.36 158.06H234.54L234.78 156.6H236.62L237.06 154.12H238.66L238.22 156.6H242.14L242.58 154.12H244.18L243.74 156.6H245.58L245.34 158.06H243.48L242.62 163.06H244.44L244.2 164.52H242.36L241.92 167H240.32L240.76 164.52H236.84L236.4 167H234.8ZM237.1 163.06H241.02L241.88 158.06H237.96L237.1 163.06ZM248.8 153H257.1V154.64H250.7V158.92H256.04V160.48H250.7V167H248.8V153ZM259.503 153.04C260.13 152.973 260.743 152.927 261.343 152.9C261.943 152.86 262.63 152.84 263.403 152.84C264.603 152.84 265.636 153.027 266.503 153.4C267.37 153.773 268.09 154.287 268.663 154.94C269.236 155.593 269.656 156.353 269.923 157.22C270.203 158.087 270.343 159.007 270.343 159.98C270.343 160.953 270.203 161.88 269.923 162.76C269.643 163.627 269.21 164.387 268.623 165.04C268.05 165.693 267.31 166.213 266.403 166.6C265.51 166.973 264.436 167.16 263.183 167.16C262.423 167.16 261.756 167.14 261.183 167.1C260.623 167.073 260.063 167.027 259.503 166.96V153.04ZM263.343 154.48C262.956 154.48 262.603 154.493 262.283 154.52C261.963 154.533 261.67 154.553 261.403 154.58V165.4C261.683 165.44 261.976 165.467 262.283 165.48C262.59 165.493 262.91 165.5 263.243 165.5C264.136 165.5 264.91 165.367 265.563 165.1C266.216 164.82 266.75 164.44 267.163 163.96C267.59 163.467 267.903 162.887 268.103 162.22C268.303 161.54 268.403 160.793 268.403 159.98C268.403 159.26 268.303 158.573 268.103 157.92C267.903 157.253 267.596 156.667 267.183 156.16C266.77 155.64 266.243 155.233 265.603 154.94C264.963 154.633 264.21 154.48 263.343 154.48ZM273.136 153H281.536V154.64H275.036V158.9H280.636V160.5H275.036V165.36H281.536V167H273.136V153ZM291.49 164.02V167H289.69V164.02H283.71V162.58L287.89 152.86L289.45 153.52L285.67 162.38H289.69V158.4H291.49V162.38H293.15V164.02H291.49ZM300.442 152.76C301.215 152.76 301.902 152.927 302.502 153.26C303.102 153.58 303.602 154.053 304.002 154.68C304.402 155.293 304.702 156.053 304.902 156.96C305.115 157.853 305.222 158.873 305.222 160.02C305.222 162.34 304.809 164.127 303.982 165.38C303.155 166.62 301.962 167.24 300.402 167.24C298.842 167.24 297.655 166.607 296.842 165.34C296.029 164.073 295.622 162.287 295.622 159.98C295.622 157.66 296.035 155.88 296.862 154.64C297.689 153.387 298.882 152.76 300.442 152.76ZM300.422 154.4C299.982 154.4 299.582 154.5 299.222 154.7C298.862 154.887 298.555 155.2 298.302 155.64C298.049 156.067 297.855 156.633 297.722 157.34C297.589 158.047 297.522 158.92 297.522 159.96C297.522 161.813 297.775 163.22 298.282 164.18C298.789 165.127 299.502 165.6 300.422 165.6C300.862 165.6 301.262 165.507 301.622 165.32C301.982 165.12 302.289 164.807 302.542 164.38C302.795 163.94 302.989 163.367 303.122 162.66C303.255 161.953 303.322 161.08 303.322 160.04C303.322 158.187 303.069 156.787 302.562 155.84C302.055 154.88 301.342 154.4 300.422 154.4ZM312.434 152.76C313.207 152.76 313.894 152.927 314.494 153.26C315.094 153.58 315.594 154.053 315.994 154.68C316.394 155.293 316.694 156.053 316.894 156.96C317.107 157.853 317.214 158.873 317.214 160.02C317.214 162.34 316.801 164.127 315.974 165.38C315.147 166.62 313.954 167.24 312.394 167.24C310.834 167.24 309.647 166.607 308.834 165.34C308.021 164.073 307.614 162.287 307.614 159.98C307.614 157.66 308.027 155.88 308.854 154.64C309.681 153.387 310.874 152.76 312.434 152.76ZM312.414 154.4C311.974 154.4 311.574 154.5 311.214 154.7C310.854 154.887 310.547 155.2 310.294 155.64C310.041 156.067 309.847 156.633 309.714 157.34C309.581 158.047 309.514 158.92 309.514 159.96C309.514 161.813 309.767 163.22 310.274 164.18C310.781 165.127 311.494 165.6 312.414 165.6C312.854 165.6 313.254 165.507 313.614 165.32C313.974 165.12 314.281 164.807 314.534 164.38C314.787 163.94 314.981 163.367 315.114 162.66C315.247 161.953 315.314 161.08 315.314 160.04C315.314 158.187 315.061 156.787 314.554 155.84C314.047 154.88 313.334 154.4 312.414 154.4Z" fill="black"/>
<path d="M350.8 167L351.24 164.52H349.42L349.66 163.06H351.5L352.36 158.06H350.54L350.78 156.6H352.62L353.06 154.12H354.66L354.22 156.6H358.14L358.58 154.12H360.18L359.74 156.6H361.58L361.34 158.06H359.48L358.62 163.06H360.44L360.2 164.52H358.36L357.92 167H356.32L356.76 164.52H352.84L352.4 167H350.8ZM353.1 163.06H357.02L357.88 158.06H353.96L353.1 163.06ZM364.76 167C364.72 166.76 364.7 166.513 364.7 166.26C364.7 165.407 364.853 164.633 365.16 163.94C365.48 163.247 365.873 162.62 366.34 162.06C366.807 161.487 367.307 160.96 367.84 160.48C368.387 159.987 368.893 159.52 369.36 159.08C369.827 158.627 370.213 158.18 370.52 157.74C370.84 157.287 371 156.807 371 156.3C371 155.74 370.793 155.28 370.38 154.92C369.967 154.547 369.433 154.36 368.78 154.36C368.22 154.36 367.707 154.473 367.24 154.7C366.787 154.913 366.36 155.207 365.96 155.58L364.96 154.36C365.493 153.88 366.08 153.493 366.72 153.2C367.373 152.907 368.127 152.76 368.98 152.76C369.567 152.76 370.1 152.847 370.58 153.02C371.073 153.193 371.487 153.44 371.82 153.76C372.167 154.067 372.433 154.427 372.62 154.84C372.807 155.253 372.9 155.7 372.9 156.18C372.9 156.82 372.753 157.413 372.46 157.96C372.18 158.493 371.82 159.007 371.38 159.5C370.953 159.98 370.48 160.447 369.96 160.9C369.453 161.34 368.973 161.793 368.52 162.26C368.067 162.727 367.667 163.213 367.32 163.72C366.987 164.227 366.787 164.773 366.72 165.36H372.88V167H364.76ZM380.172 167.24C379.292 167.24 378.532 167.127 377.892 166.9C377.266 166.66 376.726 166.373 376.272 166.04L377.092 164.54C377.466 164.82 377.892 165.067 378.372 165.28C378.866 165.493 379.472 165.6 380.192 165.6C381.072 165.6 381.766 165.373 382.272 164.92C382.792 164.453 383.052 163.867 383.052 163.16C383.052 162.8 382.979 162.453 382.832 162.12C382.686 161.787 382.452 161.5 382.132 161.26C381.826 161.007 381.432 160.807 380.952 160.66C380.486 160.513 379.926 160.44 379.272 160.44H378.152V158.98H379.192C379.779 158.98 380.292 158.913 380.732 158.78C381.172 158.633 381.532 158.44 381.812 158.2C382.106 157.96 382.319 157.693 382.452 157.4C382.599 157.093 382.672 156.78 382.672 156.46C382.672 155.833 382.432 155.327 381.952 154.94C381.486 154.553 380.906 154.36 380.212 154.36C379.572 154.36 379.012 154.467 378.532 154.68C378.052 154.88 377.659 155.107 377.352 155.36L376.612 153.94C377.012 153.673 377.526 153.413 378.152 153.16C378.779 152.893 379.512 152.76 380.352 152.76C381.006 152.76 381.586 152.853 382.092 153.04C382.612 153.227 383.046 153.48 383.392 153.8C383.752 154.12 384.026 154.493 384.212 154.92C384.399 155.333 384.492 155.767 384.492 156.22C384.492 157.02 384.292 157.687 383.892 158.22C383.506 158.74 382.952 159.173 382.232 159.52C383.072 159.84 383.726 160.307 384.192 160.92C384.672 161.533 384.912 162.26 384.912 163.1C384.912 163.62 384.812 164.133 384.612 164.64C384.426 165.133 384.139 165.573 383.752 165.96C383.366 166.347 382.872 166.66 382.272 166.9C381.672 167.127 380.972 167.24 380.172 167.24ZM388.744 167C388.704 166.76 388.684 166.513 388.684 166.26C388.684 165.407 388.838 164.633 389.144 163.94C389.464 163.247 389.858 162.62 390.324 162.06C390.791 161.487 391.291 160.96 391.824 160.48C392.371 159.987 392.878 159.52 393.344 159.08C393.811 158.627 394.198 158.18 394.504 157.74C394.824 157.287 394.984 156.807 394.984 156.3C394.984 155.74 394.778 155.28 394.364 154.92C393.951 154.547 393.418 154.36 392.764 154.36C392.204 154.36 391.691 154.473 391.224 154.7C390.771 154.913 390.344 155.207 389.944 155.58L388.944 154.36C389.478 153.88 390.064 153.493 390.704 153.2C391.358 152.907 392.111 152.76 392.964 152.76C393.551 152.76 394.084 152.847 394.564 153.02C395.058 153.193 395.471 153.44 395.804 153.76C396.151 154.067 396.418 154.427 396.604 154.84C396.791 155.253 396.884 155.7 396.884 156.18C396.884 156.82 396.738 157.413 396.444 157.96C396.164 158.493 395.804 159.007 395.364 159.5C394.938 159.98 394.464 160.447 393.944 160.9C393.438 161.34 392.958 161.793 392.504 162.26C392.051 162.727 391.651 163.213 391.304 163.72C390.971 164.227 390.771 164.773 390.704 165.36H396.864V167H388.744ZM406.517 153V165.4H408.897V167H401.857V165.4H404.717V155.3L402.037 157.32L401.057 155.98L405.197 153H406.517ZM414.869 167C414.869 165.467 414.969 164.107 415.169 162.92C415.382 161.733 415.682 160.653 416.069 159.68C416.469 158.707 416.962 157.82 417.549 157.02C418.135 156.207 418.809 155.413 419.569 154.64H412.829V153H421.709V154.44C420.789 155.333 420.022 156.2 419.409 157.04C418.795 157.88 418.302 158.78 417.929 159.74C417.555 160.7 417.289 161.767 417.129 162.94C416.969 164.1 416.889 165.453 416.889 167H414.869ZM433.261 162.66C433.261 163.327 433.141 163.94 432.901 164.5C432.674 165.06 432.341 165.547 431.901 165.96C431.474 166.36 430.961 166.673 430.361 166.9C429.761 167.127 429.094 167.24 428.361 167.24C427.534 167.24 426.828 167.153 426.241 166.98C425.668 166.793 425.141 166.533 424.661 166.2L425.601 164.66C425.974 164.927 426.388 165.153 426.841 165.34C427.294 165.513 427.808 165.6 428.381 165.6C428.821 165.6 429.221 165.533 429.581 165.4C429.954 165.267 430.268 165.08 430.521 164.84C430.788 164.587 430.994 164.293 431.141 163.96C431.288 163.627 431.361 163.26 431.361 162.86C431.361 162.02 431.074 161.34 430.501 160.82C429.941 160.3 429.134 160.04 428.081 160.04H425.601V153H432.521V154.62H427.301V158.42H428.301C429.074 158.42 429.768 158.527 430.381 158.74C430.994 158.94 431.514 159.233 431.941 159.62C432.368 159.993 432.694 160.44 432.921 160.96C433.148 161.48 433.261 162.047 433.261 162.66Z" fill="black"/>
<path d="M2.8 388L3.24 385.52H1.42L1.66 384.06H3.5L4.36 379.06H2.54L2.78 377.6H4.62L5.06 375.12H6.66L6.22 377.6H10.14L10.58 375.12H12.18L11.74 377.6H13.58L13.34 379.06H11.48L10.62 384.06H12.44L12.2 385.52H10.36L9.92 388H8.32L8.76 385.52H4.84L4.4 388H2.8ZM5.1 384.06H9.02L9.88 379.06H5.96L5.1 384.06ZM16.8 374H25.2V375.64H18.7V379.9H24.3V381.5H18.7V386.36H25.2V388H16.8V374ZM27.8938 374.04C28.5204 373.973 29.1338 373.927 29.7338 373.9C30.3338 373.86 31.0204 373.84 31.7938 373.84C32.9938 373.84 34.0271 374.027 34.8938 374.4C35.7604 374.773 36.4804 375.287 37.0538 375.94C37.6271 376.593 38.0471 377.353 38.3138 378.22C38.5938 379.087 38.7338 380.007 38.7338 380.98C38.7338 381.953 38.5938 382.88 38.3138 383.76C38.0338 384.627 37.6004 385.387 37.0138 386.04C36.4404 386.693 35.7004 387.213 34.7938 387.6C33.9004 387.973 32.8271 388.16 31.5738 388.16C30.8138 388.16 30.1471 388.14 29.5738 388.1C29.0138 388.073 28.4538 388.027 27.8938 387.96V374.04ZM31.7338 375.48C31.3471 375.48 30.9938 375.493 30.6738 375.52C30.3538 375.533 30.0604 375.553 29.7938 375.58V386.4C30.0738 386.44 30.3671 386.467 30.6738 386.48C30.9804 386.493 31.3004 386.5 31.6338 386.5C32.5271 386.5 33.3004 386.367 33.9538 386.1C34.6071 385.82 35.1404 385.44 35.5538 384.96C35.9804 384.467 36.2938 383.887 36.4938 383.22C36.6938 382.54 36.7938 381.793 36.7938 380.98C36.7938 380.26 36.6938 379.573 36.4938 378.92C36.2938 378.253 35.9871 377.667 35.5738 377.16C35.1604 376.64 34.6338 376.233 33.9938 375.94C33.3538 375.633 32.6004 375.48 31.7338 375.48ZM50.0266 383.66C50.0266 384.327 49.9066 384.94 49.6666 385.5C49.4399 386.06 49.1066 386.547 48.6666 386.96C48.2399 387.36 47.7266 387.673 47.1266 387.9C46.5266 388.127 45.8599 388.24 45.1266 388.24C44.2999 388.24 43.5932 388.153 43.0066 387.98C42.4332 387.793 41.9066 387.533 41.4266 387.2L42.3666 385.66C42.7399 385.927 43.1532 386.153 43.6066 386.34C44.0599 386.513 44.5732 386.6 45.1466 386.6C45.5866 386.6 45.9866 386.533 46.3466 386.4C46.7199 386.267 47.0332 386.08 47.2866 385.84C47.5532 385.587 47.7599 385.293 47.9066 384.96C48.0532 384.627 48.1266 384.26 48.1266 383.86C48.1266 383.02 47.8399 382.34 47.2666 381.82C46.7066 381.3 45.8999 381.04 44.8466 381.04H42.3666V374H49.2866V375.62H44.0666V379.42H45.0666C45.8399 379.42 46.5332 379.527 47.1466 379.74C47.7599 379.94 48.2799 380.233 48.7066 380.62C49.1332 380.993 49.4599 381.44 49.6866 381.96C49.9132 382.48 50.0266 383.047 50.0266 383.66ZM62.0188 383.66C62.0188 384.327 61.8988 384.94 61.6588 385.5C61.4321 386.06 61.0988 386.547 60.6588 386.96C60.2321 387.36 59.7188 387.673 59.1188 387.9C58.5188 388.127 57.8521 388.24 57.1188 388.24C56.2921 388.24 55.5854 388.153 54.9988 387.98C54.4254 387.793 53.8988 387.533 53.4188 387.2L54.3587 385.66C54.7321 385.927 55.1454 386.153 55.5988 386.34C56.0521 386.513 56.5654 386.6 57.1388 386.6C57.5788 386.6 57.9788 386.533 58.3388 386.4C58.7121 386.267 59.0254 386.08 59.2788 385.84C59.5454 385.587 59.7521 385.293 59.8988 384.96C60.0454 384.627 60.1188 384.26 60.1188 383.86C60.1188 383.02 59.8321 382.34 59.2588 381.82C58.6988 381.3 57.8921 381.04 56.8388 381.04H54.3587V374H61.2788V375.62H56.0588V379.42H57.0588C57.8321 379.42 58.5254 379.527 59.1388 379.74C59.7521 379.94 60.2721 380.233 60.6988 380.62C61.1254 380.993 61.4521 381.44 61.6788 381.96C61.9054 382.48 62.0188 383.047 62.0188 383.66ZM72.3109 375.6C70.8443 375.6 69.6443 376.047 68.7109 376.94C67.7776 377.82 67.2043 379.033 66.9909 380.58C67.3643 380.22 67.8376 379.893 68.4109 379.6C68.9976 379.293 69.6709 379.14 70.4309 379.14C70.9909 379.14 71.5043 379.24 71.9709 379.44C72.4509 379.64 72.8643 379.92 73.2109 380.28C73.5576 380.64 73.8309 381.08 74.0309 381.6C74.2309 382.107 74.3309 382.68 74.3309 383.32C74.3309 384.053 74.2176 384.727 73.9909 385.34C73.7643 385.94 73.4509 386.453 73.0509 386.88C72.6509 387.307 72.1709 387.64 71.6109 387.88C71.0509 388.12 70.4443 388.24 69.7909 388.24C69.1509 388.24 68.5443 388.127 67.9709 387.9C67.4109 387.66 66.9176 387.3 66.4909 386.82C66.0643 386.327 65.7243 385.707 65.4709 384.96C65.2309 384.213 65.1109 383.333 65.1109 382.32C65.1109 381.187 65.2643 380.113 65.5709 379.1C65.8776 378.087 66.3309 377.2 66.9309 376.44C67.5309 375.68 68.2776 375.08 69.1709 374.64C70.0643 374.187 71.1043 373.96 72.2909 373.96C72.4109 373.96 72.5376 373.967 72.6709 373.98C72.8176 373.98 72.9443 373.987 73.0509 374V375.64C72.9443 375.627 72.8243 375.62 72.6909 375.62C72.5576 375.607 72.4309 375.6 72.3109 375.6ZM69.9709 380.64C69.3843 380.64 68.8309 380.78 68.3109 381.06C67.8043 381.34 67.3509 381.713 66.9509 382.18V382.62C66.9643 383.247 67.0443 383.807 67.1909 384.3C67.3509 384.793 67.5576 385.213 67.8109 385.56C68.0776 385.893 68.3843 386.153 68.7309 386.34C69.0909 386.513 69.4709 386.6 69.8709 386.6C70.2709 386.6 70.6309 386.527 70.9509 386.38C71.2843 386.22 71.5643 386.007 71.7909 385.74C72.0309 385.46 72.2109 385.133 72.3309 384.76C72.4643 384.387 72.5309 383.98 72.5309 383.54C72.5309 382.673 72.2976 381.973 71.8309 381.44C71.3643 380.907 70.7443 380.64 69.9709 380.64ZM86.0031 383.66C86.0031 384.327 85.8831 384.94 85.6431 385.5C85.4165 386.06 85.0831 386.547 84.6431 386.96C84.2165 387.36 83.7031 387.673 83.1031 387.9C82.5031 388.127 81.8365 388.24 81.1031 388.24C80.2765 388.24 79.5698 388.153 78.9831 387.98C78.4098 387.793 77.8831 387.533 77.4031 387.2L78.3431 385.66C78.7165 385.927 79.1298 386.153 79.5831 386.34C80.0365 386.513 80.5498 386.6 81.1231 386.6C81.5631 386.6 81.9631 386.533 82.3231 386.4C82.6965 386.267 83.0098 386.08 83.2631 385.84C83.5298 385.587 83.7365 385.293 83.8831 384.96C84.0298 384.627 84.1031 384.26 84.1031 383.86C84.1031 383.02 83.8165 382.34 83.2431 381.82C82.6831 381.3 81.8765 381.04 80.8231 381.04H78.3431V374H85.2631V375.62H80.0431V379.42H81.0431C81.8165 379.42 82.5098 379.527 83.1231 379.74C83.7365 379.94 84.2565 380.233 84.6831 380.62C85.1098 380.993 85.4365 381.44 85.6631 381.96C85.8898 382.48 86.0031 383.047 86.0031 383.66Z" fill="black"/>
<path d="M118.8 388L119.24 385.52H117.42L117.66 384.06H119.5L120.36 379.06H118.54L118.78 377.6H120.62L121.06 375.12H122.66L122.22 377.6H126.14L126.58 375.12H128.18L127.74 377.6H129.58L129.34 379.06H127.48L126.62 384.06H128.44L128.2 385.52H126.36L125.92 388H124.32L124.76 385.52H120.84L120.4 388H118.8ZM121.1 384.06H125.02L125.88 379.06H121.96L121.1 384.06ZM132.8 374H141.2V375.64H134.7V379.9H140.3V381.5H134.7V386.36H141.2V388H132.8V374ZM150.694 375.6C149.227 375.6 148.027 376.047 147.094 376.94C146.16 377.82 145.587 379.033 145.374 380.58C145.747 380.22 146.22 379.893 146.794 379.6C147.38 379.293 148.054 379.14 148.814 379.14C149.374 379.14 149.887 379.24 150.354 379.44C150.834 379.64 151.247 379.92 151.594 380.28C151.94 380.64 152.214 381.08 152.414 381.6C152.614 382.107 152.714 382.68 152.714 383.32C152.714 384.053 152.6 384.727 152.374 385.34C152.147 385.94 151.834 386.453 151.434 386.88C151.034 387.307 150.554 387.64 149.994 387.88C149.434 388.12 148.827 388.24 148.174 388.24C147.534 388.24 146.927 388.127 146.354 387.9C145.794 387.66 145.3 387.3 144.874 386.82C144.447 386.327 144.107 385.707 143.854 384.96C143.614 384.213 143.494 383.333 143.494 382.32C143.494 381.187 143.647 380.113 143.954 379.1C144.26 378.087 144.714 377.2 145.314 376.44C145.914 375.68 146.66 375.08 147.554 374.64C148.447 374.187 149.487 373.96 150.674 373.96C150.794 373.96 150.92 373.967 151.054 373.98C151.2 373.98 151.327 373.987 151.434 374V375.64C151.327 375.627 151.207 375.62 151.074 375.62C150.94 375.607 150.814 375.6 150.694 375.6ZM148.354 380.64C147.767 380.64 147.214 380.78 146.694 381.06C146.187 381.34 145.734 381.713 145.334 382.18V382.62C145.347 383.247 145.427 383.807 145.574 384.3C145.734 384.793 145.94 385.213 146.194 385.56C146.46 385.893 146.767 386.153 147.114 386.34C147.474 386.513 147.854 386.6 148.254 386.6C148.654 386.6 149.014 386.527 149.334 386.38C149.667 386.22 149.947 386.007 150.174 385.74C150.414 385.46 150.594 385.133 150.714 384.76C150.847 384.387 150.914 383.98 150.914 383.54C150.914 382.673 150.68 381.973 150.214 381.44C149.747 380.907 149.127 380.64 148.354 380.64ZM155.886 374H164.286V375.64H157.786V379.9H163.386V381.5H157.786V386.36H164.286V388H155.886V374ZM167.88 385.34C168.68 386.18 169.573 386.6 170.56 386.6C170.973 386.6 171.366 386.5 171.74 386.3C172.113 386.087 172.44 385.767 172.72 385.34C173 384.913 173.22 384.367 173.38 383.7C173.553 383.02 173.64 382.213 173.64 381.28C173.226 381.667 172.766 381.987 172.26 382.24C171.766 382.48 171.22 382.6 170.62 382.6C170.086 382.6 169.573 382.513 169.08 382.34C168.586 382.153 168.146 381.88 167.76 381.52C167.373 381.16 167.06 380.713 166.82 380.18C166.593 379.647 166.48 379.027 166.48 378.32C166.48 377.693 166.586 377.107 166.8 376.56C167.026 376 167.333 375.513 167.72 375.1C168.12 374.687 168.593 374.36 169.14 374.12C169.7 373.88 170.32 373.76 171 373.76C171.693 373.76 172.286 373.867 172.78 374.08C173.273 374.293 173.686 374.573 174.02 374.92C174.26 375.173 174.466 375.453 174.64 375.76C174.826 376.067 174.98 376.44 175.1 376.88C175.233 377.32 175.326 377.847 175.38 378.46C175.446 379.073 175.48 379.813 175.48 380.68C175.48 382.013 175.353 383.16 175.1 384.12C174.846 385.067 174.493 385.847 174.04 386.46C173.586 387.073 173.053 387.527 172.44 387.82C171.84 388.1 171.18 388.24 170.46 388.24C169.686 388.24 168.993 388.107 168.38 387.84C167.766 387.56 167.206 387.173 166.7 386.68L167.88 385.34ZM170.92 381.12C171.426 381.12 171.913 380.993 172.38 380.74C172.86 380.487 173.28 380.18 173.64 379.82V379.22C173.64 377.953 173.393 376.993 172.9 376.34C172.42 375.687 171.766 375.36 170.94 375.36C170.553 375.36 170.193 375.433 169.86 375.58C169.54 375.713 169.253 375.907 169 376.16C168.76 376.4 168.566 376.7 168.42 377.06C168.286 377.407 168.22 377.8 168.22 378.24C168.22 378.693 168.293 379.1 168.44 379.46C168.586 379.807 168.78 380.107 169.02 380.36C169.273 380.6 169.56 380.787 169.88 380.92C170.213 381.053 170.56 381.12 170.92 381.12ZM178.972 374H187.372V375.64H180.872V379.9H186.472V381.5H180.872V386.36H187.372V388H178.972V374ZM190.066 374.04C190.692 373.973 191.306 373.927 191.906 373.9C192.506 373.86 193.192 373.84 193.966 373.84C195.166 373.84 196.199 374.027 197.066 374.4C197.932 374.773 198.652 375.287 199.226 375.94C199.799 376.593 200.219 377.353 200.486 378.22C200.766 379.087 200.906 380.007 200.906 380.98C200.906 381.953 200.766 382.88 200.486 383.76C200.206 384.627 199.772 385.387 199.186 386.04C198.612 386.693 197.872 387.213 196.966 387.6C196.072 387.973 194.999 388.16 193.746 388.16C192.986 388.16 192.319 388.14 191.746 388.1C191.186 388.073 190.626 388.027 190.066 387.96V374.04ZM193.906 375.48C193.519 375.48 193.166 375.493 192.846 375.52C192.526 375.533 192.232 375.553 191.966 375.58V386.4C192.246 386.44 192.539 386.467 192.846 386.48C193.152 386.493 193.472 386.5 193.806 386.5C194.699 386.5 195.472 386.367 196.126 386.1C196.779 385.82 197.312 385.44 197.726 384.96C198.152 384.467 198.466 383.887 198.666 383.22C198.866 382.54 198.966 381.793 198.966 380.98C198.966 380.26 198.866 379.573 198.666 378.92C198.466 378.253 198.159 377.667 197.746 377.16C197.332 376.64 196.806 376.233 196.166 375.94C195.526 375.633 194.772 375.48 193.906 375.48Z" fill="black"/>
<path d="M234.8 388L235.24 385.52H233.42L233.66 384.06H235.5L236.36 379.06H234.54L234.78 377.6H236.62L237.06 375.12H238.66L238.22 377.6H242.14L242.58 375.12H244.18L243.74 377.6H245.58L245.34 379.06H243.48L242.62 384.06H244.44L244.2 385.52H242.36L241.92 388H240.32L240.76 385.52H236.84L236.4 388H234.8ZM237.1 384.06H241.02L241.88 379.06H237.96L237.1 384.06ZM249.94 380.98C249.94 381.82 250.047 382.587 250.26 383.28C250.487 383.96 250.793 384.547 251.18 385.04C251.58 385.533 252.053 385.913 252.6 386.18C253.147 386.447 253.747 386.58 254.4 386.58C255.053 386.58 255.62 386.507 256.1 386.36C256.58 386.2 257.047 385.987 257.5 385.72L258.08 387.3C257.587 387.567 257.02 387.793 256.38 387.98C255.753 388.153 255.02 388.24 254.18 388.24C253.26 388.24 252.42 388.073 251.66 387.74C250.913 387.407 250.267 386.933 249.72 386.32C249.173 385.693 248.747 384.94 248.44 384.06C248.147 383.167 248 382.167 248 381.06C248 379.993 248.147 379.013 248.44 378.12C248.747 377.227 249.18 376.46 249.74 375.82C250.3 375.167 250.973 374.66 251.76 374.3C252.56 373.94 253.447 373.76 254.42 373.76C255.1 373.76 255.707 373.827 256.24 373.96C256.787 374.08 257.3 374.253 257.78 374.48L257.2 376.08C256.787 375.88 256.36 375.72 255.92 375.6C255.493 375.48 254.987 375.42 254.4 375.42C253.76 375.42 253.167 375.547 252.62 375.8C252.073 376.04 251.6 376.4 251.2 376.88C250.8 377.36 250.487 377.947 250.26 378.64C250.047 379.32 249.94 380.1 249.94 380.98ZM261.112 380.98C261.112 381.82 261.219 382.587 261.432 383.28C261.659 383.96 261.965 384.547 262.352 385.04C262.752 385.533 263.225 385.913 263.772 386.18C264.319 386.447 264.919 386.58 265.572 386.58C266.225 386.58 266.792 386.507 267.272 386.36C267.752 386.2 268.219 385.987 268.672 385.72L269.252 387.3C268.759 387.567 268.192 387.793 267.552 387.98C266.925 388.153 266.192 388.24 265.352 388.24C264.432 388.24 263.592 388.073 262.832 387.74C262.085 387.407 261.439 386.933 260.892 386.32C260.345 385.693 259.919 384.94 259.612 384.06C259.319 383.167 259.172 382.167 259.172 381.06C259.172 379.993 259.319 379.013 259.612 378.12C259.919 377.227 260.352 376.46 260.912 375.82C261.472 375.167 262.145 374.66 262.932 374.3C263.732 373.94 264.619 373.76 265.592 373.76C266.272 373.76 266.879 373.827 267.412 373.96C267.959 374.08 268.472 374.253 268.952 374.48L268.372 376.08C267.959 375.88 267.532 375.72 267.092 375.6C266.665 375.48 266.159 375.42 265.572 375.42C264.932 375.42 264.339 375.547 263.792 375.8C263.245 376.04 262.772 376.4 262.372 376.88C261.972 377.36 261.659 377.947 261.432 378.64C261.219 379.32 261.112 380.1 261.112 380.98ZM271.847 374.04C272.474 373.973 273.087 373.927 273.687 373.9C274.287 373.86 274.974 373.84 275.747 373.84C276.947 373.84 277.98 374.027 278.847 374.4C279.714 374.773 280.434 375.287 281.007 375.94C281.58 376.593 282 377.353 282.267 378.22C282.547 379.087 282.687 380.007 282.687 380.98C282.687 381.953 282.547 382.88 282.267 383.76C281.987 384.627 281.554 385.387 280.967 386.04C280.394 386.693 279.654 387.213 278.747 387.6C277.854 387.973 276.78 388.16 275.527 388.16C274.767 388.16 274.1 388.14 273.527 388.1C272.967 388.073 272.407 388.027 271.847 387.96V374.04ZM275.687 375.48C275.3 375.48 274.947 375.493 274.627 375.52C274.307 375.533 274.014 375.553 273.747 375.58V386.4C274.027 386.44 274.32 386.467 274.627 386.48C274.934 386.493 275.254 386.5 275.587 386.5C276.48 386.5 277.254 386.367 277.907 386.1C278.56 385.82 279.094 385.44 279.507 384.96C279.934 384.467 280.247 383.887 280.447 383.22C280.647 382.54 280.747 381.793 280.747 380.98C280.747 380.26 280.647 379.573 280.447 378.92C280.247 378.253 279.94 377.667 279.527 377.16C279.114 376.64 278.587 376.233 277.947 375.94C277.307 375.633 276.554 375.48 275.687 375.48ZM291.22 374V386.4H293.6V388H286.56V386.4H289.42V376.3L286.74 378.32L285.76 376.98L289.9 374H291.22ZM297.472 374.04C298.099 373.973 298.712 373.927 299.312 373.9C299.912 373.86 300.599 373.84 301.372 373.84C302.572 373.84 303.605 374.027 304.472 374.4C305.339 374.773 306.059 375.287 306.632 375.94C307.205 376.593 307.625 377.353 307.892 378.22C308.172 379.087 308.312 380.007 308.312 380.98C308.312 381.953 308.172 382.88 307.892 383.76C307.612 384.627 307.179 385.387 306.592 386.04C306.019 386.693 305.279 387.213 304.372 387.6C303.479 387.973 302.405 388.16 301.152 388.16C300.392 388.16 299.725 388.14 299.152 388.1C298.592 388.073 298.032 388.027 297.472 387.96V374.04ZM301.312 375.48C300.925 375.48 300.572 375.493 300.252 375.52C299.932 375.533 299.639 375.553 299.372 375.58V386.4C299.652 386.44 299.945 386.467 300.252 386.48C300.559 386.493 300.879 386.5 301.212 386.5C302.105 386.5 302.879 386.367 303.532 386.1C304.185 385.82 304.719 385.44 305.132 384.96C305.559 384.467 305.872 383.887 306.072 383.22C306.272 382.54 306.372 381.793 306.372 380.98C306.372 380.26 306.272 379.573 306.072 378.92C305.872 378.253 305.565 377.667 305.152 377.16C304.739 376.64 304.212 376.233 303.572 375.94C302.932 375.633 302.179 375.48 301.312 375.48ZM312.005 385.34C312.805 386.18 313.698 386.6 314.685 386.6C315.098 386.6 315.491 386.5 315.865 386.3C316.238 386.087 316.565 385.767 316.845 385.34C317.125 384.913 317.345 384.367 317.505 383.7C317.678 383.02 317.765 382.213 317.765 381.28C317.351 381.667 316.891 381.987 316.385 382.24C315.891 382.48 315.345 382.6 314.745 382.6C314.211 382.6 313.698 382.513 313.205 382.34C312.711 382.153 312.271 381.88 311.885 381.52C311.498 381.16 311.185 380.713 310.945 380.18C310.718 379.647 310.605 379.027 310.605 378.32C310.605 377.693 310.711 377.107 310.925 376.56C311.151 376 311.458 375.513 311.845 375.1C312.245 374.687 312.718 374.36 313.265 374.12C313.825 373.88 314.445 373.76 315.125 373.76C315.818 373.76 316.411 373.867 316.905 374.08C317.398 374.293 317.811 374.573 318.145 374.92C318.385 375.173 318.591 375.453 318.765 375.76C318.951 376.067 319.105 376.44 319.225 376.88C319.358 377.32 319.451 377.847 319.505 378.46C319.571 379.073 319.605 379.813 319.605 380.68C319.605 382.013 319.478 383.16 319.225 384.12C318.971 385.067 318.618 385.847 318.165 386.46C317.711 387.073 317.178 387.527 316.565 387.82C315.965 388.1 315.305 388.24 314.585 388.24C313.811 388.24 313.118 388.107 312.505 387.84C311.891 387.56 311.331 387.173 310.825 386.68L312.005 385.34ZM315.045 381.12C315.551 381.12 316.038 380.993 316.505 380.74C316.985 380.487 317.405 380.18 317.765 379.82V379.22C317.765 377.953 317.518 376.993 317.025 376.34C316.545 375.687 315.891 375.36 315.065 375.36C314.678 375.36 314.318 375.433 313.985 375.58C313.665 375.713 313.378 375.907 313.125 376.16C312.885 376.4 312.691 376.7 312.545 377.06C312.411 377.407 312.345 377.8 312.345 378.24C312.345 378.693 312.418 379.1 312.565 379.46C312.711 379.807 312.905 380.107 313.145 380.36C313.398 380.6 313.685 380.787 314.005 380.92C314.338 381.053 314.685 381.12 315.045 381.12Z" fill="black"/>
<path d="M350.8 388L351.24 385.52H349.42L349.66 384.06H351.5L352.36 379.06H350.54L350.78 377.6H352.62L353.06 375.12H354.66L354.22 377.6H358.14L358.58 375.12H360.18L359.74 377.6H361.58L361.34 379.06H359.48L358.62 384.06H360.44L360.2 385.52H358.36L357.92 388H356.32L356.76 385.52H352.84L352.4 388H350.8ZM353.1 384.06H357.02L357.88 379.06H353.96L353.1 384.06ZM363.2 387.5L368.68 374H370.76L376.16 387.5L374.42 388.2L372.86 384.2H366.38L364.82 388.16L363.2 387.5ZM366.98 382.6H372.24L369.62 375.88L366.98 382.6ZM376.559 387.5L382.039 374H384.119L389.519 387.5L387.779 388.2L386.219 384.2H379.739L378.179 388.16L376.559 387.5ZM380.339 382.6H385.599L382.979 375.88L380.339 382.6ZM391.519 374.04C391.985 373.987 392.559 373.94 393.239 373.9C393.932 373.86 394.732 373.84 395.639 373.84C397.359 373.84 398.672 374.16 399.579 374.8C400.499 375.44 400.959 376.32 400.959 377.44C400.959 378.187 400.765 378.813 400.379 379.32C399.992 379.827 399.419 380.247 398.659 380.58C399.565 380.9 400.252 381.34 400.719 381.9C401.185 382.46 401.419 383.16 401.419 384C401.419 385.28 400.919 386.293 399.919 387.04C398.932 387.787 397.479 388.16 395.559 388.16C394.745 388.16 393.972 388.14 393.239 388.1C392.519 388.073 391.945 388.027 391.519 387.96V374.04ZM395.699 386.58C396.899 386.58 397.825 386.367 398.479 385.94C399.145 385.513 399.479 384.893 399.479 384.08C399.479 383.28 399.152 382.653 398.499 382.2C397.845 381.747 396.912 381.52 395.699 381.52H393.419V386.46C394.112 386.54 394.872 386.58 395.699 386.58ZM395.619 380.04C396.672 380.04 397.505 379.827 398.119 379.4C398.745 378.96 399.059 378.387 399.059 377.68C399.059 376.92 398.752 376.347 398.139 375.96C397.525 375.573 396.685 375.38 395.619 375.38C395.179 375.38 394.779 375.393 394.419 375.42C394.059 375.433 393.725 375.453 393.419 375.48V380.04H395.619ZM404.076 388C404.036 387.76 404.016 387.513 404.016 387.26C404.016 386.407 404.17 385.633 404.476 384.94C404.796 384.247 405.19 383.62 405.656 383.06C406.123 382.487 406.623 381.96 407.156 381.48C407.703 380.987 408.21 380.52 408.676 380.08C409.143 379.627 409.53 379.18 409.836 378.74C410.156 378.287 410.316 377.807 410.316 377.3C410.316 376.74 410.11 376.28 409.696 375.92C409.283 375.547 408.75 375.36 408.096 375.36C407.536 375.36 407.023 375.473 406.556 375.7C406.103 375.913 405.676 376.207 405.276 376.58L404.276 375.36C404.81 374.88 405.396 374.493 406.036 374.2C406.69 373.907 407.443 373.76 408.296 373.76C408.883 373.76 409.416 373.847 409.896 374.02C410.39 374.193 410.803 374.44 411.136 374.76C411.483 375.067 411.75 375.427 411.936 375.84C412.123 376.253 412.216 376.7 412.216 377.18C412.216 377.82 412.07 378.413 411.776 378.96C411.496 379.493 411.136 380.007 410.696 380.5C410.27 380.98 409.796 381.447 409.276 381.9C408.77 382.34 408.29 382.793 407.836 383.26C407.383 383.727 406.983 384.213 406.636 384.72C406.303 385.227 406.103 385.773 406.036 386.36H412.196V388H404.076ZM416.109 374.04C416.575 373.987 417.149 373.94 417.829 373.9C418.522 373.86 419.322 373.84 420.229 373.84C421.949 373.84 423.262 374.16 424.169 374.8C425.089 375.44 425.549 376.32 425.549 377.44C425.549 378.187 425.355 378.813 424.969 379.32C424.582 379.827 424.009 380.247 423.249 380.58C424.155 380.9 424.842 381.34 425.309 381.9C425.775 382.46 426.009 383.16 426.009 384C426.009 385.28 425.509 386.293 424.509 387.04C423.522 387.787 422.069 388.16 420.149 388.16C419.335 388.16 418.562 388.14 417.829 388.1C417.109 388.073 416.535 388.027 416.109 387.96V374.04ZM420.289 386.58C421.489 386.58 422.415 386.367 423.069 385.94C423.735 385.513 424.069 384.893 424.069 384.08C424.069 383.28 423.742 382.653 423.089 382.2C422.435 381.747 421.502 381.52 420.289 381.52H418.009V386.46C418.702 386.54 419.462 386.58 420.289 386.58ZM420.209 380.04C421.262 380.04 422.095 379.827 422.709 379.4C423.335 378.96 423.649 378.387 423.649 377.68C423.649 376.92 423.342 376.347 422.729 375.96C422.115 375.573 421.275 375.38 420.209 375.38C419.769 375.38 419.369 375.393 419.009 375.42C418.649 375.433 418.315 375.453 418.009 375.48V380.04H420.209ZM428.706 374.04C429.333 373.973 429.946 373.927 430.546 373.9C431.146 373.86 431.833 373.84 432.606 373.84C433.806 373.84 434.84 374.027 435.706 374.4C436.573 374.773 437.293 375.287 437.866 375.94C438.44 376.593 438.86 377.353 439.126 378.22C439.406 379.087 439.546 380.007 439.546 380.98C439.546 381.953 439.406 382.88 439.126 383.76C438.846 384.627 438.413 385.387 437.826 386.04C437.253 386.693 436.513 387.213 435.606 387.6C434.713 387.973 433.64 388.16 432.386 388.16C431.626 388.16 430.96 388.14 430.386 388.1C429.826 388.073 429.266 388.027 428.706 387.96V374.04ZM432.546 375.48C432.16 375.48 431.806 375.493 431.486 375.52C431.166 375.533 430.873 375.553 430.606 375.58V386.4C430.886 386.44 431.18 386.467 431.486 386.48C431.793 386.493 432.113 386.5 432.446 386.5C433.34 386.5 434.113 386.367 434.766 386.1C435.42 385.82 435.953 385.44 436.366 384.96C436.793 384.467 437.106 383.887 437.306 383.22C437.506 382.54 437.606 381.793 437.606 380.98C437.606 380.26 437.506 379.573 437.306 378.92C437.106 378.253 436.8 377.667 436.386 377.16C435.973 376.64 435.446 376.233 434.806 375.94C434.166 375.633 433.413 375.48 432.546 375.48Z" fill="black"/>
<path d="M466.8 388L467.24 385.52H465.42L465.66 384.06H467.5L468.36 379.06H466.54L466.78 377.6H468.62L469.06 375.12H470.66L470.22 377.6H474.14L474.58 375.12H476.18L475.74 377.6H477.58L477.34 379.06H475.48L474.62 384.06H476.44L476.2 385.52H474.36L473.92 388H472.32L472.76 385.52H468.84L468.4 388H466.8ZM469.1 384.06H473.02L473.88 379.06H469.96L469.1 384.06ZM487.6 375.6C486.133 375.6 484.933 376.047 484 376.94C483.067 377.82 482.493 379.033 482.28 380.58C482.653 380.22 483.127 379.893 483.7 379.6C484.287 379.293 484.96 379.14 485.72 379.14C486.28 379.14 486.793 379.24 487.26 379.44C487.74 379.64 488.153 379.92 488.5 380.28C488.847 380.64 489.12 381.08 489.32 381.6C489.52 382.107 489.62 382.68 489.62 383.32C489.62 384.053 489.507 384.727 489.28 385.34C489.053 385.94 488.74 386.453 488.34 386.88C487.94 387.307 487.46 387.64 486.9 387.88C486.34 388.12 485.733 388.24 485.08 388.24C484.44 388.24 483.833 388.127 483.26 387.9C482.7 387.66 482.207 387.3 481.78 386.82C481.353 386.327 481.013 385.707 480.76 384.96C480.52 384.213 480.4 383.333 480.4 382.32C480.4 381.187 480.553 380.113 480.86 379.1C481.167 378.087 481.62 377.2 482.22 376.44C482.82 375.68 483.567 375.08 484.46 374.64C485.353 374.187 486.393 373.96 487.58 373.96C487.7 373.96 487.827 373.967 487.96 373.98C488.107 373.98 488.233 373.987 488.34 374V375.64C488.233 375.627 488.113 375.62 487.98 375.62C487.847 375.607 487.72 375.6 487.6 375.6ZM485.26 380.64C484.673 380.64 484.12 380.78 483.6 381.06C483.093 381.34 482.64 381.713 482.24 382.18V382.62C482.253 383.247 482.333 383.807 482.48 384.3C482.64 384.793 482.847 385.213 483.1 385.56C483.367 385.893 483.673 386.153 484.02 386.34C484.38 386.513 484.76 386.6 485.16 386.6C485.56 386.6 485.92 386.527 486.24 386.38C486.573 386.22 486.853 386.007 487.08 385.74C487.32 385.46 487.5 385.133 487.62 384.76C487.753 384.387 487.82 383.98 487.82 383.54C487.82 382.673 487.587 381.973 487.12 381.44C486.653 380.907 486.033 380.64 485.26 380.64ZM501.292 383.66C501.292 384.327 501.172 384.94 500.932 385.5C500.706 386.06 500.372 386.547 499.932 386.96C499.506 387.36 498.992 387.673 498.392 387.9C497.792 388.127 497.126 388.24 496.392 388.24C495.566 388.24 494.859 388.153 494.272 387.98C493.699 387.793 493.172 387.533 492.692 387.2L493.632 385.66C494.006 385.927 494.419 386.153 494.872 386.34C495.326 386.513 495.839 386.6 496.412 386.6C496.852 386.6 497.252 386.533 497.612 386.4C497.986 386.267 498.299 386.08 498.552 385.84C498.819 385.587 499.026 385.293 499.172 384.96C499.319 384.627 499.392 384.26 499.392 383.86C499.392 383.02 499.106 382.34 498.532 381.82C497.972 381.3 497.166 381.04 496.112 381.04H493.632V374H500.552V375.62H495.332V379.42H496.332C497.106 379.42 497.799 379.527 498.412 379.74C499.026 379.94 499.546 380.233 499.972 380.62C500.399 380.993 500.726 381.44 500.952 381.96C501.179 382.48 501.292 383.047 501.292 383.66ZM511.584 375.6C510.118 375.6 508.918 376.047 507.984 376.94C507.051 377.82 506.478 379.033 506.264 380.58C506.638 380.22 507.111 379.893 507.684 379.6C508.271 379.293 508.944 379.14 509.704 379.14C510.264 379.14 510.778 379.24 511.244 379.44C511.724 379.64 512.138 379.92 512.484 380.28C512.831 380.64 513.104 381.08 513.304 381.6C513.504 382.107 513.604 382.68 513.604 383.32C513.604 384.053 513.491 384.727 513.264 385.34C513.038 385.94 512.724 386.453 512.324 386.88C511.924 387.307 511.444 387.64 510.884 387.88C510.324 388.12 509.718 388.24 509.064 388.24C508.424 388.24 507.818 388.127 507.244 387.9C506.684 387.66 506.191 387.3 505.764 386.82C505.338 386.327 504.998 385.707 504.744 384.96C504.504 384.213 504.384 383.333 504.384 382.32C504.384 381.187 504.538 380.113 504.844 379.1C505.151 378.087 505.604 377.2 506.204 376.44C506.804 375.68 507.551 375.08 508.444 374.64C509.338 374.187 510.378 373.96 511.564 373.96C511.684 373.96 511.811 373.967 511.944 373.98C512.091 373.98 512.218 373.987 512.324 374V375.64C512.218 375.627 512.098 375.62 511.964 375.62C511.831 375.607 511.704 375.6 511.584 375.6ZM509.244 380.64C508.658 380.64 508.104 380.78 507.584 381.06C507.078 381.34 506.624 381.713 506.224 382.18V382.62C506.238 383.247 506.318 383.807 506.464 384.3C506.624 384.793 506.831 385.213 507.084 385.56C507.351 385.893 507.658 386.153 508.004 386.34C508.364 386.513 508.744 386.6 509.144 386.6C509.544 386.6 509.904 386.527 510.224 386.38C510.558 386.22 510.838 386.007 511.064 385.74C511.304 385.46 511.484 385.133 511.604 384.76C511.738 384.387 511.804 383.98 511.804 383.54C511.804 382.673 511.571 381.973 511.104 381.44C510.638 380.907 510.018 380.64 509.244 380.64ZM516.777 374.04C517.403 373.973 518.017 373.927 518.617 373.9C519.217 373.86 519.903 373.84 520.677 373.84C521.877 373.84 522.91 374.027 523.777 374.4C524.643 374.773 525.363 375.287 525.937 375.94C526.51 376.593 526.93 377.353 527.197 378.22C527.477 379.087 527.617 380.007 527.617 380.98C527.617 381.953 527.477 382.88 527.197 383.76C526.917 384.627 526.483 385.387 525.897 386.04C525.323 386.693 524.583 387.213 523.677 387.6C522.783 387.973 521.71 388.16 520.457 388.16C519.697 388.16 519.03 388.14 518.457 388.1C517.897 388.073 517.337 388.027 516.777 387.96V374.04ZM520.617 375.48C520.23 375.48 519.877 375.493 519.557 375.52C519.237 375.533 518.943 375.553 518.677 375.58V386.4C518.957 386.44 519.25 386.467 519.557 386.48C519.863 386.493 520.183 386.5 520.517 386.5C521.41 386.5 522.183 386.367 522.837 386.1C523.49 385.82 524.023 385.44 524.437 384.96C524.863 384.467 525.177 383.887 525.377 383.22C525.577 382.54 525.677 381.793 525.677 380.98C525.677 380.26 525.577 379.573 525.377 378.92C525.177 378.253 524.87 377.667 524.457 377.16C524.043 376.64 523.517 376.233 522.877 375.94C522.237 375.633 521.483 375.48 520.617 375.48ZM532.509 388C532.509 386.467 532.609 385.107 532.809 383.92C533.023 382.733 533.323 381.653 533.709 380.68C534.109 379.707 534.603 378.82 535.189 378.02C535.776 377.207 536.449 376.413 537.209 375.64H530.469V374H539.349V375.44C538.429 376.333 537.663 377.2 537.049 378.04C536.436 378.88 535.943 379.78 535.569 380.74C535.196 381.7 534.929 382.767 534.769 383.94C534.609 385.1 534.529 386.453 534.529 388H532.509ZM544.662 380.46C543.942 380.073 543.395 379.627 543.022 379.12C542.648 378.6 542.462 377.96 542.462 377.2C542.462 376.693 542.562 376.233 542.762 375.82C542.975 375.393 543.262 375.027 543.622 374.72C543.995 374.413 544.428 374.18 544.922 374.02C545.428 373.847 545.968 373.76 546.542 373.76C547.155 373.76 547.715 373.847 548.222 374.02C548.742 374.193 549.182 374.44 549.542 374.76C549.915 375.067 550.202 375.427 550.402 375.84C550.615 376.253 550.722 376.7 550.722 377.18C550.722 377.993 550.515 378.653 550.102 379.16C549.688 379.667 549.135 380.093 548.442 380.44C549.428 380.867 550.182 381.387 550.702 382C551.222 382.6 551.482 383.34 551.482 384.22C551.482 384.82 551.362 385.373 551.122 385.88C550.882 386.373 550.548 386.793 550.122 387.14C549.695 387.487 549.188 387.76 548.602 387.96C548.015 388.147 547.382 388.24 546.702 388.24C545.942 388.24 545.248 388.14 544.622 387.94C544.008 387.74 543.488 387.467 543.062 387.12C542.635 386.76 542.302 386.347 542.062 385.88C541.835 385.4 541.722 384.887 541.722 384.34C541.722 383.46 541.955 382.707 542.422 382.08C542.888 381.44 543.635 380.9 544.662 380.46ZM549.642 384.26C549.642 383.62 549.355 383.047 548.782 382.54C548.222 382.033 547.442 381.6 546.442 381.24C546.055 381.333 545.688 381.467 545.342 381.64C544.995 381.8 544.688 382 544.422 382.24C544.168 382.467 543.962 382.733 543.802 383.04C543.642 383.333 543.562 383.66 543.562 384.02C543.562 384.393 543.642 384.74 543.802 385.06C543.962 385.38 544.182 385.66 544.462 385.9C544.742 386.127 545.075 386.307 545.462 386.44C545.848 386.573 546.268 386.64 546.722 386.64C547.575 386.64 548.275 386.42 548.822 385.98C549.368 385.54 549.642 384.967 549.642 384.26ZM544.202 377.16C544.202 377.747 544.435 378.273 544.902 378.74C545.368 379.193 546.002 379.54 546.802 379.78C547.095 379.687 547.368 379.56 547.622 379.4C547.888 379.24 548.122 379.06 548.322 378.86C548.522 378.66 548.682 378.433 548.802 378.18C548.922 377.927 548.982 377.653 548.982 377.36C548.982 377.053 548.915 376.773 548.782 376.52C548.662 376.253 548.488 376.027 548.262 375.84C548.048 375.653 547.795 375.507 547.502 375.4C547.208 375.293 546.888 375.24 546.542 375.24C545.862 375.24 545.302 375.42 544.862 375.78C544.422 376.127 544.202 376.587 544.202 377.16Z" fill="black"/>
<path d="M2.8 609L3.24 606.52H1.42L1.66 605.06H3.5L4.36 600.06H2.54L2.78 598.6H4.62L5.06 596.12H6.66L6.22 598.6H10.14L10.58 596.12H12.18L11.74 598.6H13.58L13.34 600.06H11.48L10.62 605.06H12.44L12.2 606.52H10.36L9.92 609H8.32L8.76 606.52H4.84L4.4 609H2.8ZM5.1 605.06H9.02L9.88 600.06H5.96L5.1 605.06ZM16.8 595H25.2V596.64H18.7V600.9H24.3V602.5H18.7V607.36H25.2V609H16.8V595ZM27.8938 595H36.2938V596.64H29.7938V600.9H35.3938V602.5H29.7938V607.36H36.2938V609H27.8938V595ZM38.9875 595H47.2875V596.64H40.8875V600.92H46.2275V602.48H40.8875V609H38.9875V595ZM51.7906 609C51.7906 607.467 51.8906 606.107 52.0906 604.92C52.304 603.733 52.604 602.653 52.9906 601.68C53.3906 600.707 53.884 599.82 54.4706 599.02C55.0573 598.207 55.7306 597.413 56.4906 596.64H49.7506V595H58.6306V596.44C57.7106 597.333 56.944 598.2 56.3306 599.04C55.7173 599.88 55.224 600.78 54.8506 601.74C54.4773 602.7 54.2106 603.767 54.0506 604.94C53.8906 606.1 53.8106 607.453 53.8106 609H51.7906ZM61.6828 595H69.9828V596.64H63.5828V600.92H68.9228V602.48H63.5828V609H61.6828V595ZM72.3859 595.04C72.8526 594.987 73.4259 594.94 74.1059 594.9C74.7993 594.86 75.5993 594.84 76.5059 594.84C78.2259 594.84 79.5393 595.16 80.4459 595.8C81.3659 596.44 81.8259 597.32 81.8259 598.44C81.8259 599.187 81.6326 599.813 81.2459 600.32C80.8593 600.827 80.2859 601.247 79.5259 601.58C80.4326 601.9 81.1193 602.34 81.5859 602.9C82.0526 603.46 82.2859 604.16 82.2859 605C82.2859 606.28 81.7859 607.293 80.7859 608.04C79.7993 608.787 78.3459 609.16 76.4259 609.16C75.6126 609.16 74.8393 609.14 74.1059 609.1C73.3859 609.073 72.8126 609.027 72.3859 608.96V595.04ZM76.5659 607.58C77.7659 607.58 78.6926 607.367 79.3459 606.94C80.0126 606.513 80.3459 605.893 80.3459 605.08C80.3459 604.28 80.0193 603.653 79.3659 603.2C78.7126 602.747 77.7793 602.52 76.5659 602.52H74.2859V607.46C74.9793 607.54 75.7393 607.58 76.5659 607.58ZM76.4859 601.04C77.5393 601.04 78.3726 600.827 78.9859 600.4C79.6126 599.96 79.9259 599.387 79.9259 598.68C79.9259 597.92 79.6193 597.347 79.0059 596.96C78.3926 596.573 77.5526 596.38 76.4859 596.38C76.0459 596.38 75.6459 596.393 75.2859 596.42C74.9259 596.433 74.5926 596.453 74.2859 596.48V601.04H76.4859Z" fill="black"/>
<path d="M126.8 609L127.24 606.52H125.42L125.66 605.06H127.5L128.36 600.06H126.54L126.78 598.6H128.62L129.06 596.12H130.66L130.22 598.6H134.14L134.58 596.12H136.18L135.74 598.6H137.58L137.34 600.06H135.48L134.62 605.06H136.44L136.2 606.52H134.36L133.92 609H132.32L132.76 606.52H128.84L128.4 609H126.8ZM129.1 605.06H133.02L133.88 600.06H129.96L129.1 605.06ZM140.8 595H149.2V596.64H142.7V600.9H148.3V602.5H142.7V607.36H149.2V609H140.8V595ZM160.394 604.66C160.394 605.327 160.274 605.94 160.034 606.5C159.807 607.06 159.474 607.547 159.034 607.96C158.607 608.36 158.094 608.673 157.494 608.9C156.894 609.127 156.227 609.24 155.494 609.24C154.667 609.24 153.96 609.153 153.374 608.98C152.8 608.793 152.274 608.533 151.794 608.2L152.734 606.66C153.107 606.927 153.52 607.153 153.974 607.34C154.427 607.513 154.94 607.6 155.514 607.6C155.954 607.6 156.354 607.533 156.714 607.4C157.087 607.267 157.4 607.08 157.654 606.84C157.92 606.587 158.127 606.293 158.274 605.96C158.42 605.627 158.494 605.26 158.494 604.86C158.494 604.02 158.207 603.34 157.634 602.82C157.074 602.3 156.267 602.04 155.214 602.04H152.734V595H159.654V596.62H154.434V600.42H155.434C156.207 600.42 156.9 600.527 157.514 600.74C158.127 600.94 158.647 601.233 159.074 601.62C159.5 601.993 159.827 602.44 160.054 602.96C160.28 603.48 160.394 604.047 160.394 604.66ZM163.886 595H172.286V596.64H165.786V600.9H171.386V602.5H165.786V607.36H172.286V609H163.886V595ZM173.38 608.5L178.86 595H180.94L186.34 608.5L184.6 609.2L183.04 605.2H176.56L175 609.16L173.38 608.5ZM177.16 603.6H182.42L179.8 596.88L177.16 603.6ZM188.339 595H196.739V596.64H190.239V600.9H195.839V602.5H190.239V607.36H196.739V609H188.339V595ZM200.573 601.98C200.573 602.82 200.679 603.587 200.893 604.28C201.119 604.96 201.426 605.547 201.813 606.04C202.213 606.533 202.686 606.913 203.233 607.18C203.779 607.447 204.379 607.58 205.033 607.58C205.686 607.58 206.253 607.507 206.733 607.36C207.213 607.2 207.679 606.987 208.133 606.72L208.713 608.3C208.219 608.567 207.653 608.793 207.013 608.98C206.386 609.153 205.653 609.24 204.813 609.24C203.893 609.24 203.053 609.073 202.293 608.74C201.546 608.407 200.899 607.933 200.353 607.32C199.806 606.693 199.379 605.94 199.073 605.06C198.779 604.167 198.633 603.167 198.633 602.06C198.633 600.993 198.779 600.013 199.073 599.12C199.379 598.227 199.813 597.46 200.373 596.82C200.933 596.167 201.606 595.66 202.393 595.3C203.193 594.94 204.079 594.76 205.053 594.76C205.733 594.76 206.339 594.827 206.873 594.96C207.419 595.08 207.933 595.253 208.413 595.48L207.833 597.08C207.419 596.88 206.993 596.72 206.553 596.6C206.126 596.48 205.619 596.42 205.033 596.42C204.393 596.42 203.799 596.547 203.253 596.8C202.706 597.04 202.233 597.4 201.833 597.88C201.433 598.36 201.119 598.947 200.893 599.64C200.679 600.32 200.573 601.1 200.573 601.98Z" fill="black"/>
<path d="M2.8 836L3.24 833.52H1.42L1.66 832.06H3.5L4.36 827.06H2.54L2.78 825.6H4.62L5.06 823.12H6.66L6.22 825.6H10.14L10.58 823.12H12.18L11.74 825.6H13.58L13.34 827.06H11.48L10.62 832.06H12.44L12.2 833.52H10.36L9.92 836H8.32L8.76 833.52H4.84L4.4 836H2.8ZM5.1 832.06H9.02L9.88 827.06H5.96L5.1 832.06ZM24.06 833.02V836H22.26V833.02H16.28V831.58L20.46 821.86L22.02 822.52L18.24 831.38H22.26V827.4H24.06V831.38H25.72V833.02H24.06ZM28.7922 822.04C29.4189 821.973 30.0322 821.927 30.6322 821.9C31.2322 821.86 31.9189 821.84 32.6922 821.84C33.8922 821.84 34.9255 822.027 35.7922 822.4C36.6589 822.773 37.3789 823.287 37.9522 823.94C38.5255 824.593 38.9455 825.353 39.2122 826.22C39.4922 827.087 39.6322 828.007 39.6322 828.98C39.6322 829.953 39.4922 830.88 39.2122 831.76C38.9322 832.627 38.4989 833.387 37.9122 834.04C37.3389 834.693 36.5989 835.213 35.6922 835.6C34.7989 835.973 33.7255 836.16 32.4722 836.16C31.7122 836.16 31.0455 836.14 30.4722 836.1C29.9122 836.073 29.3522 836.027 28.7922 835.96V822.04ZM32.6322 823.48C32.2455 823.48 31.8922 823.493 31.5722 823.52C31.2522 823.533 30.9589 823.553 30.6922 823.58V834.4C30.9722 834.44 31.2655 834.467 31.5722 834.48C31.8789 834.493 32.1989 834.5 32.5322 834.5C33.4255 834.5 34.1989 834.367 34.8522 834.1C35.5055 833.82 36.0389 833.44 36.4522 832.96C36.8789 832.467 37.1922 831.887 37.3922 831.22C37.5922 830.54 37.6922 829.793 37.6922 828.98C37.6922 828.26 37.5922 827.573 37.3922 826.92C37.1922 826.253 36.8855 825.667 36.4722 825.16C36.0589 824.64 35.5322 824.233 34.8922 823.94C34.2522 823.633 33.4989 823.48 32.6322 823.48ZM42.425 822.04C42.8917 821.987 43.465 821.94 44.145 821.9C44.8383 821.86 45.6383 821.84 46.545 821.84C48.265 821.84 49.5783 822.16 50.485 822.8C51.405 823.44 51.865 824.32 51.865 825.44C51.865 826.187 51.6717 826.813 51.285 827.32C50.8983 827.827 50.325 828.247 49.565 828.58C50.4717 828.9 51.1583 829.34 51.625 829.9C52.0917 830.46 52.325 831.16 52.325 832C52.325 833.28 51.825 834.293 50.825 835.04C49.8383 835.787 48.385 836.16 46.465 836.16C45.6517 836.16 44.8783 836.14 44.145 836.1C43.425 836.073 42.8517 836.027 42.425 835.96V822.04ZM46.605 834.58C47.805 834.58 48.7317 834.367 49.385 833.94C50.0517 833.513 50.385 832.893 50.385 832.08C50.385 831.28 50.0583 830.653 49.405 830.2C48.7517 829.747 47.8183 829.52 46.605 829.52H44.325V834.46C45.0183 834.54 45.7783 834.58 46.605 834.58ZM46.525 828.04C47.5783 828.04 48.4117 827.827 49.025 827.4C49.6517 826.96 49.965 826.387 49.965 825.68C49.965 824.92 49.6583 824.347 49.045 823.96C48.4317 823.573 47.5917 823.38 46.525 823.38C46.085 823.38 45.685 823.393 45.325 823.42C44.965 823.433 44.6317 823.453 44.325 823.48V828.04H46.525ZM56.065 828.98C56.065 829.82 56.1717 830.587 56.385 831.28C56.6117 831.96 56.9183 832.547 57.305 833.04C57.705 833.533 58.1783 833.913 58.725 834.18C59.2717 834.447 59.8717 834.58 60.525 834.58C61.1783 834.58 61.745 834.507 62.225 834.36C62.705 834.2 63.1717 833.987 63.625 833.72L64.205 835.3C63.7117 835.567 63.145 835.793 62.505 835.98C61.8783 836.153 61.145 836.24 60.305 836.24C59.385 836.24 58.545 836.073 57.785 835.74C57.0383 835.407 56.3917 834.933 55.845 834.32C55.2983 833.693 54.8717 832.94 54.565 832.06C54.2717 831.167 54.125 830.167 54.125 829.06C54.125 827.993 54.2717 827.013 54.565 826.12C54.8717 825.227 55.305 824.46 55.865 823.82C56.425 823.167 57.0983 822.66 57.885 822.3C58.685 821.94 59.5717 821.76 60.545 821.76C61.225 821.76 61.8317 821.827 62.365 821.96C62.9117 822.08 63.425 822.253 63.905 822.48L63.325 824.08C62.9117 823.88 62.485 823.72 62.045 823.6C61.6183 823.48 61.1117 823.42 60.525 823.42C59.885 823.42 59.2917 823.547 58.745 823.8C58.1983 824.04 57.725 824.4 57.325 824.88C56.925 825.36 56.6117 825.947 56.385 826.64C56.1717 827.32 56.065 828.1 56.065 828.98ZM72.54 822V834.4H74.92V836H67.88V834.4H70.74V824.3L68.06 826.32L67.08 824.98L71.22 822H72.54ZM78.7922 822H87.0922V823.64H80.6922V827.92H86.0322V829.48H80.6922V836H78.7922V822Z" fill="black"/>
<path d="M118.8 836L119.24 833.52H117.42L117.66 832.06H119.5L120.36 827.06H118.54L118.78 825.6H120.62L121.06 823.12H122.66L122.22 825.6H126.14L126.58 823.12H128.18L127.74 825.6H129.58L129.34 827.06H127.48L126.62 832.06H128.44L128.2 833.52H126.36L125.92 836H124.32L124.76 833.52H120.84L120.4 836H118.8ZM121.1 832.06H125.02L125.88 827.06H121.96L121.1 832.06ZM133.7 833.34C134.5 834.18 135.393 834.6 136.38 834.6C136.793 834.6 137.187 834.5 137.56 834.3C137.933 834.087 138.26 833.767 138.54 833.34C138.82 832.913 139.04 832.367 139.2 831.7C139.373 831.02 139.46 830.213 139.46 829.28C139.047 829.667 138.587 829.987 138.08 830.24C137.587 830.48 137.04 830.6 136.44 830.6C135.907 830.6 135.393 830.513 134.9 830.34C134.407 830.153 133.967 829.88 133.58 829.52C133.193 829.16 132.88 828.713 132.64 828.18C132.413 827.647 132.3 827.027 132.3 826.32C132.3 825.693 132.407 825.107 132.62 824.56C132.847 824 133.153 823.513 133.54 823.1C133.94 822.687 134.413 822.36 134.96 822.12C135.52 821.88 136.14 821.76 136.82 821.76C137.513 821.76 138.107 821.867 138.6 822.08C139.093 822.293 139.507 822.573 139.84 822.92C140.08 823.173 140.287 823.453 140.46 823.76C140.647 824.067 140.8 824.44 140.92 824.88C141.053 825.32 141.147 825.847 141.2 826.46C141.267 827.073 141.3 827.813 141.3 828.68C141.3 830.013 141.173 831.16 140.92 832.12C140.667 833.067 140.313 833.847 139.86 834.46C139.407 835.073 138.873 835.527 138.26 835.82C137.66 836.1 137 836.24 136.28 836.24C135.507 836.24 134.813 836.107 134.2 835.84C133.587 835.56 133.027 835.173 132.52 834.68L133.7 833.34ZM136.74 829.12C137.247 829.12 137.733 828.993 138.2 828.74C138.68 828.487 139.1 828.18 139.46 827.82V827.22C139.46 825.953 139.213 824.993 138.72 824.34C138.24 823.687 137.587 823.36 136.76 823.36C136.373 823.36 136.013 823.433 135.68 823.58C135.36 823.713 135.073 823.907 134.82 824.16C134.58 824.4 134.387 824.7 134.24 825.06C134.107 825.407 134.04 825.8 134.04 826.24C134.04 826.693 134.113 827.1 134.26 827.46C134.407 827.807 134.6 828.107 134.84 828.36C135.093 828.6 135.38 828.787 135.7 828.92C136.033 829.053 136.38 829.12 136.74 829.12ZM143.192 835.5L148.672 822H150.752L156.152 835.5L154.412 836.2L152.852 832.2H146.372L144.812 836.16L143.192 835.5ZM146.972 830.6H152.232L149.612 823.88L146.972 830.6ZM159.052 833.34C159.852 834.18 160.745 834.6 161.732 834.6C162.145 834.6 162.538 834.5 162.912 834.3C163.285 834.087 163.612 833.767 163.892 833.34C164.172 832.913 164.392 832.367 164.552 831.7C164.725 831.02 164.812 830.213 164.812 829.28C164.398 829.667 163.938 829.987 163.432 830.24C162.938 830.48 162.392 830.6 161.792 830.6C161.258 830.6 160.745 830.513 160.252 830.34C159.758 830.153 159.318 829.88 158.932 829.52C158.545 829.16 158.232 828.713 157.992 828.18C157.765 827.647 157.652 827.027 157.652 826.32C157.652 825.693 157.758 825.107 157.972 824.56C158.198 824 158.505 823.513 158.892 823.1C159.292 822.687 159.765 822.36 160.312 822.12C160.872 821.88 161.492 821.76 162.172 821.76C162.865 821.76 163.458 821.867 163.952 822.08C164.445 822.293 164.858 822.573 165.192 822.92C165.432 823.173 165.638 823.453 165.812 823.76C165.998 824.067 166.152 824.44 166.272 824.88C166.405 825.32 166.498 825.847 166.552 826.46C166.618 827.073 166.652 827.813 166.652 828.68C166.652 830.013 166.525 831.16 166.272 832.12C166.018 833.067 165.665 833.847 165.212 834.46C164.758 835.073 164.225 835.527 163.612 835.82C163.012 836.1 162.352 836.24 161.632 836.24C160.858 836.24 160.165 836.107 159.552 835.84C158.938 835.56 158.378 835.173 157.872 834.68L159.052 833.34ZM162.092 829.12C162.598 829.12 163.085 828.993 163.552 828.74C164.032 828.487 164.452 828.18 164.812 827.82V827.22C164.812 825.953 164.565 824.993 164.072 824.34C163.592 823.687 162.938 823.36 162.112 823.36C161.725 823.36 161.365 823.433 161.032 823.58C160.712 823.713 160.425 823.907 160.172 824.16C159.932 824.4 159.738 824.7 159.592 825.06C159.458 825.407 159.392 825.8 159.392 826.24C159.392 826.693 159.465 827.1 159.612 827.46C159.758 827.807 159.952 828.107 160.192 828.36C160.445 828.6 160.732 828.787 161.052 828.92C161.385 829.053 161.732 829.12 162.092 829.12ZM168.544 835.5L174.024 822H176.104L181.504 835.5L179.764 836.2L178.204 832.2H171.724L170.164 836.16L168.544 835.5ZM172.324 830.6H177.584L174.964 823.88L172.324 830.6ZM184.403 833.34C185.203 834.18 186.096 834.6 187.083 834.6C187.496 834.6 187.89 834.5 188.263 834.3C188.636 834.087 188.963 833.767 189.243 833.34C189.523 832.913 189.743 832.367 189.903 831.7C190.076 831.02 190.163 830.213 190.163 829.28C189.75 829.667 189.29 829.987 188.783 830.24C188.29 830.48 187.743 830.6 187.143 830.6C186.61 830.6 186.096 830.513 185.603 830.34C185.11 830.153 184.67 829.88 184.283 829.52C183.896 829.16 183.583 828.713 183.343 828.18C183.116 827.647 183.003 827.027 183.003 826.32C183.003 825.693 183.11 825.107 183.323 824.56C183.55 824 183.856 823.513 184.243 823.1C184.643 822.687 185.116 822.36 185.663 822.12C186.223 821.88 186.843 821.76 187.523 821.76C188.216 821.76 188.81 821.867 189.303 822.08C189.796 822.293 190.21 822.573 190.543 822.92C190.783 823.173 190.99 823.453 191.163 823.76C191.35 824.067 191.503 824.44 191.623 824.88C191.756 825.32 191.85 825.847 191.903 826.46C191.97 827.073 192.003 827.813 192.003 828.68C192.003 830.013 191.876 831.16 191.623 832.12C191.37 833.067 191.016 833.847 190.563 834.46C190.11 835.073 189.576 835.527 188.963 835.82C188.363 836.1 187.703 836.24 186.983 836.24C186.21 836.24 185.516 836.107 184.903 835.84C184.29 835.56 183.73 835.173 183.223 834.68L184.403 833.34ZM187.443 829.12C187.95 829.12 188.436 828.993 188.903 828.74C189.383 828.487 189.803 828.18 190.163 827.82V827.22C190.163 825.953 189.916 824.993 189.423 824.34C188.943 823.687 188.29 823.36 187.463 823.36C187.076 823.36 186.716 823.433 186.383 823.58C186.063 823.713 185.776 823.907 185.523 824.16C185.283 824.4 185.09 824.7 184.943 825.06C184.81 825.407 184.743 825.8 184.743 826.24C184.743 826.693 184.816 827.1 184.963 827.46C185.11 827.807 185.303 828.107 185.543 828.36C185.796 828.6 186.083 828.787 186.403 828.92C186.736 829.053 187.083 829.12 187.443 829.12ZM193.895 835.5L199.375 822H201.455L206.855 835.5L205.115 836.2L203.555 832.2H197.075L195.515 836.16L193.895 835.5ZM197.675 830.6H202.935L200.315 823.88L197.675 830.6Z" fill="black"/>
<path d="M100 98C100 125.614 77.6142 148 50 148C22.3858 148 0 125.614 0 98C0 70.3858 22.3858 48 50 48C77.6142 48 100 70.3858 100 98Z" fill="#4DBC1F"/>
<path d="M211 98C211 125.614 188.614 148 161 148C133.386 148 111 125.614 111 98C111 70.3858 133.386 48 161 48C188.614 48 211 70.3858 211 98Z" fill="#7E0800"/>
<path d="M322 98C322 125.614 299.614 148 272 148C244.386 148 222 125.614 222 98C222 70.3858 244.386 48 272 48C299.614 48 322 70.3858 322 98Z" fill="#FDE400"/>
<path d="M441 98C441 125.614 418.614 148 391 148C363.386 148 341 125.614 341 98C341 70.3858 363.386 48 391 48C418.614 48 441 70.3858 441 98Z" fill="#232175"/>
<path d="M3.24 7.872C4.08 7.776 5.112 7.692 6.336 7.62C7.584 7.548 9.024 7.512 10.656 7.512C13.752 7.512 16.116 8.088 17.748 9.24C19.404 10.392 20.232 11.976 20.232 13.992C20.232 15.336 19.884 16.464 19.188 17.376C18.492 18.288 17.46 19.044 16.092 19.644C17.724 20.22 18.96 21.012 19.8 22.02C20.64 23.028 21.06 24.288 21.06 25.8C21.06 28.104 20.16 29.928 18.36 31.272C16.584 32.616 13.968 33.288 10.512 33.288C9.048 33.288 7.656 33.252 6.336 33.18C5.04 33.132 4.008 33.048 3.24 32.928V7.872ZM10.764 30.444C12.924 30.444 14.592 30.06 15.768 29.292C16.968 28.524 17.568 27.408 17.568 25.944C17.568 24.504 16.98 23.376 15.804 22.56C14.628 21.744 12.948 21.336 10.764 21.336H6.66V30.228C7.908 30.372 9.276 30.444 10.764 30.444ZM10.62 18.672C12.516 18.672 14.016 18.288 15.12 17.52C16.248 16.728 16.812 15.696 16.812 14.424C16.812 13.056 16.26 12.024 15.156 11.328C14.052 10.632 12.54 10.284 10.62 10.284C9.828 10.284 9.108 10.308 8.46 10.356C7.812 10.38 7.212 10.416 6.66 10.464V18.672H10.62ZM39.4518 23.64C39.4518 22.704 39.2958 21.816 38.9838 20.976C38.6958 20.136 38.2758 19.404 37.7238 18.78C37.1958 18.156 36.5598 17.664 35.8158 17.304C35.0958 16.92 34.3038 16.728 33.4398 16.728C31.5438 16.728 30.0678 17.352 29.0118 18.6C27.9558 19.848 27.4278 21.504 27.4278 23.568C27.4278 24.504 27.5718 25.404 27.8598 26.268C28.1718 27.108 28.5918 27.852 29.1198 28.5C29.6718 29.124 30.3078 29.628 31.0278 30.012C31.7718 30.372 32.5758 30.552 33.4398 30.552C34.3758 30.552 35.2158 30.384 35.9598 30.048C36.7038 29.712 37.3278 29.244 37.8318 28.644C38.3598 28.02 38.7558 27.288 39.0198 26.448C39.3078 25.608 39.4518 24.672 39.4518 23.64ZM24.1158 23.64C24.1158 22.128 24.3558 20.772 24.8358 19.572C25.3158 18.348 25.9638 17.316 26.7798 16.476C27.6198 15.636 28.6038 14.988 29.7318 14.532C30.8838 14.076 32.1198 13.848 33.4398 13.848C34.7358 13.848 35.9478 14.076 37.0758 14.532C38.2278 14.988 39.2238 15.636 40.0638 16.476C40.9038 17.316 41.5638 18.336 42.0438 19.536C42.5238 20.736 42.7638 22.08 42.7638 23.568C42.7638 25.056 42.5238 26.412 42.0438 27.636C41.5878 28.836 40.9398 29.868 40.0998 30.732C39.2598 31.596 38.2638 32.268 37.1118 32.748C35.9838 33.204 34.7598 33.432 33.4398 33.432C32.0958 33.432 30.8478 33.192 29.6958 32.712C28.5678 32.232 27.5838 31.56 26.7438 30.696C25.9278 29.832 25.2798 28.8 24.7998 27.6C24.3438 26.4 24.1158 25.08 24.1158 23.64ZM48.5474 9.06H51.0314V14.964H56.2154V17.772H51.0314V26.808C51.0314 27.504 51.1034 28.092 51.2474 28.572C51.4154 29.052 51.6314 29.436 51.8954 29.724C52.1594 30.012 52.4714 30.228 52.8314 30.372C53.2154 30.492 53.6114 30.552 54.0194 30.552C54.6194 30.552 55.1834 30.456 55.7114 30.264C56.2394 30.072 56.7434 29.844 57.2234 29.58L58.1234 32.172C57.6434 32.46 56.9954 32.736 56.1794 33C55.3634 33.288 54.5114 33.432 53.6234 33.432C51.8234 33.432 50.3954 32.844 49.3394 31.668C48.3074 30.492 47.7914 28.788 47.7914 26.556V17.772H44.5514V14.964H47.8634L48.5474 9.06ZM74.5729 23.64C74.5729 22.704 74.4169 21.816 74.1049 20.976C73.8169 20.136 73.3969 19.404 72.8449 18.78C72.3169 18.156 71.6809 17.664 70.9369 17.304C70.2169 16.92 69.4249 16.728 68.5609 16.728C66.6649 16.728 65.1889 17.352 64.1329 18.6C63.0769 19.848 62.5489 21.504 62.5489 23.568C62.5489 24.504 62.6929 25.404 62.9809 26.268C63.2929 27.108 63.7129 27.852 64.2409 28.5C64.7929 29.124 65.4289 29.628 66.1489 30.012C66.8929 30.372 67.6969 30.552 68.5609 30.552C69.4969 30.552 70.3369 30.384 71.0809 30.048C71.8249 29.712 72.4489 29.244 72.9529 28.644C73.4809 28.02 73.8769 27.288 74.1409 26.448C74.4289 25.608 74.5729 24.672 74.5729 23.64ZM59.2369 23.64C59.2369 22.128 59.4769 20.772 59.9569 19.572C60.4369 18.348 61.0849 17.316 61.9009 16.476C62.7409 15.636 63.7249 14.988 64.8529 14.532C66.0049 14.076 67.2409 13.848 68.5609 13.848C69.8569 13.848 71.0689 14.076 72.1969 14.532C73.3489 14.988 74.3449 15.636 75.1849 16.476C76.0249 17.316 76.6849 18.336 77.1649 19.536C77.6449 20.736 77.8849 22.08 77.8849 23.568C77.8849 25.056 77.6449 26.412 77.1649 27.636C76.7089 28.836 76.0609 29.868 75.2209 30.732C74.3809 31.596 73.3849 32.268 72.2329 32.748C71.1049 33.204 69.8809 33.432 68.5609 33.432C67.2169 33.432 65.9689 33.192 64.8169 32.712C63.6889 32.232 62.7049 31.56 61.8649 30.696C61.0489 29.832 60.4009 28.8 59.9209 27.6C59.4649 26.4 59.2369 25.08 59.2369 23.64ZM74.2489 9.384C73.8169 9.792 73.3129 10.176 72.7369 10.536C72.1849 10.872 71.5369 11.04 70.7929 11.04C70.3129 11.04 69.8929 10.98 69.5329 10.86C69.1969 10.716 68.8729 10.572 68.5609 10.428C68.2489 10.284 67.9249 10.152 67.5889 10.032C67.2769 9.888 66.9169 9.816 66.5089 9.816C65.9809 9.816 65.5009 9.948 65.0689 10.212C64.6369 10.476 64.2409 10.776 63.8809 11.112L62.6209 8.88C63.0529 8.4 63.6049 7.968 64.2769 7.584C64.9489 7.2 65.6449 7.008 66.3649 7.008C66.8209 7.008 67.2169 7.08 67.5529 7.224C67.9129 7.344 68.2369 7.476 68.5249 7.62C68.8369 7.764 69.1489 7.908 69.4609 8.052C69.7729 8.172 70.1209 8.232 70.5049 8.232C71.0329 8.232 71.5009 8.124 71.9089 7.908C72.3169 7.668 72.6769 7.404 72.9889 7.116L74.2489 9.384ZM84.2445 24.972C84.4605 26.724 85.0725 28.092 86.0805 29.076C87.0885 30.06 88.4205 30.552 90.0765 30.552C91.1565 30.552 92.1285 30.444 92.9925 30.228C93.8565 29.988 94.6845 29.688 95.4765 29.328L96.2325 32.1C95.3685 32.508 94.3965 32.832 93.3165 33.072C92.2365 33.312 91.0245 33.432 89.6805 33.432C88.3365 33.432 87.1245 33.216 86.0445 32.784C84.9645 32.328 84.0405 31.692 83.2725 30.876C82.5285 30.036 81.9525 29.016 81.5445 27.816C81.1365 26.592 80.9325 25.2 80.9325 23.64C80.9325 22.248 81.1365 20.952 81.5445 19.752C81.9525 18.552 82.5285 17.52 83.2725 16.656C84.0165 15.768 84.9045 15.084 85.9365 14.604C86.9685 14.1 88.1205 13.848 89.3925 13.848C90.7365 13.848 91.9125 14.076 92.9205 14.532C93.9285 14.988 94.7685 15.612 95.4405 16.404C96.1125 17.196 96.6165 18.12 96.9525 19.176C97.2885 20.232 97.4565 21.348 97.4565 22.524C97.4565 23.364 97.4205 24.18 97.3485 24.972H84.2445ZM89.3205 16.656C87.9045 16.656 86.7405 17.136 85.8285 18.096C84.9405 19.056 84.4005 20.472 84.2085 22.344H94.4685C94.4685 20.52 94.0125 19.116 93.1005 18.132C92.1885 17.148 90.9285 16.656 89.3205 16.656ZM101.523 28.788C102.147 29.34 102.927 29.784 103.863 30.12C104.823 30.456 105.843 30.624 106.923 30.624C108.267 30.624 109.275 30.408 109.947 29.976C110.643 29.52 110.991 28.944 110.991 28.248C110.991 27.888 110.919 27.552 110.775 27.24C110.655 26.928 110.415 26.628 110.055 26.34C109.719 26.052 109.251 25.776 108.651 25.512C108.051 25.224 107.271 24.912 106.311 24.576C104.535 23.976 103.215 23.268 102.351 22.452C101.487 21.612 101.055 20.46 101.055 18.996C101.055 18.276 101.211 17.604 101.523 16.98C101.859 16.356 102.327 15.816 102.927 15.36C103.551 14.88 104.295 14.508 105.159 14.244C106.047 13.98 107.055 13.848 108.183 13.848C109.407 13.848 110.475 13.98 111.387 14.244C112.323 14.484 113.163 14.796 113.907 15.18L113.007 17.844C112.359 17.46 111.615 17.148 110.775 16.908C109.959 16.668 109.047 16.548 108.039 16.548C106.791 16.548 105.843 16.8 105.195 17.304C104.547 17.808 104.223 18.36 104.223 18.96C104.223 19.248 104.271 19.512 104.367 19.752C104.487 19.992 104.691 20.22 104.979 20.436C105.267 20.652 105.651 20.868 106.131 21.084C106.611 21.3 107.211 21.528 107.931 21.768C109.107 22.176 110.103 22.596 110.919 23.028C111.735 23.436 112.395 23.892 112.899 24.396C113.403 24.9 113.763 25.452 113.979 26.052C114.195 26.628 114.303 27.276 114.303 27.996C114.303 28.836 114.123 29.592 113.763 30.264C113.403 30.936 112.899 31.512 112.251 31.992C111.603 32.448 110.811 32.796 109.875 33.036C108.963 33.3 107.943 33.432 106.815 33.432C105.375 33.432 104.091 33.252 102.963 32.892C101.835 32.532 100.899 32.064 100.155 31.488L101.523 28.788Z" fill="#ED5565"/>
<path d="M18.216 257H3.24V231.8H6.66V253.94H18.216V257ZM35.1627 247.64C35.1627 246.704 35.0067 245.816 34.6947 244.976C34.4067 244.136 33.9867 243.404 33.4347 242.78C32.9067 242.156 32.2707 241.664 31.5267 241.304C30.8067 240.92 30.0147 240.728 29.1507 240.728C27.2547 240.728 25.7787 241.352 24.7227 242.6C23.6667 243.848 23.1387 245.504 23.1387 247.568C23.1387 248.504 23.2827 249.404 23.5707 250.268C23.8827 251.108 24.3027 251.852 24.8307 252.5C25.3827 253.124 26.0187 253.628 26.7387 254.012C27.4827 254.372 28.2867 254.552 29.1507 254.552C30.0867 254.552 30.9267 254.384 31.6707 254.048C32.4147 253.712 33.0387 253.244 33.5427 252.644C34.0707 252.02 34.4667 251.288 34.7307 250.448C35.0187 249.608 35.1627 248.672 35.1627 247.64ZM19.8267 247.64C19.8267 246.128 20.0667 244.772 20.5467 243.572C21.0267 242.348 21.6747 241.316 22.4907 240.476C23.3307 239.636 24.3147 238.988 25.4427 238.532C26.5947 238.076 27.8307 237.848 29.1507 237.848C30.4467 237.848 31.6587 238.076 32.7867 238.532C33.9387 238.988 34.9347 239.636 35.7747 240.476C36.6147 241.316 37.2747 242.336 37.7547 243.536C38.2347 244.736 38.4747 246.08 38.4747 247.568C38.4747 249.056 38.2347 250.412 37.7547 251.636C37.2987 252.836 36.6507 253.868 35.8107 254.732C34.9707 255.596 33.9747 256.268 32.8227 256.748C31.6947 257.204 30.4707 257.432 29.1507 257.432C27.8067 257.432 26.5587 257.192 25.4067 256.712C24.2787 256.232 23.2947 255.56 22.4547 254.696C21.6387 253.832 20.9907 252.8 20.5107 251.6C20.0547 250.4 19.8267 249.08 19.8267 247.64ZM50.1983 237.848C51.2783 237.848 52.2383 238.028 53.0783 238.388C53.9423 238.748 54.6863 239.192 55.3103 239.72V238.28H58.2623V256.568C58.2623 258.128 58.0583 259.46 57.6503 260.564C57.2423 261.668 56.6543 262.568 55.8863 263.264C55.1423 263.984 54.2423 264.512 53.1863 264.848C52.1303 265.184 50.9543 265.352 49.6583 265.352C48.5303 265.352 47.4503 265.22 46.4183 264.956C45.3863 264.692 44.4623 264.296 43.6463 263.768L44.8343 260.96C45.4103 261.416 46.0823 261.788 46.8503 262.076C47.6183 262.388 48.5543 262.544 49.6583 262.544C51.3623 262.544 52.6943 262.1 53.6543 261.212C54.6383 260.324 55.1303 258.884 55.1303 256.892V254.588C54.6503 255.164 53.9543 255.716 53.0423 256.244C52.1543 256.748 51.0863 257 49.8383 257C48.7823 257 47.7503 256.796 46.7423 256.388C45.7343 255.956 44.8463 255.344 44.0783 254.552C43.3103 253.736 42.6863 252.752 42.2063 251.6C41.7503 250.424 41.5223 249.08 41.5223 247.568C41.5223 246.176 41.7503 244.892 42.2063 243.716C42.6623 242.516 43.2743 241.484 44.0423 240.62C44.8343 239.756 45.7583 239.084 46.8143 238.604C47.8703 238.1 48.9983 237.848 50.1983 237.848ZM50.5583 254.12C51.5183 254.12 52.3823 253.904 53.1503 253.472C53.9183 253.04 54.5423 252.536 55.0223 251.96V242.168C54.4703 241.784 53.8343 241.436 53.1143 241.124C52.3943 240.812 51.5303 240.656 50.5223 240.656C49.7783 240.656 49.0583 240.812 48.3623 241.124C47.6903 241.412 47.0903 241.844 46.5623 242.42C46.0343 242.996 45.6143 243.704 45.3023 244.544C44.9903 245.36 44.8343 246.308 44.8343 247.388C44.8343 248.42 44.9903 249.356 45.3023 250.196C45.6143 251.012 46.0343 251.72 46.5623 252.32C47.0903 252.896 47.6903 253.34 48.3623 253.652C49.0583 253.964 49.7903 254.12 50.5583 254.12ZM77.7369 247.64C77.7369 246.704 77.5809 245.816 77.2689 244.976C76.9809 244.136 76.5609 243.404 76.0089 242.78C75.4809 242.156 74.8449 241.664 74.1009 241.304C73.3809 240.92 72.5889 240.728 71.7249 240.728C69.8289 240.728 68.3529 241.352 67.2969 242.6C66.2409 243.848 65.7129 245.504 65.7129 247.568C65.7129 248.504 65.8569 249.404 66.1449 250.268C66.4569 251.108 66.8769 251.852 67.4049 252.5C67.9569 253.124 68.5929 253.628 69.3129 254.012C70.0569 254.372 70.8609 254.552 71.7249 254.552C72.6609 254.552 73.5009 254.384 74.2449 254.048C74.9889 253.712 75.6129 253.244 76.1169 252.644C76.6449 252.02 77.0409 251.288 77.3049 250.448C77.5929 249.608 77.7369 248.672 77.7369 247.64ZM62.4009 247.64C62.4009 246.128 62.6409 244.772 63.1209 243.572C63.6009 242.348 64.2489 241.316 65.0649 240.476C65.9049 239.636 66.8889 238.988 68.0169 238.532C69.1689 238.076 70.4049 237.848 71.7249 237.848C73.0209 237.848 74.2329 238.076 75.3609 238.532C76.5129 238.988 77.5089 239.636 78.3489 240.476C79.1889 241.316 79.8489 242.336 80.3289 243.536C80.8089 244.736 81.0489 246.08 81.0489 247.568C81.0489 249.056 80.8089 250.412 80.3289 251.636C79.8729 252.836 79.2249 253.868 78.3849 254.732C77.5449 255.596 76.5489 256.268 75.3969 256.748C74.2689 257.204 73.0449 257.432 71.7249 257.432C70.3809 257.432 69.1329 257.192 67.9809 256.712C66.8529 256.232 65.8689 255.56 65.0289 254.696C64.2129 253.832 63.5649 252.8 63.0849 251.6C62.6289 250.4 62.4009 249.08 62.4009 247.64Z" fill="#ED5565"/>
<path d="M3.24 442.872C4.08 442.776 5.112 442.692 6.336 442.62C7.584 442.548 9.024 442.512 10.656 442.512C13.752 442.512 16.116 443.088 17.748 444.24C19.404 445.392 20.232 446.976 20.232 448.992C20.232 450.336 19.884 451.464 19.188 452.376C18.492 453.288 17.46 454.044 16.092 454.644C17.724 455.22 18.96 456.012 19.8 457.02C20.64 458.028 21.06 459.288 21.06 460.8C21.06 463.104 20.16 464.928 18.36 466.272C16.584 467.616 13.968 468.288 10.512 468.288C9.048 468.288 7.656 468.252 6.336 468.18C5.04 468.132 4.008 468.048 3.24 467.928V442.872ZM10.764 465.444C12.924 465.444 14.592 465.06 15.768 464.292C16.968 463.524 17.568 462.408 17.568 460.944C17.568 459.504 16.98 458.376 15.804 457.56C14.628 456.744 12.948 456.336 10.764 456.336H6.66V465.228C7.908 465.372 9.276 465.444 10.764 465.444ZM10.62 453.672C12.516 453.672 14.016 453.288 15.12 452.52C16.248 451.728 16.812 450.696 16.812 449.424C16.812 448.056 16.26 447.024 15.156 446.328C14.052 445.632 12.54 445.284 10.62 445.284C9.828 445.284 9.108 445.308 8.46 445.356C7.812 445.38 7.212 445.416 6.66 445.464V453.672H10.62ZM24.2958 458.748C24.2958 457.356 24.5118 456.06 24.9438 454.86C25.3758 453.636 25.9758 452.58 26.7438 451.692C27.5358 450.804 28.4718 450.108 29.5518 449.604C30.6558 449.1 31.8558 448.848 33.1518 448.848C34.2318 448.848 35.2038 449.04 36.0678 449.424C36.9558 449.784 37.7238 450.24 38.3718 450.792V449.28H41.3238V463.464C41.3238 464.376 41.5398 464.976 41.9718 465.264C42.4278 465.528 42.9198 465.66 43.4478 465.66L42.7638 468.18C40.4598 468.18 39.0678 467.244 38.5878 465.372C38.2998 465.756 37.9638 466.14 37.5798 466.524C37.2198 466.884 36.7998 467.208 36.3198 467.496C35.8398 467.784 35.2998 468.012 34.6998 468.18C34.0998 468.348 33.4398 468.432 32.7198 468.432C31.5438 468.432 30.4398 468.204 29.4078 467.748C28.3998 467.292 27.5118 466.644 26.7438 465.804C25.9998 464.964 25.3998 463.956 24.9438 462.78C24.5118 461.58 24.2958 460.236 24.2958 458.748ZM33.4398 465.552C34.3518 465.552 35.2158 465.336 36.0318 464.904C36.8478 464.472 37.5318 463.908 38.0838 463.212V453.168C37.4358 452.712 36.7158 452.352 35.9238 452.088C35.1558 451.8 34.3398 451.656 33.4758 451.656C32.6118 451.656 31.8198 451.824 31.0998 452.16C30.3798 452.496 29.7558 452.976 29.2278 453.6C28.7238 454.2 28.3278 454.932 28.0398 455.796C27.7518 456.66 27.6078 457.608 27.6078 458.64C27.6078 459.648 27.7518 460.584 28.0398 461.448C28.3278 462.288 28.7358 463.02 29.2638 463.644C29.7918 464.244 30.4038 464.712 31.0998 465.048C31.8198 465.384 32.5998 465.552 33.4398 465.552ZM59.375 452.7C58.679 452.364 58.031 452.124 57.431 451.98C56.831 451.812 56.159 451.728 55.415 451.728C54.575 451.728 53.783 451.884 53.039 452.196C52.319 452.508 51.695 452.964 51.167 453.564C50.639 454.14 50.219 454.848 49.907 455.688C49.619 456.528 49.475 457.488 49.475 458.568C49.475 459.552 49.607 460.464 49.871 461.304C50.159 462.144 50.555 462.888 51.059 463.536C51.563 464.16 52.163 464.652 52.859 465.012C53.555 465.372 54.335 465.552 55.199 465.552C56.111 465.552 56.891 465.456 57.539 465.264C58.187 465.072 58.883 464.772 59.627 464.364L60.635 467.1C59.867 467.508 59.027 467.832 58.115 468.072C57.203 468.312 56.159 468.432 54.983 468.432C53.639 468.432 52.427 468.192 51.347 467.712C50.267 467.232 49.343 466.56 48.575 465.696C47.807 464.832 47.207 463.8 46.775 462.6C46.367 461.4 46.163 460.08 46.163 458.64C46.163 457.296 46.367 456.036 46.775 454.86C47.207 453.66 47.819 452.616 48.611 451.728C49.403 450.84 50.351 450.144 51.455 449.64C52.583 449.112 53.843 448.848 55.235 448.848C56.315 448.848 57.251 448.944 58.043 449.136C58.835 449.328 59.603 449.604 60.347 449.964L59.375 452.7ZM64.4034 441.36H67.6434V456.588L76.1034 448.92L77.9754 450.972L70.7394 457.38L79.5594 466.2L77.3274 468.36L67.6434 458.388V468H64.4034V441.36ZM89.6788 448.848C90.7588 448.848 91.7188 449.028 92.5588 449.388C93.4228 449.748 94.1668 450.192 94.7908 450.72V449.28H97.7428V467.568C97.7428 469.128 97.5388 470.46 97.1308 471.564C96.7228 472.668 96.1348 473.568 95.3668 474.264C94.6228 474.984 93.7228 475.512 92.6668 475.848C91.6108 476.184 90.4348 476.352 89.1388 476.352C88.0108 476.352 86.9308 476.22 85.8988 475.956C84.8668 475.692 83.9428 475.296 83.1268 474.768L84.3148 471.96C84.8908 472.416 85.5628 472.788 86.3308 473.076C87.0988 473.388 88.0348 473.544 89.1388 473.544C90.8428 473.544 92.1748 473.1 93.1348 472.212C94.1188 471.324 94.6108 469.884 94.6108 467.892V465.588C94.1308 466.164 93.4348 466.716 92.5228 467.244C91.6348 467.748 90.5668 468 89.3188 468C88.2628 468 87.2308 467.796 86.2228 467.388C85.2148 466.956 84.3268 466.344 83.5588 465.552C82.7908 464.736 82.1668 463.752 81.6868 462.6C81.2308 461.424 81.0028 460.08 81.0028 458.568C81.0028 457.176 81.2308 455.892 81.6868 454.716C82.1428 453.516 82.7548 452.484 83.5228 451.62C84.3148 450.756 85.2388 450.084 86.2948 449.604C87.3508 449.1 88.4788 448.848 89.6788 448.848ZM90.0388 465.12C90.9988 465.12 91.8628 464.904 92.6308 464.472C93.3988 464.04 94.0228 463.536 94.5028 462.96V453.168C93.9508 452.784 93.3148 452.436 92.5948 452.124C91.8748 451.812 91.0108 451.656 90.0028 451.656C89.2588 451.656 88.5388 451.812 87.8428 452.124C87.1708 452.412 86.5708 452.844 86.0428 453.42C85.5148 453.996 85.0948 454.704 84.7828 455.544C84.4708 456.36 84.3148 457.308 84.3148 458.388C84.3148 459.42 84.4708 460.356 84.7828 461.196C85.0948 462.012 85.5148 462.72 86.0428 463.32C86.5708 463.896 87.1708 464.34 87.8428 464.652C88.5388 464.964 89.2708 465.12 90.0388 465.12ZM113.473 452.412C113.017 452.22 112.477 452.124 111.853 452.124C111.181 452.124 110.521 452.268 109.873 452.556C109.249 452.844 108.685 453.276 108.181 453.852C107.701 454.428 107.305 455.172 106.993 456.084C106.705 456.972 106.561 458.028 106.561 459.252V468H103.321V449.28H106.453V453.348C106.669 452.772 106.957 452.208 107.317 451.656C107.677 451.104 108.097 450.624 108.577 450.216C109.081 449.808 109.657 449.484 110.305 449.244C110.953 448.98 111.673 448.848 112.465 448.848C112.825 448.848 113.173 448.872 113.509 448.92C113.869 448.944 114.181 448.992 114.445 449.064L113.473 452.412ZM130.506 458.64C130.506 457.704 130.35 456.816 130.038 455.976C129.75 455.136 129.33 454.404 128.778 453.78C128.25 453.156 127.614 452.664 126.87 452.304C126.15 451.92 125.358 451.728 124.494 451.728C122.598 451.728 121.122 452.352 120.066 453.6C119.01 454.848 118.482 456.504 118.482 458.568C118.482 459.504 118.626 460.404 118.914 461.268C119.226 462.108 119.646 462.852 120.174 463.5C120.726 464.124 121.362 464.628 122.082 465.012C122.826 465.372 123.63 465.552 124.494 465.552C125.43 465.552 126.27 465.384 127.014 465.048C127.758 464.712 128.382 464.244 128.886 463.644C129.414 463.02 129.81 462.288 130.074 461.448C130.362 460.608 130.506 459.672 130.506 458.64ZM115.17 458.64C115.17 457.128 115.41 455.772 115.89 454.572C116.37 453.348 117.018 452.316 117.834 451.476C118.674 450.636 119.658 449.988 120.786 449.532C121.938 449.076 123.174 448.848 124.494 448.848C125.79 448.848 127.002 449.076 128.13 449.532C129.282 449.988 130.278 450.636 131.118 451.476C131.958 452.316 132.618 453.336 133.098 454.536C133.578 455.736 133.818 457.08 133.818 458.568C133.818 460.056 133.578 461.412 133.098 462.636C132.642 463.836 131.994 464.868 131.154 465.732C130.314 466.596 129.318 467.268 128.166 467.748C127.038 468.204 125.814 468.432 124.494 468.432C123.15 468.432 121.902 468.192 120.75 467.712C119.622 467.232 118.638 466.56 117.798 465.696C116.982 464.832 116.334 463.8 115.854 462.6C115.398 461.4 115.17 460.08 115.17 458.64ZM154.866 468.18C153.714 468.18 152.802 467.952 152.13 467.496C151.458 467.04 150.99 466.38 150.726 465.516C149.886 466.38 148.914 467.088 147.81 467.64C146.73 468.168 145.542 468.432 144.246 468.432C143.43 468.432 142.638 468.3 141.87 468.036C141.126 467.796 140.454 467.4 139.854 466.848C139.278 466.296 138.81 465.576 138.45 464.688C138.114 463.8 137.946 462.72 137.946 461.448V449.28H141.186V461.016C141.186 462.48 141.486 463.608 142.086 464.4C142.71 465.168 143.634 465.552 144.858 465.552C145.866 465.552 146.826 465.36 147.738 464.976C148.65 464.568 149.466 464.028 150.186 463.356V449.28H153.426V463.14C153.426 463.668 153.486 464.1 153.606 464.436C153.726 464.748 153.882 465 154.074 465.192C154.266 465.36 154.494 465.48 154.758 465.552C155.022 465.624 155.286 465.66 155.55 465.66L154.866 468.18ZM162.985 452.412C163.657 451.404 164.509 450.564 165.541 449.892C166.597 449.196 167.845 448.848 169.285 448.848C171.397 448.848 172.969 449.484 174.001 450.756C175.057 452.028 175.585 453.708 175.585 455.796V468H172.345V456.156C172.345 454.788 172.033 453.708 171.409 452.916C170.785 452.1 169.897 451.692 168.745 451.692C168.193 451.692 167.653 451.8 167.125 452.016C166.597 452.208 166.081 452.484 165.577 452.844C165.097 453.204 164.641 453.624 164.209 454.104C163.801 454.584 163.429 455.088 163.093 455.616V468H159.853V449.28H162.985V452.412ZM188.249 468.432C187.097 468.432 186.005 468.204 184.973 467.748C183.965 467.292 183.077 466.644 182.309 465.804C181.565 464.964 180.977 463.956 180.545 462.78C180.113 461.58 179.897 460.236 179.897 458.748C179.897 457.332 180.113 456.024 180.545 454.824C181.001 453.6 181.601 452.556 182.345 451.692C183.113 450.804 184.001 450.108 185.009 449.604C186.017 449.1 187.085 448.848 188.213 448.848C189.461 448.848 190.529 449.1 191.417 449.604C192.329 450.108 193.037 450.624 193.541 451.152V441.36H196.781V463.464C196.781 464.376 196.997 464.976 197.429 465.264C197.885 465.528 198.377 465.66 198.905 465.66L198.221 468.18C195.941 468.18 194.549 467.268 194.045 465.444C193.493 466.212 192.749 466.908 191.813 467.532C190.877 468.132 189.689 468.432 188.249 468.432ZM188.969 465.552C189.857 465.552 190.697 465.348 191.489 464.94C192.305 464.508 192.989 463.956 193.541 463.284V453.996C193.085 453.42 192.449 452.892 191.633 452.412C190.841 451.908 189.941 451.656 188.933 451.656C188.069 451.656 187.277 451.836 186.557 452.196C185.861 452.556 185.261 453.048 184.757 453.672C184.253 454.296 183.869 455.04 183.605 455.904C183.341 456.744 183.209 457.656 183.209 458.64C183.209 459.648 183.353 460.572 183.641 461.412C183.929 462.252 184.325 462.984 184.829 463.608C185.357 464.208 185.969 464.688 186.665 465.048C187.385 465.384 188.153 465.552 188.969 465.552Z" fill="#ED5565"/>
<path d="M18.216 688H3.24V662.8H6.66V684.94H18.216V688ZM23.3187 679.972C23.5347 681.724 24.1467 683.092 25.1547 684.076C26.1627 685.06 27.4947 685.552 29.1507 685.552C30.2307 685.552 31.2027 685.444 32.0667 685.228C32.9307 684.988 33.7587 684.688 34.5507 684.328L35.3067 687.1C34.4427 687.508 33.4707 687.832 32.3907 688.072C31.3107 688.312 30.0987 688.432 28.7547 688.432C27.4107 688.432 26.1987 688.216 25.1187 687.784C24.0387 687.328 23.1147 686.692 22.3467 685.876C21.6027 685.036 21.0267 684.016 20.6187 682.816C20.2107 681.592 20.0067 680.2 20.0067 678.64C20.0067 677.248 20.2107 675.952 20.6187 674.752C21.0267 673.552 21.6027 672.52 22.3467 671.656C23.0907 670.768 23.9787 670.084 25.0107 669.604C26.0427 669.1 27.1947 668.848 28.4667 668.848C29.8107 668.848 30.9867 669.076 31.9947 669.532C33.0027 669.988 33.8427 670.612 34.5147 671.404C35.1867 672.196 35.6907 673.12 36.0267 674.176C36.3627 675.232 36.5307 676.348 36.5307 677.524C36.5307 678.364 36.4947 679.18 36.4227 679.972H23.3187ZM28.3947 671.656C26.9787 671.656 25.8147 672.136 24.9027 673.096C24.0147 674.056 23.4747 675.472 23.2827 677.344H33.5427C33.5427 675.52 33.0867 674.116 32.1747 673.132C31.2627 672.148 30.0027 671.656 28.3947 671.656ZM42.3248 664.06H44.8088V669.964H49.9928V672.772H44.8088V681.808C44.8088 682.504 44.8808 683.092 45.0248 683.572C45.1928 684.052 45.4088 684.436 45.6728 684.724C45.9368 685.012 46.2488 685.228 46.6088 685.372C46.9928 685.492 47.3888 685.552 47.7968 685.552C48.3968 685.552 48.9608 685.456 49.4888 685.264C50.0168 685.072 50.5208 684.844 51.0008 684.58L51.9008 687.172C51.4208 687.46 50.7728 687.736 49.9568 688C49.1408 688.288 48.2888 688.432 47.4008 688.432C45.6008 688.432 44.1728 687.844 43.1168 686.668C42.0848 685.492 41.5688 683.788 41.5688 681.556V672.772H38.3288V669.964H41.6408L42.3248 664.06ZM65.3093 672.412C64.8533 672.22 64.3133 672.124 63.6893 672.124C63.0173 672.124 62.3573 672.268 61.7093 672.556C61.0853 672.844 60.5213 673.276 60.0173 673.852C59.5373 674.428 59.1413 675.172 58.8293 676.084C58.5413 676.972 58.3973 678.028 58.3973 679.252V688H55.1573V669.28H58.2893V673.348C58.5053 672.772 58.7933 672.208 59.1533 671.656C59.5133 671.104 59.9333 670.624 60.4133 670.216C60.9173 669.808 61.4933 669.484 62.1413 669.244C62.7893 668.98 63.5093 668.848 64.3013 668.848C64.6613 668.848 65.0093 668.872 65.3453 668.92C65.7053 668.944 66.0173 668.992 66.2813 669.064L65.3093 672.412ZM67.1864 678.748C67.1864 677.356 67.4024 676.06 67.8344 674.86C68.2664 673.636 68.8664 672.58 69.6344 671.692C70.4264 670.804 71.3624 670.108 72.4424 669.604C73.5464 669.1 74.7464 668.848 76.0424 668.848C77.1224 668.848 78.0944 669.04 78.9584 669.424C79.8464 669.784 80.6144 670.24 81.2624 670.792V669.28H84.2144V683.464C84.2144 684.376 84.4304 684.976 84.8624 685.264C85.3184 685.528 85.8104 685.66 86.3384 685.66L85.6544 688.18C83.3504 688.18 81.9584 687.244 81.4784 685.372C81.1904 685.756 80.8544 686.14 80.4704 686.524C80.1104 686.884 79.6904 687.208 79.2104 687.496C78.7304 687.784 78.1904 688.012 77.5904 688.18C76.9904 688.348 76.3304 688.432 75.6104 688.432C74.4344 688.432 73.3304 688.204 72.2984 687.748C71.2904 687.292 70.4024 686.644 69.6344 685.804C68.8904 684.964 68.2904 683.956 67.8344 682.78C67.4024 681.58 67.1864 680.236 67.1864 678.748ZM76.3304 685.552C77.2424 685.552 78.1064 685.336 78.9224 684.904C79.7384 684.472 80.4224 683.908 80.9744 683.212V673.168C80.3264 672.712 79.6064 672.352 78.8144 672.088C78.0464 671.8 77.2304 671.656 76.3664 671.656C75.5024 671.656 74.7104 671.824 73.9904 672.16C73.2704 672.496 72.6464 672.976 72.1184 673.6C71.6144 674.2 71.2184 674.932 70.9304 675.796C70.6424 676.66 70.4984 677.608 70.4984 678.64C70.4984 679.648 70.6424 680.584 70.9304 681.448C71.2184 682.288 71.6264 683.02 72.1544 683.644C72.6824 684.244 73.2944 684.712 73.9904 685.048C74.7104 685.384 75.4904 685.552 76.3304 685.552ZM90.4132 683.788C91.0372 684.34 91.8172 684.784 92.7532 685.12C93.7132 685.456 94.7332 685.624 95.8132 685.624C97.1572 685.624 98.1652 685.408 98.8372 684.976C99.5332 684.52 99.8812 683.944 99.8812 683.248C99.8812 682.888 99.8092 682.552 99.6652 682.24C99.5452 681.928 99.3052 681.628 98.9452 681.34C98.6092 681.052 98.1412 680.776 97.5412 680.512C96.9412 680.224 96.1612 679.912 95.2012 679.576C93.4252 678.976 92.1052 678.268 91.2412 677.452C90.3772 676.612 89.9452 675.46 89.9452 673.996C89.9452 673.276 90.1012 672.604 90.4132 671.98C90.7492 671.356 91.2172 670.816 91.8172 670.36C92.4412 669.88 93.1852 669.508 94.0492 669.244C94.9372 668.98 95.9452 668.848 97.0732 668.848C98.2972 668.848 99.3652 668.98 100.277 669.244C101.213 669.484 102.053 669.796 102.797 670.18L101.897 672.844C101.249 672.46 100.505 672.148 99.6652 671.908C98.8492 671.668 97.9372 671.548 96.9292 671.548C95.6812 671.548 94.7332 671.8 94.0852 672.304C93.4372 672.808 93.1132 673.36 93.1132 673.96C93.1132 674.248 93.1612 674.512 93.2572 674.752C93.3772 674.992 93.5812 675.22 93.8692 675.436C94.1572 675.652 94.5412 675.868 95.0212 676.084C95.5012 676.3 96.1012 676.528 96.8212 676.768C97.9972 677.176 98.9932 677.596 99.8092 678.028C100.625 678.436 101.285 678.892 101.789 679.396C102.293 679.9 102.653 680.452 102.869 681.052C103.085 681.628 103.193 682.276 103.193 682.996C103.193 683.836 103.013 684.592 102.653 685.264C102.293 685.936 101.789 686.512 101.141 686.992C100.493 687.448 99.7012 687.796 98.7652 688.036C97.8532 688.3 96.8332 688.432 95.7052 688.432C94.2652 688.432 92.9812 688.252 91.8532 687.892C90.7252 687.532 89.7892 687.064 89.0452 686.488L90.4132 683.788Z" fill="#ED5565"/>
</svg>
