<svg width="100" height="100" viewBox="0 0 100 100" fill="none" xmlns="http://www.w3.org/2000/svg">
<path d="M54.4655 16.9701V6.6391C54.4655 2.97241 51.4931 0 47.8264 0H39.7866C39.1472 0 38.6284 0.518036 38.6284 1.15738V6.27213C38.6284 6.91147 39.1472 7.4295 39.7866 7.4295H44.1834C45.4354 7.4295 46.4493 8.44421 46.4493 9.69543V16.9701H54.4655Z" fill="#9773BD"/>
<path d="M54.4654 6.63986V16.9701H50.8116V6.63986C50.8116 2.97318 47.8408 0 44.1741 0H47.8255C51.4922 0 54.4654 2.97318 54.4654 6.63986Z" fill="#5F55AF"/>
<path d="M76.5245 25.2862H23.5261V19.2163C23.5261 17.4638 24.9467 16.0432 26.6984 16.0432H73.3514C75.1039 16.0432 76.5245 17.4638 76.5245 19.2163V25.2862Z" fill="#FCEDED"/>
<path d="M76.5234 19.2155V25.2862H71.4377V19.2155C71.4377 17.4638 70.0163 16.0432 68.2661 16.0432H73.3519C75.1021 16.0432 76.5234 17.4646 76.5234 19.2155V19.2155Z" fill="#EAD7E9"/>
<path d="M50.1776 37.0239H19.853L21.446 50.8766L23.2023 61.4258L23.9622 72.7638L26.3083 93.1595C26.7561 97.0581 30.0566 100 33.9796 100H66.3755C70.2993 100 73.5991 97.0581 74.0469 93.1595L76.56 71.3112L77.0033 61.2305L78.8176 51.6777L80.5029 37.0239H50.1776Z" fill="#EA552D"/>
<path d="M80.5029 37.0239L74.0469 93.1595C73.5991 97.0589 70.3001 100 66.3755 100H61.1372C65.0602 100 68.3607 97.0589 68.8093 93.1595L75.263 37.0239H80.5029Z" fill="#DA2F3C"/>
<path d="M81.4552 37.8509H18.5951C17.17 37.8509 16.0156 36.6958 16.0156 35.2714V26.9012C16.0156 25.476 17.1707 24.3217 18.5951 24.3217H81.4552C82.8796 24.3217 84.0347 25.4767 84.0347 26.9012V35.2714C84.0347 36.6958 82.8796 37.8509 81.4552 37.8509V37.8509Z" fill="#F4E0E6"/>
<path d="M84.0344 26.9012V35.2706C84.0344 36.6958 82.8801 37.8509 81.4549 37.8509H77.0032C78.4283 37.8509 79.5834 36.6966 79.5834 35.2706V26.9012C79.5834 25.476 78.4283 24.3209 77.0032 24.3209H81.4549C82.8801 24.3209 84.0344 25.476 84.0344 26.9012V26.9012Z" fill="#D6BFD1"/>
<path d="M23.9627 72.7638C28.0482 76.0552 33.1378 77.5269 38.3495 77.9938C42.7486 78.3875 47.166 76.9974 51.1821 75.3288C58.2469 72.3931 68.6626 67.9459 76.5605 71.3112L78.818 51.6777C70.6576 46.5706 58.9969 52.6146 51.3072 55.8098C47.2491 57.4967 42.7852 58.9012 38.3395 58.503C32.1689 57.9499 25.8296 55.2727 21.4465 50.8766L23.9627 72.7638Z" fill="#FCEDED"/>
<path d="M78.8177 51.6786L76.5594 71.3105C74.9458 70.6231 73.2292 70.2615 71.4546 70.1478L73.7854 49.8727C75.5569 50.1283 77.2506 50.6974 78.8177 51.6786Z" fill="#EAD7E9"/>
</svg>
