<svg width="100" height="100" viewBox="0 0 100 100" fill="none" xmlns="http://www.w3.org/2000/svg">
<path d="M38.0859 11.7188H14.6484V26.3672H38.0859V11.7188Z" fill="#E0E4EC"/>
<path d="M55.8594 11.7188H32.2266V26.3672H55.8594V11.7188Z" fill="#495A79"/>
<path d="M73.6328 11.7188H50V26.3672H73.6328V11.7188Z" fill="#D1D7E3"/>
<path d="M85.3516 11.7188H67.7734V26.3672H85.3516V11.7188Z" fill="#42516D"/>
<path d="M38.0859 23.4375H14.6484V38.0859H38.0859V23.4375Z" fill="#495A79"/>
<path d="M55.8594 23.4375H32.2266V38.0859H55.8594V23.4375Z" fill="#E0E4EC"/>
<path d="M73.6328 23.4375H50V38.0859H73.6328V23.4375Z" fill="#42516D"/>
<path d="M85.3516 23.4375H67.7734V38.0859H85.3516V23.4375Z" fill="#D1D7E3"/>
<path d="M32.2266 35.1562H14.6484V46.875H32.2266V35.1562Z" fill="#E0E4EC"/>
<path d="M50 35.1562H32.2266V46.875H50V35.1562Z" fill="#495A79"/>
<path d="M67.7734 35.1562H50V46.875H67.7734V35.1562Z" fill="#D1D7E3"/>
<path d="M85.3516 35.1562H67.7734V46.875H85.3516V35.1562Z" fill="#42516D"/>
<path d="M8.78906 0C3.92559 0 0 3.92559 0 8.78906V97.0703C0 98.7107 1.28887 100 2.92969 100H14.6484C16.2893 100 17.5781 98.7107 17.5781 97.0703V8.78906C17.5781 3.92559 13.6525 0 8.78906 0Z" fill="#6F7D96"/>
<path d="M17.5781 8.78906V97.0703C17.5781 98.7107 16.2893 100 14.6484 100H8.78906V0C13.6525 0 17.5781 3.92559 17.5781 8.78906Z" fill="#66728B"/>
<path d="M91.2109 0C86.3475 0 82.4219 3.92559 82.4219 8.78906V97.0703C82.4219 98.7107 83.7107 100 85.3516 100H97.0703C98.7111 100 100 98.7107 100 97.0703V8.78906C100 3.92559 96.0744 0 91.2109 0Z" fill="#6F7D96"/>
<path d="M100 8.78906V97.0703C100 98.7107 98.7111 100 97.0703 100H91.2109V0C96.0744 0 100 3.92559 100 8.78906Z" fill="#66728B"/>
</svg>
