<svg width="260" height="260" viewBox="0 0 345 279" fill="none" xmlns="http://www.w3.org/2000/svg">
<path d="M17.71 25H3.15V0.499998H6.475V22.025H17.71V25ZM34.186 15.9C34.186 14.99 34.0343 14.1267 33.731 13.31C33.451 12.4933 33.0426 11.7817 32.506 11.175C31.9926 10.5683 31.3743 10.09 30.651 9.74C29.951 9.36667 29.181 9.18 28.341 9.18C26.4976 9.18 25.0626 9.78667 24.036 11C23.0093 12.2133 22.496 13.8233 22.496 15.83C22.496 16.74 22.636 17.615 22.916 18.455C23.2193 19.2717 23.6276 19.995 24.141 20.625C24.6776 21.2317 25.296 21.7217 25.996 22.095C26.7193 22.445 27.501 22.62 28.341 22.62C29.251 22.62 30.0676 22.4567 30.791 22.13C31.5143 21.8033 32.121 21.3483 32.611 20.765C33.1243 20.1583 33.5093 19.4467 33.766 18.63C34.046 17.8133 34.186 16.9033 34.186 15.9ZM19.276 15.9C19.276 14.43 19.5093 13.1117 19.976 11.945C20.4426 10.755 21.0726 9.75167 21.866 8.935C22.6826 8.11833 23.6393 7.48833 24.736 7.045C25.856 6.60167 27.0576 6.38 28.341 6.38C29.601 6.38 30.7793 6.60167 31.876 7.045C32.996 7.48833 33.9643 8.11833 34.781 8.935C35.5976 9.75167 36.2393 10.7433 36.706 11.91C37.1726 13.0767 37.406 14.3833 37.406 15.83C37.406 17.2767 37.1726 18.595 36.706 19.785C36.2626 20.9517 35.6326 21.955 34.816 22.795C33.9993 23.635 33.031 24.2883 31.911 24.755C30.8143 25.1983 29.6243 25.42 28.341 25.42C27.0343 25.42 25.821 25.1867 24.701 24.72C23.6043 24.2533 22.6476 23.6 21.831 22.76C21.0376 21.92 20.4076 20.9167 19.941 19.75C19.4976 18.5833 19.276 17.3 19.276 15.9ZM48.8039 6.38C49.8539 6.38 50.7873 6.555 51.6039 6.905C52.4439 7.255 53.1673 7.68667 53.7739 8.2V6.8H56.6439V24.58C56.6439 26.0967 56.4456 27.3917 56.0489 28.465C55.6523 29.5383 55.0806 30.4133 54.3339 31.09C53.6106 31.79 52.7356 32.3033 51.7089 32.63C50.6823 32.9567 49.5389 33.12 48.2789 33.12C47.1823 33.12 46.1323 32.9917 45.1289 32.735C44.1256 32.4783 43.2273 32.0933 42.4339 31.58L43.5889 28.85C44.1489 29.2933 44.8023 29.655 45.5489 29.935C46.2956 30.2383 47.2056 30.39 48.2789 30.39C49.9356 30.39 51.2306 29.9583 52.1639 29.095C53.1206 28.2317 53.5989 26.8317 53.5989 24.895V22.655C53.1323 23.215 52.4556 23.7517 51.5689 24.265C50.7056 24.755 49.6673 25 48.4539 25C47.4273 25 46.4239 24.8017 45.4439 24.405C44.4639 23.985 43.6006 23.39 42.8539 22.62C42.1073 21.8267 41.5006 20.87 41.0339 19.75C40.5906 18.6067 40.3689 17.3 40.3689 15.83C40.3689 14.4767 40.5906 13.2283 41.0339 12.085C41.4773 10.9183 42.0723 9.915 42.8189 9.075C43.5889 8.235 44.4873 7.58167 45.5139 7.115C46.5406 6.625 47.6373 6.38 48.8039 6.38ZM49.1539 22.2C50.0873 22.2 50.9273 21.99 51.6739 21.57C52.4206 21.15 53.0273 20.66 53.4939 20.1V10.58C52.9573 10.2067 52.3389 9.86833 51.6389 9.565C50.9389 9.26167 50.0989 9.11 49.1189 9.11C48.3956 9.11 47.6956 9.26167 47.0189 9.565C46.3656 9.845 45.7823 10.265 45.2689 10.825C44.7556 11.385 44.3473 12.0733 44.0439 12.89C43.7406 13.6833 43.5889 14.605 43.5889 15.655C43.5889 16.6583 43.7406 17.5683 44.0439 18.385C44.3473 19.1783 44.7556 19.8667 45.2689 20.45C45.7823 21.01 46.3656 21.4417 47.0189 21.745C47.6956 22.0483 48.4073 22.2 49.1539 22.2ZM75.5776 15.9C75.5776 14.99 75.4259 14.1267 75.1226 13.31C74.8426 12.4933 74.4342 11.7817 73.8976 11.175C73.3842 10.5683 72.7659 10.09 72.0426 9.74C71.3426 9.36667 70.5726 9.18 69.7326 9.18C67.8892 9.18 66.4542 9.78667 65.4276 11C64.4009 12.2133 63.8876 13.8233 63.8876 15.83C63.8876 16.74 64.0276 17.615 64.3076 18.455C64.6109 19.2717 65.0192 19.995 65.5326 20.625C66.0692 21.2317 66.6876 21.7217 67.3876 22.095C68.1109 22.445 68.8926 22.62 69.7326 22.62C70.6426 22.62 71.4592 22.4567 72.1826 22.13C72.9059 21.8033 73.5126 21.3483 74.0026 20.765C74.5159 20.1583 74.9009 19.4467 75.1576 18.63C75.4376 17.8133 75.5776 16.9033 75.5776 15.9ZM60.6676 15.9C60.6676 14.43 60.9009 13.1117 61.3676 11.945C61.8342 10.755 62.4642 9.75167 63.2576 8.935C64.0742 8.11833 65.0309 7.48833 66.1276 7.045C67.2476 6.60167 68.4492 6.38 69.7326 6.38C70.9926 6.38 72.1709 6.60167 73.2676 7.045C74.3876 7.48833 75.3559 8.11833 76.1726 8.935C76.9892 9.75167 77.6309 10.7433 78.0976 11.91C78.5642 13.0767 78.7976 14.3833 78.7976 15.83C78.7976 17.2767 78.5642 18.595 78.0976 19.785C77.6542 20.9517 77.0242 21.955 76.2076 22.795C75.3909 23.635 74.4226 24.2883 73.3026 24.755C72.2059 25.1983 71.0159 25.42 69.7326 25.42C68.4259 25.42 67.2126 25.1867 66.0926 24.72C64.9959 24.2533 64.0392 23.6 63.2226 22.76C62.4292 21.92 61.7992 20.9167 61.3326 19.75C60.8892 18.5833 60.6676 17.3 60.6676 15.9ZM0.35 194.5H18.725V197.44H11.2V219H7.875V197.44H0.35V194.5ZM20.8936 211.195C21.1036 212.898 21.6986 214.228 22.6786 215.185C23.6586 216.142 24.9536 216.62 26.5636 216.62C27.6136 216.62 28.5586 216.515 29.3986 216.305C30.2386 216.072 31.0436 215.78 31.8136 215.43L32.5486 218.125C31.7086 218.522 30.7636 218.837 29.7136 219.07C28.6636 219.303 27.4853 219.42 26.1786 219.42C24.872 219.42 23.6936 219.21 22.6436 218.79C21.5936 218.347 20.6953 217.728 19.9486 216.935C19.2253 216.118 18.6653 215.127 18.2686 213.96C17.872 212.77 17.6736 211.417 17.6736 209.9C17.6736 208.547 17.872 207.287 18.2686 206.12C18.6653 204.953 19.2253 203.95 19.9486 203.11C20.672 202.247 21.5353 201.582 22.5386 201.115C23.542 200.625 24.662 200.38 25.8986 200.38C27.2053 200.38 28.3486 200.602 29.3286 201.045C30.3086 201.488 31.1253 202.095 31.7786 202.865C32.432 203.635 32.922 204.533 33.2486 205.56C33.5753 206.587 33.7386 207.672 33.7386 208.815C33.7386 209.632 33.7036 210.425 33.6336 211.195H20.8936ZM25.8286 203.11C24.452 203.11 23.3203 203.577 22.4336 204.51C21.5703 205.443 21.0453 206.82 20.8586 208.64H30.8336C30.8336 206.867 30.3903 205.502 29.5036 204.545C28.617 203.588 27.392 203.11 25.8286 203.11ZM41.9617 209.76L35.7317 202.55L38.1817 200.415L43.8167 207.695L49.3467 200.555L51.6917 202.55L45.6367 209.62L52.2867 217.285L49.9067 219.315L43.7817 211.72L37.7267 219.245L35.4867 217.285L41.9617 209.76ZM56.8717 195.725H59.2867V201.465H64.3267V204.195H59.2867V212.98C59.2867 213.657 59.3567 214.228 59.4967 214.695C59.6601 215.162 59.8701 215.535 60.1267 215.815C60.3834 216.095 60.6867 216.305 61.0367 216.445C61.4101 216.562 61.7951 216.62 62.1917 216.62C62.7751 216.62 63.3234 216.527 63.8367 216.34C64.3501 216.153 64.8401 215.932 65.3067 215.675L66.1817 218.195C65.7151 218.475 65.0851 218.743 64.2917 219C63.4984 219.28 62.6701 219.42 61.8067 219.42C60.0567 219.42 58.6684 218.848 57.6417 217.705C56.6384 216.562 56.1367 214.905 56.1367 212.735V204.195H52.9867V201.465H56.2067L56.8717 195.725ZM82.1743 209.9C82.1743 208.99 82.0226 208.127 81.7193 207.31C81.4393 206.493 81.0309 205.782 80.4943 205.175C79.9809 204.568 79.3626 204.09 78.6393 203.74C77.9393 203.367 77.1693 203.18 76.3293 203.18C74.4859 203.18 73.0509 203.787 72.0243 205C70.9976 206.213 70.4843 207.823 70.4843 209.83C70.4843 210.74 70.6243 211.615 70.9043 212.455C71.2076 213.272 71.6159 213.995 72.1293 214.625C72.6659 215.232 73.2843 215.722 73.9843 216.095C74.7076 216.445 75.4893 216.62 76.3293 216.62C77.2393 216.62 78.0559 216.457 78.7793 216.13C79.5026 215.803 80.1093 215.348 80.5993 214.765C81.1126 214.158 81.4976 213.447 81.7543 212.63C82.0343 211.813 82.1743 210.903 82.1743 209.9ZM67.2643 209.9C67.2643 208.43 67.4976 207.112 67.9643 205.945C68.4309 204.755 69.0609 203.752 69.8543 202.935C70.6709 202.118 71.6276 201.488 72.7243 201.045C73.8443 200.602 75.0459 200.38 76.3293 200.38C77.5893 200.38 78.7676 200.602 79.8643 201.045C80.9843 201.488 81.9526 202.118 82.7693 202.935C83.5859 203.752 84.2276 204.743 84.6943 205.91C85.1609 207.077 85.3943 208.383 85.3943 209.83C85.3943 211.277 85.1609 212.595 84.6943 213.785C84.2509 214.952 83.6209 215.955 82.8043 216.795C81.9876 217.635 81.0193 218.288 79.8993 218.755C78.8026 219.198 77.6126 219.42 76.3293 219.42C75.0226 219.42 73.8093 219.187 72.6893 218.72C71.5926 218.253 70.6359 217.6 69.8193 216.76C69.0259 215.92 68.3959 214.917 67.9293 213.75C67.4859 212.583 67.2643 211.3 67.2643 209.9ZM89.3372 214.905C89.9439 215.442 90.7022 215.873 91.6122 216.2C92.5456 216.527 93.5372 216.69 94.5872 216.69C95.8939 216.69 96.8739 216.48 97.5272 216.06C98.2039 215.617 98.5422 215.057 98.5422 214.38C98.5422 214.03 98.4722 213.703 98.3322 213.4C98.2156 213.097 97.9822 212.805 97.6322 212.525C97.3056 212.245 96.8506 211.977 96.2672 211.72C95.6839 211.44 94.9256 211.137 93.9922 210.81C92.2656 210.227 90.9822 209.538 90.1422 208.745C89.3022 207.928 88.8822 206.808 88.8822 205.385C88.8822 204.685 89.0339 204.032 89.3372 203.425C89.6639 202.818 90.1189 202.293 90.7022 201.85C91.3089 201.383 92.0322 201.022 92.8722 200.765C93.7356 200.508 94.7156 200.38 95.8122 200.38C97.0022 200.38 98.0406 200.508 98.9272 200.765C99.8372 200.998 100.654 201.302 101.377 201.675L100.502 204.265C99.8722 203.892 99.1489 203.588 98.3322 203.355C97.5389 203.122 96.6522 203.005 95.6722 203.005C94.4589 203.005 93.5372 203.25 92.9072 203.74C92.2772 204.23 91.9622 204.767 91.9622 205.35C91.9622 205.63 92.0089 205.887 92.1022 206.12C92.2189 206.353 92.4172 206.575 92.6972 206.785C92.9772 206.995 93.3506 207.205 93.8172 207.415C94.2839 207.625 94.8672 207.847 95.5672 208.08C96.7106 208.477 97.6789 208.885 98.4722 209.305C99.2656 209.702 99.9072 210.145 100.397 210.635C100.887 211.125 101.237 211.662 101.447 212.245C101.657 212.805 101.762 213.435 101.762 214.135C101.762 214.952 101.587 215.687 101.237 216.34C100.887 216.993 100.397 217.553 99.7672 218.02C99.1372 218.463 98.3672 218.802 97.4572 219.035C96.5706 219.292 95.5789 219.42 94.4822 219.42C93.0822 219.42 91.8339 219.245 90.7372 218.895C89.6406 218.545 88.7306 218.09 88.0072 217.53L89.3372 214.905Z" fill="#ED5565"/>
<path d="M0.35 65.125L9.94 41.5H13.58L23.03 65.125L19.985 66.35L17.255 59.35H5.915L3.185 66.28L0.35 65.125ZM6.965 56.55H16.17L11.585 44.79L6.965 56.55ZM26.5289 41.57C27.3456 41.4767 28.3489 41.395 29.5389 41.325C30.7522 41.255 32.1522 41.22 33.7389 41.22C36.7489 41.22 39.0472 41.78 40.6339 42.9C42.2439 44.02 43.0489 45.56 43.0489 47.52C43.0489 48.8267 42.7106 49.9233 42.0339 50.81C41.3572 51.6967 40.3539 52.4317 39.0239 53.015C40.6106 53.575 41.8122 54.345 42.6289 55.325C43.4456 56.305 43.8539 57.53 43.8539 59C43.8539 61.24 42.9789 63.0133 41.2289 64.32C39.5022 65.6267 36.9589 66.28 33.5989 66.28C32.1756 66.28 30.8222 66.245 29.5389 66.175C28.2789 66.1283 27.2756 66.0467 26.5289 65.93V41.57ZM33.8439 63.515C35.9439 63.515 37.5656 63.1417 38.7089 62.395C39.8756 61.6483 40.4589 60.5633 40.4589 59.14C40.4589 57.74 39.8872 56.6433 38.7439 55.85C37.6006 55.0567 35.9672 54.66 33.8439 54.66H29.8539V63.305C31.0672 63.445 32.3972 63.515 33.8439 63.515ZM33.7039 52.07C35.5472 52.07 37.0056 51.6967 38.0789 50.95C39.1756 50.18 39.7239 49.1767 39.7239 47.94C39.7239 46.61 39.1872 45.6067 38.1139 44.93C37.0406 44.2533 35.5706 43.915 33.7039 43.915C32.9339 43.915 32.2339 43.9383 31.6039 43.985C30.9739 44.0083 30.3906 44.0433 29.8539 44.09V52.07H33.7039ZM50.2198 58.195C50.4298 59.8983 51.0248 61.2283 52.0048 62.185C52.9848 63.1417 54.2798 63.62 55.8898 63.62C56.9398 63.62 57.8848 63.515 58.7248 63.305C59.5648 63.0717 60.3698 62.78 61.1398 62.43L61.8748 65.125C61.0348 65.5217 60.0898 65.8367 59.0398 66.07C57.9898 66.3033 56.8115 66.42 55.5048 66.42C54.1981 66.42 53.0198 66.21 51.9698 65.79C50.9198 65.3467 50.0215 64.7283 49.2748 63.935C48.5515 63.1183 47.9915 62.1267 47.5948 60.96C47.1981 59.77 46.9998 58.4167 46.9998 56.9C46.9998 55.5467 47.1981 54.2867 47.5948 53.12C47.9915 51.9533 48.5515 50.95 49.2748 50.11C49.9981 49.2467 50.8615 48.5817 51.8648 48.115C52.8681 47.625 53.9881 47.38 55.2248 47.38C56.5315 47.38 57.6748 47.6017 58.6548 48.045C59.6348 48.4883 60.4515 49.095 61.1048 49.865C61.7581 50.635 62.2481 51.5333 62.5748 52.56C62.9015 53.5867 63.0648 54.6717 63.0648 55.815C63.0648 56.6317 63.0298 57.425 62.9598 58.195H50.2198ZM55.1548 50.11C53.7781 50.11 52.6465 50.5767 51.7598 51.51C50.8965 52.4433 50.3715 53.82 50.1848 55.64H60.1598C60.1598 53.8667 59.7165 52.5017 58.8298 51.545C57.9431 50.5883 56.7181 50.11 55.1548 50.11ZM69.2579 58.195C69.4679 59.8983 70.0629 61.2283 71.0429 62.185C72.0229 63.1417 73.3179 63.62 74.9279 63.62C75.9779 63.62 76.9229 63.515 77.7629 63.305C78.6029 63.0717 79.4079 62.78 80.1779 62.43L80.9129 65.125C80.0729 65.5217 79.1279 65.8367 78.0779 66.07C77.0279 66.3033 75.8496 66.42 74.5429 66.42C73.2362 66.42 72.0579 66.21 71.0079 65.79C69.9579 65.3467 69.0596 64.7283 68.3129 63.935C67.5896 63.1183 67.0296 62.1267 66.6329 60.96C66.2362 59.77 66.0379 58.4167 66.0379 56.9C66.0379 55.5467 66.2362 54.2867 66.6329 53.12C67.0296 51.9533 67.5896 50.95 68.3129 50.11C69.0362 49.2467 69.8996 48.5817 70.9029 48.115C71.9062 47.625 73.0262 47.38 74.2629 47.38C75.5696 47.38 76.7129 47.6017 77.6929 48.045C78.6729 48.4883 79.4896 49.095 80.1429 49.865C80.7962 50.635 81.2862 51.5333 81.6129 52.56C81.9396 53.5867 82.1029 54.6717 82.1029 55.815C82.1029 56.6317 82.0679 57.425 81.9979 58.195H69.2579ZM74.1929 50.11C72.8162 50.11 71.6846 50.5767 70.7979 51.51C69.9346 52.4433 69.4096 53.82 69.2229 55.64H79.1979C79.1979 53.8667 78.7546 52.5017 77.8679 51.545C76.9812 50.5883 75.7562 50.11 74.1929 50.11ZM84.901 63.41L97.921 44.37H85.496V41.5H101.736V44.02L88.716 63.06H102.226V66H84.901V63.41ZM108.428 58.195C108.638 59.8983 109.233 61.2283 110.213 62.185C111.193 63.1417 112.488 63.62 114.098 63.62C115.148 63.62 116.093 63.515 116.933 63.305C117.773 63.0717 118.578 62.78 119.348 62.43L120.083 65.125C119.243 65.5217 118.298 65.8367 117.248 66.07C116.198 66.3033 115.019 66.42 113.713 66.42C112.406 66.42 111.228 66.21 110.178 65.79C109.128 65.3467 108.229 64.7283 107.483 63.935C106.759 63.1183 106.199 62.1267 105.803 60.96C105.406 59.77 105.208 58.4167 105.208 56.9C105.208 55.5467 105.406 54.2867 105.803 53.12C106.199 51.9533 106.759 50.95 107.483 50.11C108.206 49.2467 109.069 48.5817 110.073 48.115C111.076 47.625 112.196 47.38 113.433 47.38C114.739 47.38 115.883 47.6017 116.863 48.045C117.843 48.4883 118.659 49.095 119.313 49.865C119.966 50.635 120.456 51.5333 120.783 52.56C121.109 53.5867 121.273 54.6717 121.273 55.815C121.273 56.6317 121.238 57.425 121.168 58.195H108.428ZM113.363 50.11C111.986 50.11 110.854 50.5767 109.968 51.51C109.104 52.4433 108.579 53.82 108.393 55.64H118.368C118.368 53.8667 117.924 52.5017 117.038 51.545C116.151 50.5883 114.926 50.11 113.363 50.11ZM127.466 58.195C127.676 59.8983 128.271 61.2283 129.251 62.185C130.231 63.1417 131.526 63.62 133.136 63.62C134.186 63.62 135.131 63.515 135.971 63.305C136.811 63.0717 137.616 62.78 138.386 62.43L139.121 65.125C138.281 65.5217 137.336 65.8367 136.286 66.07C135.236 66.3033 134.058 66.42 132.751 66.42C131.444 66.42 130.266 66.21 129.216 65.79C128.166 65.3467 127.268 64.7283 126.521 63.935C125.798 63.1183 125.238 62.1267 124.841 60.96C124.444 59.77 124.246 58.4167 124.246 56.9C124.246 55.5467 124.444 54.2867 124.841 53.12C125.238 51.9533 125.798 50.95 126.521 50.11C127.244 49.2467 128.108 48.5817 129.111 48.115C130.114 47.625 131.234 47.38 132.471 47.38C133.778 47.38 134.921 47.6017 135.901 48.045C136.881 48.4883 137.698 49.095 138.351 49.865C139.004 50.635 139.494 51.5333 139.821 52.56C140.148 53.5867 140.311 54.6717 140.311 55.815C140.311 56.6317 140.276 57.425 140.206 58.195H127.466ZM132.401 50.11C131.024 50.11 129.893 50.5767 129.006 51.51C128.143 52.4433 127.618 53.82 127.431 55.64H137.406C137.406 53.8667 136.963 52.5017 136.076 51.545C135.189 50.5883 133.964 50.11 132.401 50.11ZM7.26 97.1H11.4V106.94H20.04V111.62H11.4V126.68C11.4 127.84 11.52 128.82 11.76 129.62C12.04 130.42 12.4 131.06 12.84 131.54C13.28 132.02 13.8 132.38 14.4 132.62C15.04 132.82 15.7 132.92 16.38 132.92C17.38 132.92 18.32 132.76 19.2 132.44C20.08 132.12 20.92 131.74 21.72 131.3L23.22 135.62C22.42 136.1 21.34 136.56 19.98 137C18.62 137.48 17.2 137.72 15.72 137.72C12.72 137.72 10.34 136.74 8.58 134.78C6.86 132.82 6 129.98 6 126.26V111.62H0.6V106.94H6.12L7.26 97.1ZM25.3758 121.58C25.3758 119.26 25.7358 117.1 26.4558 115.1C27.1758 113.06 28.1758 111.3 29.4558 109.82C30.7758 108.34 32.3358 107.18 34.1358 106.34C35.9758 105.5 37.9758 105.08 40.1358 105.08C41.9358 105.08 43.5558 105.4 44.9958 106.04C46.4758 106.64 47.7558 107.4 48.8358 108.32V105.8H53.7558V129.44C53.7558 130.96 54.1158 131.96 54.8358 132.44C55.5958 132.88 56.4158 133.1 57.2958 133.1L56.1558 137.3C52.3158 137.3 49.9958 135.74 49.1958 132.62C48.7158 133.26 48.1558 133.9 47.5158 134.54C46.9158 135.14 46.2158 135.68 45.4158 136.16C44.6158 136.64 43.7158 137.02 42.7158 137.3C41.7158 137.58 40.6158 137.72 39.4158 137.72C37.4558 137.72 35.6158 137.34 33.8958 136.58C32.2158 135.82 30.7358 134.74 29.4558 133.34C28.2158 131.94 27.2158 130.26 26.4558 128.3C25.7358 126.3 25.3758 124.06 25.3758 121.58ZM40.6158 132.92C42.1358 132.92 43.5758 132.56 44.9358 131.84C46.2958 131.12 47.4358 130.18 48.3558 129.02V112.28C47.2758 111.52 46.0758 110.92 44.7558 110.48C43.4758 110 42.1158 109.76 40.6758 109.76C39.2358 109.76 37.9158 110.04 36.7158 110.6C35.5158 111.16 34.4758 111.96 33.5958 113C32.7558 114 32.0958 115.22 31.6158 116.66C31.1358 118.1 30.8958 119.68 30.8958 121.4C30.8958 123.08 31.1358 124.64 31.6158 126.08C32.0958 127.48 32.7758 128.7 33.6558 129.74C34.5358 130.74 35.5558 131.52 36.7158 132.08C37.9158 132.64 39.2158 132.92 40.6158 132.92ZM69.727 111.02C70.847 109.34 72.247 107.94 73.927 106.82C75.647 105.66 77.627 105.08 79.867 105.08C82.347 105.08 84.367 105.68 85.927 106.88C87.487 108.04 88.607 109.64 89.287 111.68C90.527 109.84 91.987 108.28 93.667 107C95.387 105.72 97.507 105.08 100.027 105.08C101.707 105.08 103.167 105.36 104.407 105.92C105.687 106.48 106.747 107.28 107.587 108.32C108.427 109.32 109.047 110.54 109.447 111.98C109.887 113.38 110.107 114.94 110.107 116.66V137H104.707V117.08C104.707 114.92 104.207 113.18 103.207 111.86C102.207 110.5 100.827 109.82 99.067 109.82C98.147 109.82 97.267 110 96.427 110.36C95.587 110.72 94.787 111.22 94.027 111.86C93.267 112.46 92.547 113.18 91.867 114.02C91.187 114.82 90.567 115.66 90.007 116.54V137H84.607V117.08C84.607 114.92 84.107 113.18 83.107 111.86C82.107 110.5 80.727 109.82 78.967 109.82C78.087 109.82 77.227 110 76.387 110.36C75.547 110.68 74.727 111.14 73.927 111.74C73.167 112.34 72.447 113.04 71.767 113.84C71.087 114.64 70.467 115.48 69.907 116.36V137H64.507V105.8H69.727V111.02ZM117.309 121.58C117.309 119.26 117.669 117.1 118.389 115.1C119.109 113.06 120.109 111.3 121.389 109.82C122.709 108.34 124.269 107.18 126.069 106.34C127.909 105.5 129.909 105.08 132.069 105.08C133.869 105.08 135.489 105.4 136.929 106.04C138.409 106.64 139.689 107.4 140.769 108.32V105.8H145.689V129.44C145.689 130.96 146.049 131.96 146.769 132.44C147.529 132.88 148.349 133.1 149.229 133.1L148.089 137.3C144.249 137.3 141.929 135.74 141.129 132.62C140.649 133.26 140.089 133.9 139.449 134.54C138.849 135.14 138.149 135.68 137.349 136.16C136.549 136.64 135.649 137.02 134.649 137.3C133.649 137.58 132.549 137.72 131.349 137.72C129.389 137.72 127.549 137.34 125.829 136.58C124.149 135.82 122.669 134.74 121.389 133.34C120.149 131.94 119.149 130.26 118.389 128.3C117.669 126.3 117.309 124.06 117.309 121.58ZM132.549 132.92C134.069 132.92 135.509 132.56 136.869 131.84C138.229 131.12 139.369 130.18 140.289 129.02V112.28C139.209 111.52 138.009 110.92 136.689 110.48C135.409 110 134.049 109.76 132.609 109.76C131.169 109.76 129.849 110.04 128.649 110.6C127.449 111.16 126.409 111.96 125.529 113C124.689 114 124.029 115.22 123.549 116.66C123.069 118.1 122.829 119.68 122.829 121.4C122.829 123.08 123.069 124.64 123.549 126.08C124.029 127.48 124.709 128.7 125.589 129.74C126.469 130.74 127.489 131.52 128.649 132.08C129.849 132.64 131.149 132.92 132.549 132.92ZM161.661 111.02C162.781 109.34 164.201 107.94 165.921 106.82C167.681 105.66 169.761 105.08 172.161 105.08C175.681 105.08 178.301 106.14 180.021 108.26C181.781 110.38 182.661 113.18 182.661 116.66V137H177.261V117.26C177.261 114.98 176.741 113.18 175.701 111.86C174.661 110.5 173.181 109.82 171.261 109.82C170.341 109.82 169.441 110 168.561 110.36C167.681 110.68 166.821 111.14 165.981 111.74C165.181 112.34 164.421 113.04 163.701 113.84C163.021 114.64 162.401 115.48 161.841 116.36V137H156.441V105.8H161.661V111.02ZM197.348 110.78C198.468 109.14 199.868 107.78 201.548 106.7C203.268 105.62 205.308 105.08 207.668 105.08C211.188 105.08 213.808 106.14 215.528 108.26C217.288 110.38 218.168 113.18 218.168 116.66V137H212.768V117.26C212.768 114.98 212.248 113.18 211.208 111.86C210.208 110.5 208.748 109.82 206.828 109.82C205.908 109.82 204.988 110 204.068 110.36C203.188 110.68 202.348 111.14 201.548 111.74C200.748 112.34 199.988 113.04 199.268 113.84C198.548 114.64 197.908 115.48 197.348 116.36V137H191.948V92.6H197.348V110.78ZM250.616 121.4C250.616 119.84 250.356 118.36 249.836 116.96C249.356 115.56 248.656 114.34 247.736 113.3C246.856 112.26 245.796 111.44 244.556 110.84C243.356 110.2 242.036 109.88 240.596 109.88C237.436 109.88 234.976 110.92 233.216 113C231.456 115.08 230.576 117.84 230.576 121.28C230.576 122.84 230.816 124.34 231.296 125.78C231.816 127.18 232.516 128.42 233.396 129.5C234.316 130.54 235.376 131.38 236.576 132.02C237.816 132.62 239.156 132.92 240.596 132.92C242.156 132.92 243.556 132.64 244.796 132.08C246.036 131.52 247.076 130.74 247.916 129.74C248.796 128.7 249.456 127.48 249.896 126.08C250.376 124.68 250.616 123.12 250.616 121.4ZM225.056 121.4C225.056 118.88 225.456 116.62 226.256 114.62C227.056 112.58 228.136 110.86 229.496 109.46C230.896 108.06 232.536 106.98 234.416 106.22C236.336 105.46 238.396 105.08 240.596 105.08C242.756 105.08 244.776 105.46 246.656 106.22C248.576 106.98 250.236 108.06 251.636 109.46C253.036 110.86 254.136 112.56 254.936 114.56C255.736 116.56 256.136 118.8 256.136 121.28C256.136 123.76 255.736 126.02 254.936 128.06C254.176 130.06 253.096 131.78 251.696 133.22C250.296 134.66 248.636 135.78 246.716 136.58C244.836 137.34 242.796 137.72 240.596 137.72C238.356 137.72 236.276 137.32 234.356 136.52C232.476 135.72 230.836 134.6 229.436 133.16C228.076 131.72 226.996 130 226.196 128C225.436 126 225.056 123.8 225.056 121.4ZM302.304 99.8C297.904 99.8 294.304 101.14 291.504 103.82C288.704 106.46 286.984 110.1 286.344 114.74C287.464 113.66 288.884 112.68 290.604 111.8C292.364 110.88 294.384 110.42 296.664 110.42C298.344 110.42 299.884 110.72 301.284 111.32C302.724 111.92 303.964 112.76 305.004 113.84C306.044 114.92 306.864 116.24 307.464 117.8C308.064 119.32 308.364 121.04 308.364 122.96C308.364 125.16 308.024 127.18 307.344 129.02C306.664 130.82 305.724 132.36 304.524 133.64C303.324 134.92 301.884 135.92 300.204 136.64C298.524 137.36 296.704 137.72 294.744 137.72C292.824 137.72 291.004 137.38 289.284 136.7C287.604 135.98 286.124 134.9 284.844 133.46C283.564 131.98 282.544 130.12 281.784 127.88C281.064 125.64 280.704 123 280.704 119.96C280.704 116.56 281.164 113.34 282.084 110.3C283.004 107.26 284.364 104.6 286.164 102.32C287.964 100.04 290.204 98.24 292.884 96.92C295.564 95.56 298.684 94.88 302.244 94.88C302.604 94.88 302.984 94.9 303.384 94.94C303.824 94.94 304.204 94.96 304.524 95V99.92C304.204 99.88 303.844 99.86 303.444 99.86C303.044 99.82 302.664 99.8 302.304 99.8ZM295.284 114.92C293.524 114.92 291.864 115.34 290.304 116.18C288.784 117.02 287.424 118.14 286.224 119.54V120.86C286.264 122.74 286.504 124.42 286.944 125.9C287.424 127.38 288.044 128.64 288.804 129.68C289.604 130.68 290.524 131.46 291.564 132.02C292.644 132.54 293.784 132.8 294.984 132.8C296.184 132.8 297.264 132.58 298.224 132.14C299.224 131.66 300.064 131.02 300.744 130.22C301.464 129.38 302.004 128.4 302.364 127.28C302.764 126.16 302.964 124.94 302.964 123.62C302.964 121.02 302.264 118.92 300.864 117.32C299.464 115.72 297.604 114.92 295.284 114.92ZM330.54 94.28C332.86 94.28 334.92 94.78 336.72 95.78C338.52 96.74 340.02 98.16 341.22 100.04C342.42 101.88 343.32 104.16 343.92 106.88C344.56 109.56 344.88 112.62 344.88 116.06C344.88 123.02 343.64 128.38 341.16 132.14C338.68 135.86 335.1 137.72 330.42 137.72C325.74 137.72 322.18 135.82 319.74 132.02C317.3 128.22 316.08 122.86 316.08 115.94C316.08 108.98 317.32 103.64 319.8 99.92C322.28 96.16 325.86 94.28 330.54 94.28ZM330.48 99.2C329.16 99.2 327.96 99.5 326.88 100.1C325.8 100.66 324.88 101.6 324.12 102.92C323.36 104.2 322.78 105.9 322.38 108.02C321.98 110.14 321.78 112.76 321.78 115.88C321.78 121.44 322.54 125.66 324.06 128.54C325.58 131.38 327.72 132.8 330.48 132.8C331.8 132.8 333 132.52 334.08 131.96C335.16 131.36 336.08 130.42 336.84 129.14C337.6 127.82 338.18 126.1 338.58 123.98C338.98 121.86 339.18 119.24 339.18 116.12C339.18 110.56 338.42 106.36 336.9 103.52C335.38 100.64 333.24 99.2 330.48 99.2ZM0.35 259.125L9.94 235.5H13.58L23.03 259.125L19.985 260.35L17.255 253.35H5.915L3.185 260.28L0.35 259.125ZM6.965 250.55H16.17L11.585 238.79L6.965 250.55ZM26.5289 235.57C27.3456 235.477 28.3489 235.395 29.5389 235.325C30.7522 235.255 32.1522 235.22 33.7389 235.22C36.7489 235.22 39.0472 235.78 40.6339 236.9C42.2439 238.02 43.0489 239.56 43.0489 241.52C43.0489 242.827 42.7106 243.923 42.0339 244.81C41.3572 245.697 40.3539 246.432 39.0239 247.015C40.6106 247.575 41.8122 248.345 42.6289 249.325C43.4456 250.305 43.8539 251.53 43.8539 253C43.8539 255.24 42.9789 257.013 41.2289 258.32C39.5022 259.627 36.9589 260.28 33.5989 260.28C32.1756 260.28 30.8222 260.245 29.5389 260.175C28.2789 260.128 27.2756 260.047 26.5289 259.93V235.57ZM33.8439 257.515C35.9439 257.515 37.5656 257.142 38.7089 256.395C39.8756 255.648 40.4589 254.563 40.4589 253.14C40.4589 251.74 39.8872 250.643 38.7439 249.85C37.6006 249.057 35.9672 248.66 33.8439 248.66H29.8539V257.305C31.0672 257.445 32.3972 257.515 33.8439 257.515ZM33.7039 246.07C35.5472 246.07 37.0056 245.697 38.0789 244.95C39.1756 244.18 39.7239 243.177 39.7239 241.94C39.7239 240.61 39.1872 239.607 38.1139 238.93C37.0406 238.253 35.5706 237.915 33.7039 237.915C32.9339 237.915 32.2339 237.938 31.6039 237.985C30.9739 238.008 30.3906 238.043 29.8539 238.09V246.07H33.7039ZM50.2198 252.195C50.4298 253.898 51.0248 255.228 52.0048 256.185C52.9848 257.142 54.2798 257.62 55.8898 257.62C56.9398 257.62 57.8848 257.515 58.7248 257.305C59.5648 257.072 60.3698 256.78 61.1398 256.43L61.8748 259.125C61.0348 259.522 60.0898 259.837 59.0398 260.07C57.9898 260.303 56.8115 260.42 55.5048 260.42C54.1981 260.42 53.0198 260.21 51.9698 259.79C50.9198 259.347 50.0215 258.728 49.2748 257.935C48.5515 257.118 47.9915 256.127 47.5948 254.96C47.1981 253.77 46.9998 252.417 46.9998 250.9C46.9998 249.547 47.1981 248.287 47.5948 247.12C47.9915 245.953 48.5515 244.95 49.2748 244.11C49.9981 243.247 50.8615 242.582 51.8648 242.115C52.8681 241.625 53.9881 241.38 55.2248 241.38C56.5315 241.38 57.6748 241.602 58.6548 242.045C59.6348 242.488 60.4515 243.095 61.1048 243.865C61.7581 244.635 62.2481 245.533 62.5748 246.56C62.9015 247.587 63.0648 248.672 63.0648 249.815C63.0648 250.632 63.0298 251.425 62.9598 252.195H50.2198ZM55.1548 244.11C53.7781 244.11 52.6465 244.577 51.7598 245.51C50.8965 246.443 50.3715 247.82 50.1848 249.64H60.1598C60.1598 247.867 59.7165 246.502 58.8298 245.545C57.9431 244.588 56.7181 244.11 55.1548 244.11ZM69.2579 252.195C69.4679 253.898 70.0629 255.228 71.0429 256.185C72.0229 257.142 73.3179 257.62 74.9279 257.62C75.9779 257.62 76.9229 257.515 77.7629 257.305C78.6029 257.072 79.4079 256.78 80.1779 256.43L80.9129 259.125C80.0729 259.522 79.1279 259.837 78.0779 260.07C77.0279 260.303 75.8496 260.42 74.5429 260.42C73.2362 260.42 72.0579 260.21 71.0079 259.79C69.9579 259.347 69.0596 258.728 68.3129 257.935C67.5896 257.118 67.0296 256.127 66.6329 254.96C66.2362 253.77 66.0379 252.417 66.0379 250.9C66.0379 249.547 66.2362 248.287 66.6329 247.12C67.0296 245.953 67.5896 244.95 68.3129 244.11C69.0362 243.247 69.8996 242.582 70.9029 242.115C71.9062 241.625 73.0262 241.38 74.2629 241.38C75.5696 241.38 76.7129 241.602 77.6929 242.045C78.6729 242.488 79.4896 243.095 80.1429 243.865C80.7962 244.635 81.2862 245.533 81.6129 246.56C81.9396 247.587 82.1029 248.672 82.1029 249.815C82.1029 250.632 82.0679 251.425 81.9979 252.195H69.2579ZM74.1929 244.11C72.8162 244.11 71.6846 244.577 70.7979 245.51C69.9346 246.443 69.4096 247.82 69.2229 249.64H79.1979C79.1979 247.867 78.7546 246.502 77.8679 245.545C76.9812 244.588 75.7562 244.11 74.1929 244.11ZM84.901 257.41L97.921 238.37H85.496V235.5H101.736V238.02L88.716 257.06H102.226V260H84.901V257.41ZM108.428 252.195C108.638 253.898 109.233 255.228 110.213 256.185C111.193 257.142 112.488 257.62 114.098 257.62C115.148 257.62 116.093 257.515 116.933 257.305C117.773 257.072 118.578 256.78 119.348 256.43L120.083 259.125C119.243 259.522 118.298 259.837 117.248 260.07C116.198 260.303 115.019 260.42 113.713 260.42C112.406 260.42 111.228 260.21 110.178 259.79C109.128 259.347 108.229 258.728 107.483 257.935C106.759 257.118 106.199 256.127 105.803 254.96C105.406 253.77 105.208 252.417 105.208 250.9C105.208 249.547 105.406 248.287 105.803 247.12C106.199 245.953 106.759 244.95 107.483 244.11C108.206 243.247 109.069 242.582 110.073 242.115C111.076 241.625 112.196 241.38 113.433 241.38C114.739 241.38 115.883 241.602 116.863 242.045C117.843 242.488 118.659 243.095 119.313 243.865C119.966 244.635 120.456 245.533 120.783 246.56C121.109 247.587 121.273 248.672 121.273 249.815C121.273 250.632 121.238 251.425 121.168 252.195H108.428ZM113.363 244.11C111.986 244.11 110.854 244.577 109.968 245.51C109.104 246.443 108.579 247.82 108.393 249.64H118.368C118.368 247.867 117.924 246.502 117.038 245.545C116.151 244.588 114.926 244.11 113.363 244.11ZM127.466 252.195C127.676 253.898 128.271 255.228 129.251 256.185C130.231 257.142 131.526 257.62 133.136 257.62C134.186 257.62 135.131 257.515 135.971 257.305C136.811 257.072 137.616 256.78 138.386 256.43L139.121 259.125C138.281 259.522 137.336 259.837 136.286 260.07C135.236 260.303 134.058 260.42 132.751 260.42C131.444 260.42 130.266 260.21 129.216 259.79C128.166 259.347 127.268 258.728 126.521 257.935C125.798 257.118 125.238 256.127 124.841 254.96C124.444 253.77 124.246 252.417 124.246 250.9C124.246 249.547 124.444 248.287 124.841 247.12C125.238 245.953 125.798 244.95 126.521 244.11C127.244 243.247 128.108 242.582 129.111 242.115C130.114 241.625 131.234 241.38 132.471 241.38C133.778 241.38 134.921 241.602 135.901 242.045C136.881 242.488 137.698 243.095 138.351 243.865C139.004 244.635 139.494 245.533 139.821 246.56C140.148 247.587 140.311 248.672 140.311 249.815C140.311 250.632 140.276 251.425 140.206 252.195H127.466ZM132.401 244.11C131.024 244.11 129.893 244.577 129.006 245.51C128.143 246.443 127.618 247.82 127.431 249.64H137.406C137.406 247.867 136.963 246.502 136.076 245.545C135.189 244.588 133.964 244.11 132.401 244.11ZM1.815 268.025H2.85V270.485H5.01V271.655H2.85V275.42C2.85 275.71 2.88 275.955 2.94 276.155C3.01 276.355 3.1 276.515 3.21 276.635C3.32 276.755 3.45 276.845 3.6 276.905C3.76 276.955 3.925 276.98 4.095 276.98C4.345 276.98 4.58 276.94 4.8 276.86C5.02 276.78 5.23 276.685 5.43 276.575L5.805 277.655C5.605 277.775 5.335 277.89 4.995 278C4.655 278.12 4.3 278.18 3.93 278.18C3.18 278.18 2.585 277.935 2.145 277.445C1.715 276.955 1.5 276.245 1.5 275.315V271.655H0.15V270.485H1.53L1.815 268.025ZM6.34395 274.145C6.34395 273.565 6.43395 273.025 6.61395 272.525C6.79395 272.015 7.04395 271.575 7.36395 271.205C7.69395 270.835 8.08395 270.545 8.53395 270.335C8.99395 270.125 9.49395 270.02 10.0339 270.02C10.4839 270.02 10.8889 270.1 11.2489 270.26C11.6189 270.41 11.9389 270.6 12.2089 270.83V270.2H13.4389V276.11C13.4389 276.49 13.5289 276.74 13.7089 276.86C13.8989 276.97 14.1039 277.025 14.3239 277.025L14.0389 278.075C13.0789 278.075 12.4989 277.685 12.2989 276.905C12.1789 277.065 12.0389 277.225 11.8789 277.385C11.7289 277.535 11.5539 277.67 11.3539 277.79C11.1539 277.91 10.9289 278.005 10.6789 278.075C10.4289 278.145 10.1539 278.18 9.85395 278.18C9.36395 278.18 8.90395 278.085 8.47395 277.895C8.05395 277.705 7.68395 277.435 7.36395 277.085C7.05395 276.735 6.80395 276.315 6.61395 275.825C6.43395 275.325 6.34395 274.765 6.34395 274.145ZM10.1539 276.98C10.5339 276.98 10.8939 276.89 11.2339 276.71C11.5739 276.53 11.8589 276.295 12.0889 276.005V271.82C11.8189 271.63 11.5189 271.48 11.1889 271.37C10.8689 271.25 10.5289 271.19 10.1689 271.19C9.80895 271.19 9.47895 271.26 9.17895 271.4C8.87895 271.54 8.61895 271.74 8.39895 272C8.18895 272.25 8.02395 272.555 7.90395 272.915C7.78395 273.275 7.72395 273.67 7.72395 274.1C7.72395 274.52 7.78395 274.91 7.90395 275.27C8.02395 275.62 8.19395 275.925 8.41395 276.185C8.63395 276.435 8.88895 276.63 9.17895 276.77C9.47895 276.91 9.80395 276.98 10.1539 276.98ZM17.4318 271.505C17.7118 271.085 18.0618 270.735 18.4818 270.455C18.9118 270.165 19.4068 270.02 19.9668 270.02C20.5868 270.02 21.0918 270.17 21.4818 270.47C21.8718 270.76 22.1518 271.16 22.3218 271.67C22.6318 271.21 22.9968 270.82 23.4168 270.5C23.8468 270.18 24.3768 270.02 25.0068 270.02C25.4268 270.02 25.7918 270.09 26.1018 270.23C26.4218 270.37 26.6868 270.57 26.8968 270.83C27.1068 271.08 27.2618 271.385 27.3618 271.745C27.4718 272.095 27.5268 272.485 27.5268 272.915V278H26.1768V273.02C26.1768 272.48 26.0518 272.045 25.8018 271.715C25.5518 271.375 25.2068 271.205 24.7668 271.205C24.5368 271.205 24.3168 271.25 24.1068 271.34C23.8968 271.43 23.6968 271.555 23.5068 271.715C23.3168 271.865 23.1368 272.045 22.9668 272.255C22.7968 272.455 22.6418 272.665 22.5018 272.885V278H21.1518V273.02C21.1518 272.48 21.0268 272.045 20.7768 271.715C20.5268 271.375 20.1818 271.205 19.7418 271.205C19.5218 271.205 19.3068 271.25 19.0968 271.34C18.8868 271.42 18.6818 271.535 18.4818 271.685C18.2918 271.835 18.1118 272.01 17.9418 272.21C17.7718 272.41 17.6168 272.62 17.4768 272.84V278H16.1268V270.2H17.4318V271.505ZM29.3273 274.145C29.3273 273.565 29.4173 273.025 29.5973 272.525C29.7773 272.015 30.0273 271.575 30.3473 271.205C30.6773 270.835 31.0673 270.545 31.5173 270.335C31.9773 270.125 32.4773 270.02 33.0173 270.02C33.4673 270.02 33.8723 270.1 34.2323 270.26C34.6023 270.41 34.9223 270.6 35.1923 270.83V270.2H36.4223V276.11C36.4223 276.49 36.5123 276.74 36.6923 276.86C36.8823 276.97 37.0873 277.025 37.3073 277.025L37.0223 278.075C36.0623 278.075 35.4823 277.685 35.2823 276.905C35.1623 277.065 35.0223 277.225 34.8623 277.385C34.7123 277.535 34.5373 277.67 34.3373 277.79C34.1373 277.91 33.9123 278.005 33.6623 278.075C33.4123 278.145 33.1373 278.18 32.8373 278.18C32.3473 278.18 31.8873 278.085 31.4573 277.895C31.0373 277.705 30.6673 277.435 30.3473 277.085C30.0373 276.735 29.7873 276.315 29.5973 275.825C29.4173 275.325 29.3273 274.765 29.3273 274.145ZM33.1373 276.98C33.5173 276.98 33.8773 276.89 34.2173 276.71C34.5573 276.53 34.8423 276.295 35.0723 276.005V271.82C34.8023 271.63 34.5023 271.48 34.1723 271.37C33.8523 271.25 33.5123 271.19 33.1523 271.19C32.7923 271.19 32.4623 271.26 32.1623 271.4C31.8623 271.54 31.6023 271.74 31.3823 272C31.1723 272.25 31.0073 272.555 30.8873 272.915C30.7673 273.275 30.7073 273.67 30.7073 274.1C30.7073 274.52 30.7673 274.91 30.8873 275.27C31.0073 275.62 31.1773 275.925 31.3973 276.185C31.6173 276.435 31.8723 276.63 32.1623 276.77C32.4623 276.91 32.7873 276.98 33.1373 276.98ZM40.4152 271.505C40.6952 271.085 41.0502 270.735 41.4802 270.455C41.9202 270.165 42.4402 270.02 43.0402 270.02C43.9202 270.02 44.5752 270.285 45.0052 270.815C45.4452 271.345 45.6652 272.045 45.6652 272.915V278H44.3152V273.065C44.3152 272.495 44.1852 272.045 43.9252 271.715C43.6652 271.375 43.2952 271.205 42.8152 271.205C42.5852 271.205 42.3602 271.25 42.1402 271.34C41.9202 271.42 41.7052 271.535 41.4952 271.685C41.2952 271.835 41.1052 272.01 40.9252 272.21C40.7552 272.41 40.6002 272.62 40.4602 272.84V278H39.1102V270.2H40.4152V271.505ZM49.3371 271.445C49.6171 271.035 49.9671 270.695 50.3871 270.425C50.8171 270.155 51.3271 270.02 51.9171 270.02C52.7971 270.02 53.4521 270.285 53.8821 270.815C54.3221 271.345 54.5421 272.045 54.5421 272.915V278H53.1921V273.065C53.1921 272.495 53.0621 272.045 52.8021 271.715C52.5521 271.375 52.1871 271.205 51.7071 271.205C51.4771 271.205 51.2471 271.25 51.0171 271.34C50.7971 271.42 50.5871 271.535 50.3871 271.685C50.1871 271.835 49.9971 272.01 49.8171 272.21C49.6371 272.41 49.4771 272.62 49.3371 272.84V278H47.9871V266.9H49.3371V271.445ZM62.6541 274.1C62.6541 273.71 62.5891 273.34 62.4591 272.99C62.3391 272.64 62.1641 272.335 61.9341 272.075C61.7141 271.815 61.4491 271.61 61.1391 271.46C60.8391 271.3 60.5091 271.22 60.1491 271.22C59.3591 271.22 58.7441 271.48 58.3041 272C57.8641 272.52 57.6441 273.21 57.6441 274.07C57.6441 274.46 57.7041 274.835 57.8241 275.195C57.9541 275.545 58.1291 275.855 58.3491 276.125C58.5791 276.385 58.8441 276.595 59.1441 276.755C59.4541 276.905 59.7891 276.98 60.1491 276.98C60.5391 276.98 60.8891 276.91 61.1991 276.77C61.5091 276.63 61.7691 276.435 61.9791 276.185C62.1991 275.925 62.3641 275.62 62.4741 275.27C62.5941 274.92 62.6541 274.53 62.6541 274.1ZM56.2641 274.1C56.2641 273.47 56.3641 272.905 56.5641 272.405C56.7641 271.895 57.0341 271.465 57.3741 271.115C57.7241 270.765 58.1341 270.495 58.6041 270.305C59.0841 270.115 59.5991 270.02 60.1491 270.02C60.6891 270.02 61.1941 270.115 61.6641 270.305C62.1441 270.495 62.5591 270.765 62.9091 271.115C63.2591 271.465 63.5341 271.89 63.7341 272.39C63.9341 272.89 64.0341 273.45 64.0341 274.07C64.0341 274.69 63.9341 275.255 63.7341 275.765C63.5441 276.265 63.2741 276.695 62.9241 277.055C62.5741 277.415 62.1591 277.695 61.6791 277.895C61.2091 278.085 60.6991 278.18 60.1491 278.18C59.5891 278.18 59.0691 278.08 58.5891 277.88C58.1191 277.68 57.7091 277.4 57.3591 277.04C57.0191 276.68 56.7491 276.25 56.5491 275.75C56.3591 275.25 56.2641 274.7 56.2641 274.1ZM74.781 267.5V276.8H76.566V278H71.286V276.8H73.431V269.225L71.421 270.74L70.686 269.735L73.791 267.5H74.781ZM85.8451 274.745C85.8451 275.245 85.7551 275.705 85.5751 276.125C85.4051 276.545 85.1551 276.91 84.8251 277.22C84.5051 277.52 84.1201 277.755 83.6701 277.925C83.2201 278.095 82.7201 278.18 82.1701 278.18C81.5501 278.18 81.0201 278.115 80.5801 277.985C80.1501 277.845 79.7551 277.65 79.3951 277.4L80.1001 276.245C80.3801 276.445 80.6901 276.615 81.0301 276.755C81.3701 276.885 81.7551 276.95 82.1851 276.95C82.5151 276.95 82.8151 276.9 83.0851 276.8C83.3651 276.7 83.6001 276.56 83.7901 276.38C83.9901 276.19 84.1451 275.97 84.2551 275.72C84.3651 275.47 84.4201 275.195 84.4201 274.895C84.4201 274.265 84.2051 273.755 83.7751 273.365C83.3551 272.975 82.7501 272.78 81.9601 272.78H80.1001V267.5H85.2901V268.715H81.3751V271.565H82.1251C82.7051 271.565 83.2251 271.645 83.6851 271.805C84.1451 271.955 84.5351 272.175 84.8551 272.465C85.1751 272.745 85.4201 273.08 85.5901 273.47C85.7601 273.86 85.8451 274.285 85.8451 274.745Z" fill="#9A9A9A"/>
</svg>
