<svg width="100" height="100" viewBox="0 0 100 100" fill="none" xmlns="http://www.w3.org/2000/svg">
<g clip-path="url(#clip0)">
<path d="M49.9875 19.7486V45.8427L44.1273 52.9326H32.4086L26.5492 45.4322V24.1431L32.4086 17.5803L44.1273 11.7209L49.9875 19.7486Z" fill="#FFDA2D"/>
<path d="M49.9873 19.7486V45.8427L44.1272 52.9326H38.2678V14.6506L44.1272 11.7209L49.9873 19.7486Z" fill="#FDBF00"/>
<path d="M73.4243 23.9677V45.7839L67.5649 52.9326H55.8462L49.9868 45.7839V19.9828L55.8462 11.7209L67.5649 17.5803L73.4243 23.9677Z" fill="#FFDA2D"/>
<path d="M73.4242 23.9677V45.7839L67.5648 52.9326H61.7054V14.6506L67.5648 17.5803L73.4242 23.9677Z" fill="#FDBF00"/>
<path d="M79.2836 2.93561V52.9364H67.5648V5.8653C67.5648 4.75217 68.2095 3.75577 69.2051 3.22858L75.0653 0.298885C76.9986 -0.638005 79.2836 0.768093 79.2836 2.93561V2.93561Z" fill="#FFDA2D"/>
<path d="M79.2836 2.93561V52.9364H73.4242V1.11905L75.0653 0.298885C76.9986 -0.638005 79.2836 0.768093 79.2836 2.93561V2.93561Z" fill="#FDBF00"/>
<path d="M55.8467 5.85852V52.9297H44.1272V2.92883C44.1272 0.761317 46.413 -0.645545 48.3463 0.292109L54.2056 3.2218C55.202 3.74975 55.8467 4.74539 55.8467 5.85852V5.85852Z" fill="#FFDA2D"/>
<path d="M55.8462 5.8616V52.9327H49.9868V1.11536L54.2051 3.22488C55.2015 3.75284 55.8462 4.74847 55.8462 5.8616Z" fill="#FDBF00"/>
<path d="M32.4076 2.93561V52.9364H20.6888V5.8653C20.6888 4.75217 21.3335 3.75577 22.3299 3.22858L28.1893 0.298885C30.1226 -0.638005 32.4076 0.768093 32.4076 2.93561Z" fill="#FFDA2D"/>
<path d="M32.4086 2.93561V52.9364H26.5492V1.11905L28.1903 0.298885C30.1236 -0.638005 32.4086 0.768093 32.4086 2.93561Z" fill="#FDBF00"/>
<path d="M83.3261 58.7919L79.0491 82.4247L70.4943 88.284H29.4779L20.923 82.4247L16.646 58.7919L23.6185 52.9325H76.3536L83.3261 58.7919Z" fill="#FFF4CA"/>
<path d="M83.3265 58.7919L79.0495 82.4247L70.4946 88.284H49.9868V52.9325H76.354L83.3265 58.7919Z" fill="#FFE1BA"/>
<path d="M79.049 82.4247L76.2948 97.6011C76.1773 98.48 75.5914 99.1827 74.83 99.6519C74.0686 100.062 73.1309 100.12 72.3108 99.7694C63.2287 96.1362 56.6072 94.3197 49.9864 94.3197C43.3648 94.3197 36.744 96.1362 27.6613 99.7694C26.8411 100.12 25.9034 100.062 25.142 99.6519C24.3806 99.1827 23.7947 98.48 23.6772 97.6011L20.923 82.4247H79.049Z" fill="#FF641A"/>
<path d="M88.0142 32.9519L83.3267 58.7919H16.6465L11.959 32.9519C11.7828 31.9555 12.1345 30.9599 12.8379 30.2565C13.5994 29.553 14.6537 29.3188 15.5922 29.6118L34.0492 34.7685C35.0448 35.0615 35.7483 35.7641 36.0412 36.7018C37.9753 42.9129 43.5997 47.0732 49.987 47.0732C56.3736 47.0732 61.9987 42.9129 63.932 36.7018C64.225 35.7641 64.9276 35.0615 65.924 34.7685L84.3818 29.6118C85.3195 29.3188 86.3739 29.553 87.1353 30.2565C87.8387 30.9599 88.1904 31.9555 88.0142 32.9519V32.9519Z" fill="#FF641A"/>
<path d="M49.9867 82.4252H79.0494L76.2951 97.6014C76.1776 98.4803 75.5917 99.183 74.8303 99.6522C74.0689 100.062 73.1312 100.121 72.3111 99.7697C63.229 96.1366 56.6075 94.3201 49.9867 94.3201V82.4252Z" fill="#F03800"/>
<path d="M88.014 32.9523L83.3264 58.7923H49.9867V47.0735C56.3733 47.0735 61.9984 42.9132 63.9317 36.7021C64.2247 35.7645 64.9274 35.0618 65.9238 34.7689L84.3816 29.6121C85.3192 29.3192 86.3736 29.5534 87.135 30.2568C87.8385 30.9603 88.1902 31.9559 88.014 32.9523V32.9523Z" fill="#F03800"/>
</g>
<defs>
<clipPath id="clip0">
<rect width="100" height="100" fill="white"/>
</clipPath>
</defs>
</svg>
