<svg width="100" height="100" viewBox="0 0 100 100" fill="none" xmlns="http://www.w3.org/2000/svg">
<path d="M49.9348 89.559C49.9348 89.559 74.3187 89.559 83.5276 89.559C92.7364 89.559 94.6819 82.9442 94.6819 82.9442C94.6819 82.9442 98.1838 74.773 98.1838 57.0038C98.1838 31.1932 76.5237 10.4409 49.9348 10.4409C23.346 10.4409 1.68579 31.3229 1.68579 57.0038C1.68579 74.773 5.18774 82.9442 5.18774 82.9442C5.18774 82.9442 7.13326 89.559 16.3421 89.559C25.5509 89.559 49.9348 89.559 49.9348 89.559Z" fill="#D68041"/>
<path d="M76.0049 82.9439C76.0049 82.9439 79.5068 74.7727 79.5068 57.0036C79.5068 34.3058 62.7753 15.499 40.5963 11.2189C18.4173 15.3693 1.68579 34.3058 1.68579 57.0036C1.68579 74.7727 5.18774 82.9439 5.18774 82.9439C5.18774 82.9439 7.13326 89.5587 16.3421 89.5587C19.844 89.5587 25.5509 89.5587 31.2578 89.5587C40.5963 89.5587 49.9348 89.5587 49.9348 89.5587C49.9348 89.5587 56.9387 89.5587 64.8505 89.5587C74.0593 89.5587 76.0049 82.9439 76.0049 82.9439Z" fill="#EC9548"/>
<path d="M98.0541 58.4307H88.8453L77.8207 69.3257L67.5743 58.4307H1.68579L3.24221 46.4982H96.368L98.0541 58.4307Z" fill="#4DBC1F"/>
<path d="M1.16748 57.9119H67.0559L77.8212 69.3256L89.3646 57.9119H98.1843V70.7523H2.9833L1.16748 57.9119Z" fill="#92171F"/>
<path d="M31.2586 25.7456C31.2586 27.0426 30.221 27.9505 29.0537 27.9505C27.8864 27.9505 26.8488 26.9129 26.8488 25.7456C26.8488 24.5783 27.8864 23.5406 29.0537 23.5406C30.221 23.5406 31.2586 24.5783 31.2586 25.7456Z" fill="#231F20"/>
<path d="M33.4637 37.8077C34.6815 37.8077 35.6686 36.8205 35.6686 35.6028C35.6686 34.385 34.6815 33.3978 33.4637 33.3978C32.246 33.3978 31.2588 34.385 31.2588 35.6028C31.2588 36.8205 32.246 37.8077 33.4637 37.8077Z" fill="#231F20"/>
<path d="M22.5685 35.6027C23.7862 35.6027 24.7734 34.6156 24.7734 33.3978C24.7734 32.1801 23.7862 31.1929 22.5685 31.1929C21.3507 31.1929 20.3635 32.1801 20.3635 33.3978C20.3635 34.6156 21.3507 35.6027 22.5685 35.6027Z" fill="#231F20"/>
</svg>
