<svg width="100" height="100" viewBox="0 0 100 100" fill="none" xmlns="http://www.w3.org/2000/svg">
<path d="M15.3499 2.11255L33.0061 19.786C36.0827 22.8641 36.5686 27.5657 34.4592 31.1594C34.0686 31.8157 33.5983 32.4407 33.0202 33.0188C32.442 33.5969 31.817 34.0797 31.1483 34.4704C27.553 36.5813 22.8499 36.0954 19.7874 33.0188L19.7717 33.0329L2.09985 15.3625L1.55298 11.4875L5.41235 12.05L19.7702 26.4094C21.5983 28.236 24.567 28.2375 26.3967 26.4079C28.2249 24.5625 28.2249 21.611 26.3967 19.7829L12.0374 5.42349L11.4905 1.55005L15.3499 2.11255Z" fill="#CCD1D9"/>
<path d="M33.0203 33.0188C33.5984 32.4407 34.0688 31.8141 34.4594 31.1594L50.0063 46.6891L46.6938 50.0188L31.1484 34.4704C31.8172 34.0797 32.4422 33.5969 33.0203 33.0188V33.0188Z" fill="#AAB2BD"/>
<path d="M64.4438 32.2687L64.4751 32.2374L67.7876 35.5484L67.7563 35.5796L53.3173 50.0187L50.0048 53.3312L39.3517 64.003L36.022 60.6749L46.6938 50.0187L50.0063 46.689L64.4438 32.2687Z" fill="#CCD1D9"/>
<path d="M64.2249 58.7203L67.5359 62.0328L62.0203 67.55L58.7078 64.2375L59.8187 63.1281L63.1312 59.8141L64.2249 58.7203Z" fill="#656D78"/>
<path d="M39.3515 64.0031L40.4421 65.0969L37.1296 68.4078L31.614 62.8922L34.9281 59.5797L36.0218 60.675L39.3515 64.0031Z" fill="#656D78"/>
<path d="M49.9976 53.3452L53.3105 50.0323L63.1146 59.8364L59.8017 63.1493L49.9976 53.3452Z" fill="#AAB2BD"/>
<path d="M39.3453 70.6235C38.7359 71.2344 37.7468 71.2344 37.1359 70.6235L29.4015 62.8938C28.7921 62.2844 28.7906 61.2954 29.4031 60.6844C30.0125 60.075 31 60.0735 31.6125 60.6844L39.3453 68.4141C39.9546 69.0235 39.9546 70.0141 39.3453 70.6235V70.6235Z" fill="#ED5565"/>
<path d="M40.45 65.1C39.8406 65.7094 38.8515 65.7109 38.2406 65.1L34.9281 61.7891C34.3187 61.1797 34.3171 60.1906 34.9281 59.5797C35.539 58.9703 36.5265 58.9688 37.1375 59.5797L40.45 62.8906C41.0593 63.5 41.0593 64.4875 40.45 65.1Z" fill="#656D78"/>
<path d="M29.397 60.6735L3.6626 86.4094C0.895408 89.1891 0.86572 93.661 3.61728 96.4078C6.36728 99.1578 10.836 99.1266 13.6142 96.361V96.3469L39.3517 70.6266L37.1298 68.4078L31.6157 62.8922L29.397 60.6735ZM9.77353 92.4594C9.1626 93.0703 8.17041 93.0766 7.55947 92.4641C6.94697 91.8531 6.94228 90.8703 7.55166 90.2609L7.56416 90.25C8.1751 89.6391 9.1626 89.6375 9.77353 90.25C10.3845 90.8594 10.3845 91.8485 9.77353 92.4594V92.4594Z" fill="#ED5565"/>
<path d="M78.3798 2.86256L61.1642 20.0954C58.7235 22.5188 58.7235 26.5016 61.1626 28.9219L64.4751 32.236L67.7876 35.5469L71.0985 38.8751C73.5392 41.2985 77.5079 41.2985 79.9439 38.8751L97.1642 21.6579C98.2564 20.5485 101.022 16.6735 92.1782 7.82818C83.3501 -0.99838 79.4751 1.76881 78.3798 2.86256V2.86256ZM89.422 20.5516L77.7314 32.2407C77.1204 32.8516 76.1314 32.8516 75.522 32.2407C74.9095 31.6297 74.911 30.6422 75.522 30.0313L87.2126 18.3422C87.8235 17.7313 88.8126 17.7329 89.422 18.3422C90.0329 18.9532 90.0314 19.9438 89.422 20.5516V20.5516ZM85.5485 16.6797L73.861 28.3688C73.2517 28.9797 72.2626 28.9813 71.6517 28.3688C71.0423 27.7594 71.0407 26.7704 71.6517 26.1594L83.3392 14.4704C83.9501 13.8594 84.9376 13.8579 85.5485 14.4704C86.1595 15.0782 86.161 16.0688 85.5485 16.6797V16.6797ZM81.6923 12.8219L70.0017 24.511C69.3907 25.1235 68.4032 25.1235 67.7923 24.511C67.1814 23.9001 67.1814 22.9126 67.7923 22.3016L79.4814 10.6126C80.0939 10.0016 81.0798 10.0016 81.6923 10.6126C82.3032 11.2235 82.3032 12.211 81.6923 12.8219Z" fill="#E6E9ED"/>
<path d="M62.0283 69.7656C61.4173 70.375 60.4298 70.3766 59.8189 69.7656C59.208 69.1547 59.2064 68.1672 59.8189 67.5563L67.547 59.8219C68.158 59.2125 69.1455 59.2109 69.7564 59.8219C70.3673 60.4328 70.3689 61.4203 69.7564 62.0313L62.0283 69.7656Z" fill="#ED5565"/>
<path d="M60.9235 64.2391C60.3126 64.85 59.325 64.85 58.7141 64.2406C58.1032 63.6297 58.1016 62.6407 58.7126 62.0313L62.0204 58.7188C62.0204 58.7172 62.0204 58.7172 62.0204 58.7172C62.6313 58.1078 63.6188 58.1063 64.2297 58.7157C64.8407 59.3282 64.8422 60.3157 64.2313 60.9266L60.9235 64.2391Z" fill="#656D78"/>
<path d="M67.5359 62.0328L62.0219 67.55L59.8203 69.7672L86.3828 96.3313C89.1469 99.1094 93.6312 99.1266 96.3812 96.375C99.1156 93.6266 99.0984 89.1563 96.3203 86.3906L69.7578 59.8125L67.5359 62.0328ZM92.4937 92.4375C91.8828 93.05 90.8906 93.0547 90.2781 92.4438C89.6672 91.8328 89.6625 90.85 90.2719 90.2406L90.2844 90.2281C90.8953 89.6188 91.8828 89.6172 92.4937 90.2281C93.1047 90.8391 93.1047 91.8297 92.4937 92.4375V92.4375Z" fill="#ED5565"/>
</svg>
