<svg width="80" height="100" viewBox="0 0 80 100" fill="none" xmlns="http://www.w3.org/2000/svg">
<path d="M48.2302 74.6771H31.7686V91.2629H48.2302V74.6771Z" fill="#FDCC9B"/>
<path d="M31.769 76.6303C31.769 76.6303 38.6936 80.5971 48.2307 79.6782V74.6766H31.769V76.6303Z" fill="#FCBC85"/>
<path d="M8.03222 57.2027C12.4683 57.2027 16.0644 53.5118 16.0644 48.9587C16.0644 44.4057 12.4683 40.7147 8.03222 40.7147C3.59615 40.7147 0 44.4057 0 48.9587C0 53.5118 3.59615 57.2027 8.03222 57.2027Z" fill="#FCBC85"/>
<path d="M71.9677 57.2027C76.4038 57.2027 80 53.5118 80 48.9587C80 44.4057 76.4038 40.7147 71.9677 40.7147C67.5316 40.7147 63.9354 44.4057 63.9354 48.9587C63.9354 53.5118 67.5316 57.2027 71.9677 57.2027Z" fill="#FCBC85"/>
<path d="M71.9345 33.2123C71.9345 21.0694 62.0576 12.1836 39.9993 12.1836C17.9411 12.1836 8.06417 21.0689 8.06417 33.2123C8.06417 45.3556 5.75973 77.3427 39.9993 77.3427C74.2389 77.3427 71.9345 45.3556 71.9345 33.2123Z" fill="#FDCC9B"/>
<path d="M24.4452 50.3903C26.3545 50.3903 27.9022 48.8653 27.9022 46.9841C27.9022 45.103 26.3545 43.578 24.4452 43.578C22.536 43.578 20.9883 45.103 20.9883 46.9841C20.9883 48.8653 22.536 50.3903 24.4452 50.3903Z" fill="#3B2519"/>
<path d="M22.9381 46.4102C23.5091 46.4102 23.9719 45.9938 23.9719 45.4802C23.9719 44.9665 23.5091 44.5502 22.9381 44.5502C22.3672 44.5502 21.9043 44.9665 21.9043 45.4802C21.9043 45.9938 22.3672 46.4102 22.9381 46.4102Z" fill="white"/>
<path d="M18.9149 38.5432C20.5496 39.2787 23.1744 36.0444 29.1827 38.8581C30.2781 39.3709 30.9316 34.4711 24.4915 34.4711C18.9149 34.4711 17.9271 38.0994 18.9149 38.5432Z" fill="#51362A"/>
<path d="M55.9808 50.3903C57.89 50.3903 59.4377 48.8653 59.4377 46.9841C59.4377 45.103 57.89 43.578 55.9808 43.578C54.0715 43.578 52.5238 45.103 52.5238 46.9841C52.5238 48.8653 54.0715 50.3903 55.9808 50.3903Z" fill="#3B2519"/>
<path d="M54.4747 46.4102C55.0457 46.4102 55.5085 45.9938 55.5085 45.4802C55.5085 44.9665 55.0457 44.5502 54.4747 44.5502C53.9038 44.5502 53.4409 44.9665 53.4409 45.4802C53.4409 45.9938 53.9038 46.4102 54.4747 46.4102Z" fill="white"/>
<path d="M61.0842 38.5432C59.4495 39.2787 56.8247 36.0444 50.8164 38.8581C49.721 39.3709 49.0675 34.4711 55.5082 34.4711C61.0842 34.4711 62.0715 38.0994 61.0842 38.5432Z" fill="#51362A"/>
<path d="M39.9999 58.9649C36.5838 58.9649 34.5264 56.6696 34.5264 57.78C34.5264 58.8908 35.5142 61.0012 39.9999 61.0012C44.4855 61.0012 45.4734 58.8908 45.4734 57.78C45.4734 56.6691 43.4153 58.9649 39.9999 58.9649Z" fill="#FCBC85"/>
<path d="M39.9999 69.1766C38.8182 69.1766 38.1064 68.3827 38.1064 68.7671C38.1064 69.1515 38.4481 69.8809 39.9999 69.8809C41.5516 69.8809 41.8927 69.1515 41.8927 68.7671C41.8927 68.3827 41.1809 69.1766 39.9999 69.1766Z" fill="#FCBC85"/>
<path d="M40 66.3468C34.5858 66.3468 31.3237 64.3634 31.3237 64.8662C31.3237 65.369 32.8895 67.3469 40 67.3469C47.1105 67.3469 48.6762 65.369 48.6762 64.8662C48.6757 64.3634 45.4142 66.3468 40 66.3468Z" fill="#F7945E"/>
<path d="M39.9999 81.3406V99.9999H0C0 92.4471 21.0693 81.3406 39.9999 81.3406Z" fill="#F7941E"/>
<path d="M39.9999 81.3406V99.9999H79.9998C79.9998 92.4471 58.9305 81.3406 39.9999 81.3406Z" fill="#F7941E"/>
<path d="M39.9995 81.3406C35.973 81.3406 31.8502 81.8469 27.8534 82.7109C27.8803 82.7426 32.2864 87.8566 39.9995 87.8566C47.1419 87.8566 51.8902 83.4771 52.5785 82.8036C48.4467 81.8811 44.1716 81.3406 39.9995 81.3406Z" fill="#F36C21"/>
<path d="M31.7686 81.9863C31.7686 81.9863 34.1761 84.6725 39.9991 84.6725C45.8221 84.6725 48.2302 81.9863 48.2302 81.9863C48.2302 81.9863 39.6911 79.1898 31.7686 81.9863Z" fill="#FDCC9B"/>
<path d="M66.2557 9.59229C66.2557 9.59229 54.4036 -3.95764 29.7699 1.15129C5.13667 6.25972 3.29087 19.588 4.03177 32.555C4.77266 45.5226 6.74782 53.1298 9.08418 52.1897C11.4205 51.2491 10.2048 42.6897 10.4517 40.7144C10.6987 38.739 12.9208 29.8058 27.9028 31.1389C42.8842 32.4719 55.5091 27.5846 55.5091 27.5846C55.5091 27.5846 60.5912 33.3636 63.9355 34.4709C70.6187 36.6831 68.4268 51.4335 71.0454 51.4335C73.664 51.4335 86.5034 17.3668 66.2557 9.59229Z" fill="#51362A"/>
</svg>
